<svg width="256" height="397" viewBox="0 0 256 397" fill="none" xmlns="http://www.w3.org/2000/svg">
<g clip-path="url(#clip0_79_316)">
<path d="M178.339 24.1422C179.204 24.2789 191.322 31.6133 196.88 35.9867C198.338 37.1255 204.488 42.5467 204.761 42.82C208.451 45.9633 211.731 49.5622 215.148 52.9789C216.013 53.8444 226.491 66.5089 229.68 71.0644C239.611 85.3689 246.809 100.994 251.273 117.804C254.918 131.471 256.558 145.366 255.874 159.533C254.963 178.849 250.043 197.117 241.023 214.246C236.376 223.129 230.819 231.42 224.259 238.982C222.619 240.896 217.881 245.907 217.198 246.499C215.876 247.638 214.601 248.822 213.371 250.052C211.412 251.92 209.316 253.606 207.221 255.291C204.624 257.432 201.891 259.437 199.158 261.396C193.463 265.496 187.313 268.867 180.89 271.782C171.46 276.11 161.62 279.299 151.415 281.167C131.735 284.766 112.283 284.082 93.0586 278.479C87.5464 276.884 82.2164 274.88 77.0231 272.557C68.6409 268.776 60.8053 264.129 53.4253 258.617C48.0953 254.653 43.0842 250.326 38.4375 245.588C31.5587 238.618 25.4542 230.964 20.2153 222.673C12.4709 210.464 6.91311 197.344 3.49644 183.313C0.261999 170.193 -0.740226 156.937 0.261996 143.498C1.62866 125.093 6.36644 107.646 14.3842 91.0633C18.302 82.9544 22.9031 75.3011 28.142 68.0122C31.8775 62.8189 35.8409 57.8078 40.1231 53.07C44.3598 48.56 52.5598 40.6333 55.7487 37.6267C63.2653 31.1578 71.5109 24.1878 71.5109 24.1878C71.5109 24.1878 57.1153 39.2667 48.3687 52.4778C46.592 55.2567 44.9064 58.0355 43.312 60.9511C37.3442 72.0667 33.1987 83.9111 31.1031 96.3933C28.7342 110.333 29.3264 124.228 33.0164 137.94C35.5675 147.37 39.3942 156.253 44.6787 164.499C48.7331 170.831 53.8809 176.161 59.7576 180.808C64.9053 184.862 70.4175 188.324 75.7931 192.06C79.9842 195.021 84.2209 197.891 88.0475 201.353C93.4687 206.228 98.2064 211.786 102.398 217.753C111.873 231.283 118.388 246.134 121.85 262.307C122.715 266.452 123.444 270.689 124.036 274.88C124.128 275.427 124.219 276.064 124.219 276.064H131.644C131.644 276.064 131.735 275.518 131.826 275.017C132.692 269.186 133.694 263.4 135.152 257.706C136.382 252.922 137.885 248.276 139.708 243.674C144.081 232.468 149.912 222.127 157.292 212.651C162.85 205.499 169.501 199.486 176.972 194.383C181.801 191.058 186.721 187.914 191.459 184.498C197.062 180.443 202.255 175.979 206.674 170.649C211.139 165.273 214.601 159.306 217.471 152.973C221.48 144.227 224.168 135.07 225.352 125.549C226.582 115.436 226.354 105.277 224.441 95.2544C222.71 86.0522 220.068 77.1689 216.15 68.65C213.508 62.91 210.501 57.3978 206.948 52.1589C199.659 41.3622 191.686 33.1167 180.844 25.9189C180.343 25.6 179.204 24.6889 178.339 24.1422Z" fill="white"/>
<path d="M71.2374 48.3322C70.964 48.7878 70.8729 48.9245 70.7363 49.1522C64.4496 58.8556 60.3952 69.3334 58.8007 80.8134C57.0696 93.3867 58.664 105.459 63.9485 117.03C67.0918 123.909 71.7385 129.603 77.7518 134.204C81.2596 136.892 84.9496 139.307 88.6396 141.767C91.054 143.407 93.4685 145.001 95.7918 146.732C101.668 151.106 106.315 156.527 109.777 162.996C115.29 173.337 119.298 184.179 121.212 195.75C121.895 199.941 122.26 204.132 122.305 208.323C122.487 217.89 122.396 227.411 122.715 236.978C122.806 239.392 122.897 241.852 122.988 244.267C122.988 244.677 123.171 248.868 123.08 249.779C122.988 248.777 122.487 244.95 122.442 244.631C121.804 240.212 121.075 235.839 120.027 231.466C118.433 224.906 115.927 218.664 112.921 212.606C110.415 207.503 107.454 202.629 104.037 198.073C100.393 193.199 96.0196 189.053 91.3274 185.181C85.724 180.534 80.1663 175.842 75.1096 170.603C72.0574 167.414 69.2329 163.998 66.6363 160.444C60.2129 151.607 55.4751 141.994 52.514 131.471C49.5074 120.629 48.7329 109.65 50.054 98.4889C51.6485 84.8678 55.7485 72.0667 62.5363 60.1767C65.4518 54.2545 71.5107 47.6945 71.5107 47.6945L71.2374 48.3322Z" fill="white"/>
<path d="M184.762 47.7855C195.558 63.4111 198.428 69.2422 201.617 78.6722C205.99 91.61 207.403 104.912 205.991 118.488C204.988 128.191 202.164 137.393 197.836 146.186C195.877 150.149 193.782 154.021 191.23 157.666C190 159.488 188.679 161.219 187.358 162.996C186.174 164.544 184.898 166.048 183.668 167.551C182.165 169.328 180.479 170.968 178.885 172.699C177.609 174.066 176.152 175.204 174.831 176.526C172.097 179.259 168.999 181.582 166.038 184.042C164.717 185.136 163.396 186.229 162.075 187.322C159.979 189.053 157.929 190.876 156.062 192.88C153.693 195.431 151.506 198.21 149.547 201.08C143.169 210.419 138.614 220.532 135.744 231.466C134.423 236.431 133.739 241.533 133.238 246.636C133.147 247.638 133.01 248.686 132.828 249.916C132.692 246.544 132.919 243.447 133.056 240.303C133.375 232.012 133.512 223.676 133.466 215.339C133.466 212.013 133.466 208.642 133.648 205.317C134.058 196.934 135.698 188.826 138.341 180.899C140.391 174.794 142.987 168.918 146.085 163.223C150.094 155.798 155.652 149.876 162.622 145.229C166.904 142.404 171.186 139.534 175.332 136.573C178.976 133.977 182.347 131.107 185.263 127.644C188.862 123.362 191.549 118.579 193.599 113.386C197.016 104.639 198.383 95.5277 197.791 86.0977C197.198 75.8477 194.146 66.2811 189.636 57.1244C188.771 55.3022 186.265 50.3366 184.762 47.7855Z" fill="white"/>
<path d="M127.772 137.074C127.134 130.697 127.134 124.091 126.724 117.531C126.314 111.29 124.993 105.277 122.761 99.4C120.62 93.7511 118.752 88.0111 117.568 82.0434C116.566 77.0778 116.156 72.0667 116.11 66.9645C115.973 58.0356 116.702 49.1522 118.069 40.3145C118.98 34.4834 120.301 28.7889 121.577 23.0489C123.262 15.5778 127.818 0.316692 128 -0.00219727C128.182 0.316692 136.564 29.8367 138.569 44.8245C139.753 53.5256 140.118 62.2722 139.799 71.0189C139.48 79.31 137.794 87.3278 134.924 95.1178C133.467 99.0356 131.918 102.908 130.87 106.962C129.731 111.381 129.184 115.846 128.866 120.401C128.501 125.731 127.818 136.938 127.772 137.074Z" fill="white"/>
<path d="M132.555 185.5C132.51 184.635 132.464 183.678 132.419 182.676C132.1 173.929 132.191 165.182 132.1 156.436C132.054 152.518 132.009 148.372 132.282 144.454C132.874 136.573 134.195 129.421 137.703 122.36C139.981 117.759 142.714 113.431 145.357 109.058C148.728 103.5 152.053 97.9423 154.923 92.1567C158.021 85.8245 160.572 79.2645 161.984 72.3401C163.123 66.6456 163.305 60.9056 162.577 55.1201C161.848 49.5623 157.565 38.5378 157.702 38.0823C158.158 38.4923 165.401 53.2978 167.36 60.6778C170.184 71.2012 170.868 81.9523 169.729 92.7489C168.635 102.68 165.902 112.156 161.665 121.221C158.34 128.328 154.103 134.888 149.639 141.311C146.814 145.457 143.899 149.557 141.53 153.976C139.207 158.258 137.339 162.677 136.063 167.414C134.651 172.608 133.603 177.072 133.011 182.357C132.874 183.496 132.783 183.814 132.555 185.5Z" fill="white"/>
<path d="M122.943 185.5C122.761 183.496 122.169 180.671 121.804 178.576C120.939 173.428 119.982 168.326 118.296 163.36C116.611 158.349 114.105 153.748 111.417 149.238C108.73 144.819 105.769 140.582 102.899 136.254C98.4342 129.467 94.4708 122.406 91.5097 114.798C87.1364 103.591 85.2686 91.9744 85.5875 79.9933C85.8153 72.6133 86.7719 65.3244 88.8675 58.2178C90.5075 52.6144 94.5164 43.4578 97.933 37.9911C93.833 46.8744 92.193 57.3066 92.6942 65.0966C93.0586 70.7911 94.4253 76.3033 96.3842 81.6789C98.2975 86.9178 100.712 91.9289 103.309 96.8489C106.497 102.771 110.051 108.466 113.513 114.206C116.747 119.627 119.617 125.184 121.394 131.243C123.08 136.983 123.809 142.814 123.991 148.782C124.173 156.572 123.763 164.362 123.399 172.152C123.216 175.614 123.216 179.077 123.034 182.539C122.943 183.404 122.989 184.908 122.943 185.5Z" fill="white"/>
<path d="M69.3245 366.401L67.32 357.563H49.9634L47.9589 366.401C47.6856 367.403 47.0934 367.905 46.2278 367.905H38.1645C37.1622 367.905 36.6611 367.403 36.6611 366.401L50.6922 307.999C50.9656 306.997 51.5578 306.496 52.3778 306.496H64.9967C65.8167 306.496 66.3634 306.997 66.6822 307.999L80.6222 366.401C80.6222 367.403 80.1211 367.905 79.1189 367.905H71.0556C70.19 367.905 69.5978 367.403 69.3245 366.401ZM59.1656 322.03H58.1178L52.3322 347.268H64.9511L59.1656 322.03Z" fill="white"/>
<path d="M105.45 342.029V334.74C105.45 333.738 105.952 333.237 106.954 333.237H123.536C124.538 333.237 125.039 333.738 125.039 334.74V353.327C125.039 357.518 123.536 361.071 120.484 363.941C117.386 366.857 113.696 368.314 109.414 368.314H103.719C99.4371 368.314 95.7471 366.857 92.6493 363.941C89.5971 361.071 88.0938 357.518 88.0938 353.327V321.073C88.0938 316.882 89.5971 313.329 92.6493 310.459C95.7471 307.543 99.4371 306.086 103.719 306.086H109.414C113.696 306.086 117.34 307.543 120.484 310.459C123.536 313.329 125.039 316.882 125.039 321.073V323.989C125.039 324.991 124.538 325.492 123.536 325.492H115.199C114.197 325.492 113.696 324.991 113.696 323.989V321.711C113.696 320.253 113.195 319.023 112.193 317.976C111.19 316.973 110.052 316.427 108.685 316.427H104.403C103.036 316.427 101.897 316.928 100.895 317.976C99.8926 318.978 99.3915 320.253 99.3915 321.711V352.734C99.3915 354.192 99.8926 355.422 100.895 356.47C101.897 357.472 103.036 358.019 104.403 358.019H108.685C110.006 358.019 111.19 357.518 112.193 356.47C113.195 355.468 113.696 354.192 113.696 352.734V343.532H106.954C105.952 343.532 105.45 343.031 105.45 342.029Z" fill="white"/>
<path d="M137.885 306.496H156.745C161.027 306.496 164.672 307.953 167.815 310.869C170.867 313.739 172.371 317.292 172.371 321.483V334.922C172.371 337.565 171.687 340.025 170.366 342.302C169 344.58 167.177 346.402 164.854 347.814L173.692 366.401C173.692 367.403 173.191 367.905 172.188 367.905H163.077C162.212 367.905 161.62 367.403 161.346 366.401L153.784 349.91H147.725V366.401C147.725 367.403 147.224 367.905 146.222 367.905H137.885C136.883 367.905 136.382 367.403 136.382 366.401V307.999C136.382 306.997 136.883 306.496 137.885 306.496ZM147.68 316.837V339.478H156.016C157.383 339.478 158.522 338.977 159.524 337.929C160.526 336.927 161.027 335.651 161.027 334.193V322.076C161.027 320.618 160.526 319.388 159.524 318.34C158.522 317.338 157.383 316.791 156.016 316.791H147.68V316.837Z" fill="white"/>
<path d="M203.714 368.314H198.019C193.737 368.314 190.047 366.857 186.949 363.941C183.897 361.071 182.394 357.518 182.394 353.327V321.073C182.394 316.882 183.897 313.329 186.949 310.459C190.047 307.543 193.737 306.086 198.019 306.086H203.714C207.996 306.086 211.64 307.543 214.784 310.459C217.836 313.329 219.339 316.882 219.339 321.073V353.327C219.339 357.518 217.836 361.071 214.784 363.941C211.686 366.857 207.996 368.314 203.714 368.314ZM203.03 316.427H198.748C197.381 316.427 196.242 316.928 195.24 317.976C194.238 318.978 193.737 320.253 193.737 321.711V352.734C193.737 354.192 194.238 355.422 195.24 356.47C196.242 357.472 197.381 358.019 198.748 358.019H203.03C204.351 358.019 205.536 357.518 206.538 356.47C207.54 355.468 208.041 354.192 208.041 352.734V321.711C208.041 320.253 207.54 319.023 206.538 317.976C205.536 316.928 204.351 316.427 203.03 316.427Z" fill="white"/>
<path d="M36.8438 380.523H43.8138C48.4604 380.523 50.8293 382.437 50.8293 386.218C50.8293 387.994 50.2826 389.316 49.1893 390.227C48.096 391.138 46.6382 391.593 44.816 391.593H41.7638V396.559H36.8893V380.523H36.8438ZM41.7182 384.441V387.858H44.0871C45.4537 387.858 46.0915 387.311 46.0915 386.172C46.0915 385.033 45.4082 384.441 43.996 384.441H41.7182Z" fill="white"/>
<path d="M62.173 380.523L68.0497 396.559H63.0841L62.3096 394.281H57.1619L56.3874 396.559H51.4219L57.3441 380.523H62.173ZM61.2163 390.819L60.3508 388.086C60.1685 387.448 59.9408 386.628 59.7585 385.671C59.5308 386.628 59.303 387.448 59.0752 388.131C58.8474 388.86 58.5741 389.771 58.2096 390.864H61.2163V390.819Z" fill="white"/>
<path d="M71.0557 380.523H79.7112C80.3946 380.523 81.0323 380.614 81.6701 380.751C82.3079 380.888 82.9001 381.161 83.4923 381.48C84.0845 381.799 84.5401 382.3 84.9046 382.938C85.269 383.576 85.4512 384.35 85.4512 385.216C85.4512 386.081 85.2234 386.856 84.8134 387.584C84.4034 388.268 83.8112 388.814 83.0823 389.133C83.8112 389.316 84.3579 389.771 84.7223 390.591C85.0868 391.366 85.3146 392.231 85.4057 393.097L85.5423 394.782C85.6334 395.648 85.7701 396.194 85.9523 396.513H81.0779C80.9412 396.24 80.8501 395.739 80.8046 395.01L80.759 394.099C80.7134 393.552 80.6679 393.142 80.5768 392.778C80.5312 392.459 80.3946 392.14 80.2123 391.776C80.0301 391.457 79.7568 391.229 79.3923 391.047C79.0279 390.91 78.5723 390.819 78.0257 390.819H75.9757V396.468H71.0557V380.523ZM75.9301 384.213V387.493H78.6179C79.939 387.493 80.6223 386.947 80.6223 385.808C80.6223 384.714 79.8479 384.168 78.3446 384.168H75.9301V384.213Z" fill="white"/>
<path d="M102.443 380.523V384.623H97.9333V396.513H93.0133V384.623H88.5488V380.523H102.443Z" fill="white"/>
<path d="M120.711 380.523V396.559H116.019L112.056 389.726C111.691 389.088 111.281 388.268 110.826 387.311C110.917 388.268 110.962 389.498 110.962 390.956V396.513H106.225V380.478H111.099L114.561 386.491C115.245 387.676 115.791 388.678 116.156 389.498C116.065 388.268 116.019 387.038 116.019 385.808V380.478H120.711V380.523Z" fill="white"/>
<path d="M138.57 380.523V384.396H130.142V386.4H137.795V390.09H130.142V392.413H138.798V396.468H125.268V380.432H138.57V380.523Z" fill="white"/>
<path d="M142.988 380.523H151.598C152.282 380.523 152.919 380.614 153.557 380.751C154.195 380.888 154.787 381.161 155.379 381.48C155.972 381.799 156.427 382.3 156.792 382.938C157.156 383.576 157.338 384.35 157.338 385.216C157.338 386.081 157.11 386.856 156.7 387.584C156.29 388.268 155.698 388.814 154.969 389.133C155.698 389.316 156.245 389.771 156.609 390.591C156.974 391.366 157.202 392.231 157.293 393.097L157.429 394.782C157.52 395.648 157.657 396.194 157.839 396.513H152.965C152.828 396.24 152.737 395.739 152.692 395.01L152.646 394.099C152.6 393.552 152.555 393.142 152.464 392.778C152.418 392.459 152.282 392.14 152.099 391.776C151.917 391.457 151.644 391.229 151.279 391.047C150.915 390.91 150.459 390.819 149.913 390.819H147.863V396.468H142.988V380.523ZM147.863 384.213V387.493H150.55C151.872 387.493 152.555 386.947 152.555 385.808C152.555 384.714 151.781 384.168 150.277 384.168H147.863V384.213Z" fill="white"/>
<path d="M174.194 385.352H169.593C169.593 384.851 169.411 384.487 169.046 384.213C168.682 383.94 168.181 383.803 167.543 383.803C166.45 383.803 165.903 384.122 165.903 384.806C165.903 384.988 165.994 385.17 166.176 385.307C166.358 385.489 166.586 385.626 166.951 385.717C167.27 385.808 167.589 385.944 167.862 385.99C168.135 386.081 168.454 386.127 168.773 386.218C169.092 386.263 169.32 386.309 169.365 386.354C170.003 386.537 170.55 386.673 171.005 386.81C171.461 386.947 171.962 387.174 172.463 387.448C173.01 387.721 173.42 388.04 173.739 388.359C174.057 388.678 174.331 389.133 174.559 389.634C174.786 390.136 174.877 390.728 174.877 391.366C174.877 393.051 174.24 394.372 173.01 395.329C171.734 396.331 170.048 396.787 167.907 396.787C165.675 396.787 163.899 396.286 162.623 395.238C161.347 394.19 160.664 392.823 160.664 391.001H165.584C165.675 392.368 166.495 393.051 168.09 393.051C168.682 393.051 169.183 392.914 169.547 392.687C169.912 392.459 170.094 392.14 170.094 391.73C170.094 391.457 170.003 391.274 169.775 391.092C169.593 390.91 169.183 390.728 168.636 390.546C168.09 390.363 167.406 390.136 166.677 389.908C165.903 389.68 165.447 389.543 165.265 389.452C164.627 389.224 164.081 388.997 163.671 388.814C163.261 388.587 162.851 388.313 162.441 387.994C162.031 387.676 161.757 387.266 161.575 386.764C161.393 386.263 161.302 385.717 161.302 385.033C161.302 383.53 161.894 382.346 163.079 381.389C164.263 380.478 165.812 380.022 167.771 380.022C169.821 380.022 171.415 380.478 172.509 381.389C173.602 382.437 174.194 383.712 174.194 385.352Z" fill="white"/>
<path d="M187.997 380.523H194.967C199.614 380.523 201.983 382.437 201.983 386.218C201.983 387.994 201.436 389.316 200.343 390.227C199.249 391.138 197.792 391.593 195.969 391.593H192.917V396.559H188.043V380.523H187.997ZM192.917 384.441V387.858H195.286C196.653 387.858 197.29 387.311 197.29 386.172C197.29 385.033 196.607 384.441 195.195 384.441H192.917Z" fill="white"/>
<path d="M219.384 380.523L214.464 396.559H208.952L204.169 380.523H209.089L209.909 383.393C210.866 386.764 211.458 389.498 211.731 391.639C212.004 389.634 212.642 386.856 213.553 383.393L214.328 380.523H219.384Z" fill="white"/>
</g>
<defs>
<clipPath id="clip0_79_316">
<rect width="256" height="397" fill="white"/>
</clipPath>
</defs>
</svg>
