<svg width="35" height="38" viewBox="0 0 35 38" fill="none" xmlns="http://www.w3.org/2000/svg">
<path d="M24.3843 3.23755C24.5026 3.25587 26.1585 4.23935 26.9179 4.82577C27.1171 4.97848 27.9575 5.7054 27.9948 5.74205C28.4991 6.16354 28.9473 6.64611 29.4141 7.10425C29.5324 7.22031 30.9641 8.91849 31.3999 9.52934C32.7569 11.4474 33.7405 13.5426 34.3505 15.7967C34.8485 17.6293 35.0726 19.4924 34.9793 21.3921C34.8548 23.9821 34.1825 26.4317 32.9499 28.7285C32.315 29.9196 31.5555 31.0314 30.6591 32.0454C30.435 32.302 29.7876 32.9739 29.6943 33.0533C29.5137 33.206 29.3394 33.3649 29.1714 33.5298C28.9037 33.7802 28.6173 34.0062 28.331 34.2323C27.9762 34.5194 27.6027 34.7881 27.2292 35.0508C26.451 35.6006 25.6107 36.0526 24.7329 36.4436C23.4444 37.0239 22.0998 37.4515 20.7054 37.7019C18.0162 38.1845 15.3581 38.0929 12.7312 37.3415C11.9779 37.1277 11.2496 36.8589 10.54 36.5474C9.39458 36.0404 8.32388 35.4173 7.31543 34.6782C6.58711 34.1467 5.90236 33.5664 5.26742 32.9311C4.32744 31.9965 3.49329 30.9703 2.77742 29.8585C1.71917 28.2215 0.959728 26.4622 0.492854 24.5808C0.0508802 22.8215 -0.0860698 21.0439 0.0508798 19.2419C0.237629 16.7741 0.885028 14.4345 1.98062 12.211C2.51597 11.1237 3.1447 10.0974 3.86057 9.12007C4.37102 8.4237 4.91259 7.75176 5.49774 7.11647C6.07666 6.51172 7.19716 5.44884 7.63291 5.04568C8.66003 4.17826 9.78675 3.24366 9.78675 3.24366C9.78675 3.24366 7.81966 5.26558 6.62446 7.03706C6.38169 7.40968 6.15136 7.7823 5.93349 8.17325C5.11802 9.66373 4.55154 11.2519 4.26519 12.9257C3.94149 14.7949 4.02242 16.658 4.52664 18.4967C4.87524 19.7611 5.39814 20.9523 6.12024 22.0579C6.67426 22.907 7.37769 23.6217 8.18071 24.2448C8.88413 24.7885 9.63735 25.2527 10.3719 25.7536C10.9446 26.1507 11.5235 26.5355 12.0464 26.9998C12.7872 27.6534 13.4346 28.3986 14.0073 29.1988C15.3021 31.0131 16.1923 33.0044 16.6654 35.173C16.7836 35.7289 16.8832 36.2969 16.9642 36.8589C16.9766 36.9322 16.9891 37.0178 16.9891 37.0178H18.0037C18.0037 37.0178 18.0162 36.9445 18.0286 36.8773C18.1469 36.0954 18.2839 35.3196 18.4831 34.556C18.6511 33.9146 18.8566 33.2915 19.1056 32.6746C19.7032 31.1719 20.5 29.7852 21.5084 28.5147C22.2678 27.5556 23.1767 26.7493 24.1976 26.0651C24.8574 25.6192 25.5297 25.1977 26.1771 24.7396C26.9428 24.1959 27.6525 23.5973 28.2563 22.8826C28.8663 22.1618 29.3394 21.3616 29.7316 20.5125C30.2794 19.3396 30.6467 18.1118 30.8085 16.8351C30.9766 15.4791 30.9455 14.1169 30.684 12.773C30.4475 11.539 30.0864 10.3479 29.5511 9.20559C29.19 8.43591 28.7792 7.69678 28.2936 6.9943C27.2976 5.54658 26.2083 4.44093 24.7267 3.47578C24.6582 3.43302 24.5026 3.31085 24.3843 3.23755Z" fill="#289225"/>
<path d="M9.74991 6.48115C9.71256 6.54223 9.70011 6.56056 9.68143 6.5911C8.82238 7.89222 8.26836 9.29719 8.05049 10.8365C7.81394 12.5225 8.03181 14.1413 8.75391 15.6928C9.18343 16.6152 9.81838 17.3788 10.6401 17.9957C11.1194 18.3561 11.6236 18.6799 12.1279 19.0098C12.4578 19.2297 12.7877 19.4435 13.1052 19.6756C13.9082 20.262 14.5431 20.9889 15.0162 21.8563C15.7695 23.243 16.3173 24.6968 16.5787 26.2484C16.6721 26.8104 16.7219 27.3723 16.7281 27.9343C16.753 29.2171 16.7406 30.4938 16.7841 31.7766C16.7966 32.1003 16.809 32.4302 16.8215 32.754C16.8215 32.8089 16.8464 33.3709 16.8339 33.4931C16.8215 33.3587 16.753 32.8456 16.7468 32.8028C16.6596 32.2103 16.56 31.6239 16.4169 31.0375C16.199 30.1578 15.8566 29.321 15.4458 28.5085C15.1034 27.8244 14.6988 27.1708 14.2319 26.5599C13.7339 25.9063 13.1363 25.3504 12.4951 24.8312C11.7295 24.2081 10.97 23.5789 10.279 22.8765C9.86196 22.4489 9.47601 21.9907 9.12118 21.5143C8.24346 20.3292 7.59606 19.0403 7.19144 17.6292C6.78059 16.1754 6.67476 14.7032 6.85529 13.2066C7.07316 11.3802 7.63341 9.6637 8.56093 8.06937C8.95933 7.27526 9.78726 6.39563 9.78726 6.39563L9.74991 6.48115Z" fill="#289225"/>
<path d="M25.2624 6.40784C26.7377 8.50306 27.1299 9.28496 27.5656 10.5494C28.1632 12.2842 28.3562 14.0679 28.1632 15.8883C28.0263 17.1894 27.6403 18.4233 27.049 19.6023C26.7813 20.1337 26.4949 20.6529 26.1463 21.1416C25.9783 21.386 25.7977 21.6181 25.6172 21.8563C25.4554 22.064 25.2811 22.2656 25.113 22.4672C24.9076 22.7054 24.6772 22.9253 24.4594 23.1574C24.2851 23.3407 24.0859 23.4934 23.9053 23.6706C23.5319 24.0371 23.1086 24.3486 22.7039 24.6785C22.5234 24.8251 22.3429 24.9717 22.1624 25.1183C21.876 25.3504 21.5959 25.5947 21.3407 25.8635C21.017 26.2056 20.7182 26.5782 20.4505 26.9631C19.579 28.2153 18.9565 29.5714 18.5643 31.0375C18.3838 31.7033 18.2904 32.3874 18.2219 33.0716C18.2095 33.206 18.1908 33.3465 18.1659 33.5114C18.1472 33.0594 18.1784 32.644 18.197 32.2225C18.2406 31.1108 18.2593 29.9929 18.2531 28.875C18.2531 28.4291 18.2531 27.9771 18.278 27.5312C18.334 26.4072 18.5581 25.3199 18.9191 24.257C19.1993 23.4384 19.5541 22.6504 19.9774 21.8869C20.5252 20.8912 21.2846 20.0971 22.2371 19.474C22.8222 19.0953 23.4074 18.7104 23.9738 18.3134C24.4718 17.9652 24.9325 17.5803 25.3309 17.1161C25.8226 16.5419 26.1899 15.9005 26.47 15.2041C26.9369 14.0313 27.1237 12.8096 27.0427 11.5451C26.9618 10.1707 26.5447 8.8879 25.9285 7.66009C25.8102 7.41575 25.4678 6.74991 25.2624 6.40784Z" fill="#289225"/>
<path d="M17.4747 18.3806C17.3876 17.5254 17.3876 16.6397 17.3316 15.76C17.2755 14.9232 17.095 14.1168 16.79 13.3288C16.4974 12.5714 16.2422 11.8017 16.0803 11.0015C15.9434 10.3356 15.8874 9.6637 15.8811 8.97955C15.8625 7.78228 15.9621 6.59111 16.1488 5.40605C16.2733 4.62416 16.4538 3.86059 16.6281 3.09092C16.8585 2.08912 17.481 0.0427598 17.5059 0C17.5308 0.0427598 18.6762 4.00109 18.95 6.0108C19.1119 7.17753 19.1617 8.35037 19.1181 9.52321C19.0745 10.635 18.8442 11.7101 18.4521 12.7546C18.2529 13.28 18.0412 13.7992 17.898 14.3428C17.7424 14.9354 17.6677 15.534 17.6241 16.1449C17.5743 16.8596 17.481 18.3623 17.4747 18.3806Z" fill="#289225"/>
<path d="M18.1285 24.8739C18.1223 24.7579 18.116 24.6296 18.1098 24.4952C18.0662 23.3223 18.0787 22.1495 18.0662 20.9767C18.06 20.4513 18.0538 19.8955 18.0911 19.3701C18.1721 18.3133 18.3526 17.3543 18.8319 16.4075C19.1431 15.7905 19.5166 15.2102 19.8777 14.6238C20.3383 13.8785 20.7928 13.1333 21.1849 12.3575C21.6082 11.5084 21.9568 10.6288 22.1498 9.70031C22.3054 8.93674 22.3303 8.16707 22.2307 7.39128C22.1311 6.64604 21.546 5.16777 21.5647 5.10669C21.6269 5.16167 22.6167 7.14694 22.8844 8.13652C23.2703 9.5476 23.3637 10.9892 23.2081 12.4369C23.0587 13.7686 22.6852 15.0392 22.1062 16.2548C21.6518 17.2077 21.0729 18.0873 20.4628 18.9486C20.0769 19.5045 19.6785 20.0543 19.3548 20.6468C19.0373 21.221 18.7821 21.8135 18.6078 22.4488C18.4148 23.1452 18.2717 23.7438 18.1907 24.4524C18.1721 24.6051 18.1596 24.6479 18.1285 24.8739Z" fill="#289225"/>
<path d="M16.8143 24.8739C16.7894 24.6051 16.7085 24.2264 16.6587 23.9454C16.5404 23.2552 16.4097 22.571 16.1794 21.9052C15.949 21.2332 15.6067 20.6163 15.2394 20.0115C14.8721 19.419 14.4675 18.8509 14.0753 18.2706C13.4653 17.3604 12.9237 16.4136 12.5191 15.3935C11.9215 13.8908 11.6663 12.3331 11.7098 10.7266C11.741 9.73697 11.8717 8.7596 12.158 7.80667C12.3821 7.05532 12.9299 5.82751 13.3968 5.09448C12.8365 6.28565 12.6125 7.6845 12.6809 8.72906C12.7307 9.49263 12.9175 10.2318 13.1851 10.9526C13.4466 11.6551 13.7765 12.327 14.1313 12.9867C14.5671 13.7808 15.0526 14.5444 15.5257 15.3141C15.9677 16.041 16.3599 16.7862 16.6027 17.5987C16.833 18.3683 16.9326 19.1502 16.9575 19.9504C16.9824 20.995 16.9264 22.0396 16.8766 23.0841C16.8517 23.5484 16.8517 24.0126 16.8268 24.4769C16.8143 24.5929 16.8205 24.7945 16.8143 24.8739Z" fill="#289225"/>
</svg>
