<svg width="210" height="69" viewBox="0 0 210 69" fill="none" xmlns="http://www.w3.org/2000/svg">
<path d="M12.7619 38.9507C10.1401 38.9507 7.66608 38.4857 5.33507 37.5508C3.00405 36.6184 1.22648 35.4405 0 34.015L0.919269 32.795C2.0754 34.0851 3.71696 35.1788 5.84395 36.0762C7.97094 36.9759 10.2597 37.4247 12.7104 37.4247C15.1938 37.4247 17.2364 37.0858 18.8357 36.4081C20.4351 35.7303 21.617 34.8236 22.3838 33.6854C23.1483 32.5497 23.5329 31.2877 23.5329 29.8948C23.5329 28.2659 23.1249 26.9619 22.3088 25.978C21.4927 24.9941 20.4116 24.2159 19.0679 23.6387C17.7242 23.0614 16.2608 22.587 14.6779 22.2154C13.095 21.8415 11.4956 21.4442 9.87984 21.0189C8.26408 20.5959 6.78199 20.0514 5.43825 19.39C4.09452 18.7286 3.02281 17.8125 2.22314 16.644C1.42346 15.4732 1.02245 13.9565 1.02245 12.0915C1.02245 10.4977 1.44691 9.0067 2.29818 7.61618C3.14945 6.22567 4.47677 5.09923 6.28014 4.23454C8.08351 3.36985 10.3981 2.9375 13.2216 2.9375C15.161 2.9375 17.0746 3.2343 18.9647 3.8279C20.8525 4.4215 22.4612 5.20907 23.7885 6.19295L23.024 7.5671C21.5959 6.51545 20.013 5.7349 18.2776 5.22777C16.5422 4.7183 14.8749 4.46356 13.2755 4.46356C10.8929 4.46356 8.91132 4.81178 7.32839 5.50587C5.74546 6.2023 4.57995 7.12541 3.83187 8.27755C3.08379 9.4297 2.70857 10.7034 2.70857 12.0915C2.70857 13.7532 3.11662 15.0759 3.9327 16.0598C4.74879 17.0437 5.82988 17.8242 7.17361 18.3991C8.51735 18.9764 9.99006 19.4508 11.5894 19.8223C13.1888 20.1963 14.7881 20.5936 16.3875 21.0189C17.9868 21.4442 19.4572 21.9934 20.8032 22.6712C22.147 23.3489 23.2187 24.258 24.0184 25.3938C24.818 26.5295 25.219 28.0135 25.219 29.8458C25.219 31.4396 24.7852 32.9329 23.9175 34.3211C23.0498 35.7116 21.6873 36.8311 19.8347 37.6794C17.9774 38.5254 15.6206 38.9507 12.7619 38.9507Z" fill="white"/>
<path d="M44.7656 38.7452V3.13867H57.1688C60.1283 3.13867 62.6727 3.61308 64.7997 4.56191C66.9267 5.51073 68.5518 6.85918 69.6751 8.60492C70.7984 10.353 71.3589 12.4633 71.3589 14.9382C71.3589 17.4131 70.7984 19.5351 69.6751 21.2972C68.5518 23.0616 66.9267 24.4171 64.7997 25.3659C62.6727 26.3147 60.1283 26.7891 57.1688 26.7891H45.7341L46.501 25.9759V38.7429H44.7656V38.7452ZM46.5033 25.9782L45.7365 25.214H57.272C61.2867 25.214 64.3588 24.3166 66.4858 22.5171C68.6128 20.7199 69.6751 18.1936 69.6751 14.9382C69.6751 11.6828 68.6105 9.16346 66.4858 7.385C64.3588 5.60421 61.2867 4.71381 57.272 4.71381H45.7365L46.5033 3.90054V25.9782Z" fill="white"/>
<path d="M134.758 38.7452V3.13867H147.161C150.12 3.13867 152.665 3.61308 154.792 4.56191C156.919 5.51073 158.544 6.85918 159.667 8.60492C160.791 10.353 161.351 12.4633 161.351 14.9382C161.351 17.4131 160.791 19.5351 159.667 21.2972C158.544 23.0616 156.919 24.4171 154.792 25.3659C152.665 26.3147 150.12 26.7891 147.161 26.7891H135.726L136.491 25.9759V38.7429H134.758V38.7452ZM136.493 25.9782L135.729 25.214H147.264C151.279 25.214 154.351 24.3166 156.478 22.5171C158.605 20.7199 159.667 18.1936 159.667 14.9382C159.667 11.6828 158.603 9.16346 156.478 7.385C154.351 5.60421 151.279 4.71381 147.264 4.71381H135.729L136.493 3.90054V25.9782ZM159.871 38.7452L150.58 25.824H152.571L161.912 38.7452H159.871Z" fill="white"/>
<path d="M181.615 38.7452V3.13857H183.351V38.7475H181.615V38.7452ZM183.097 29.5888L183.046 27.4013L206.731 3.13623H208.875L192.897 19.5677L191.877 20.5843L183.097 29.5888ZM207.854 38.7452L191.265 19.9229L192.44 18.7521L210 38.7428H207.854V38.7452Z" fill="white"/>
<path d="M50.8578 69C50.0371 69 49.2655 68.9159 48.5456 68.7476C47.8256 68.5794 47.2581 68.3924 46.8407 68.1868V65.4104H47.0307C47.3472 66.3732 47.8538 67.1421 48.555 67.717C49.2561 68.2919 50.0417 68.577 50.9141 68.577C51.7607 68.577 52.4384 68.3667 52.952 67.9437C53.4632 67.5207 53.7188 66.9809 53.7188 66.3195C53.7188 65.8427 53.5758 65.4455 53.292 65.1253C53.0083 64.8051 52.6448 64.5457 52.2016 64.3471C51.7583 64.1461 51.2237 63.9591 50.5905 63.7862C49.7322 63.5361 49.038 63.2931 48.5057 63.0547C47.9757 62.8163 47.5419 62.4868 47.2089 62.0638C46.8735 61.6408 46.707 61.101 46.707 60.4396C46.707 59.8343 46.8806 59.2898 47.2276 58.8084C47.5747 58.3269 48.0672 57.9507 48.705 57.6796C49.3429 57.4085 50.0793 57.2729 50.9118 57.2729C51.5684 57.2729 52.2227 57.3477 52.8723 57.4996C53.5218 57.6516 54.0448 57.8128 54.4364 57.9857V60.5354H54.2465C53.944 59.6684 53.4843 58.979 52.8723 58.4648C52.2602 57.9507 51.5168 57.6936 50.6468 57.6936C50.166 57.6936 49.7275 57.7777 49.3288 57.946C48.9302 58.1143 48.6112 58.3573 48.372 58.6775C48.1328 58.9977 48.0132 59.3739 48.0132 59.8063C48.0132 60.2386 48.1563 60.6008 48.4401 60.893C48.7238 61.1851 49.0896 61.4281 49.5399 61.6244C49.9878 61.8184 50.56 62.0194 51.2542 62.2251C52.1007 62.4751 52.7855 62.7182 53.3108 62.9565C53.8338 63.1949 54.2793 63.5361 54.6475 63.9801C55.0133 64.4242 55.1962 64.9967 55.1962 65.7002C55.1962 66.3382 55.0086 66.9108 54.6381 67.4132C54.2652 67.9157 53.7517 68.3059 53.095 68.5817C52.4361 68.8621 51.6927 69 50.8578 69Z" fill="white"/>
<path d="M70.1465 68.7405C70.3106 68.5465 70.449 68.3011 70.5639 68.009C70.6765 67.7169 70.7351 67.42 70.7351 67.1162V57.7963H69.5227C68.8661 57.7963 68.3126 57.8944 67.8647 58.0884C67.4168 58.2824 67.0439 58.5511 66.7461 58.8923C66.4483 59.2335 66.1692 59.6635 65.9019 60.1824H65.7119L66.1293 57.4551H77.1559L77.5546 60.1824H77.3646C77.1114 59.6635 76.8347 59.2335 76.5321 58.8923C76.2296 58.5511 75.8521 58.2824 75.4042 58.0884C74.9562 57.8944 74.4098 57.7963 73.7649 57.7963H72.5338V67.1162C72.5338 67.42 72.5901 67.7169 72.705 68.009C72.8175 68.3011 72.9582 68.5442 73.1224 68.7405V68.8222H70.1488V68.7405H70.1465Z" fill="white"/>
<path d="M94.0755 68.9999C92.4832 68.9999 91.2356 68.6774 90.3328 68.0347C89.4299 67.392 88.9773 66.4782 88.9773 65.2981V59.1611C88.9773 58.8573 88.921 58.5605 88.8061 58.2684C88.6935 57.9762 88.5528 57.7332 88.3887 57.5369V57.4551H91.3622V57.5369C91.1981 57.7308 91.0597 57.9762 90.9448 58.2684C90.8323 58.5605 90.7736 58.8596 90.7736 59.1611V65.2981C90.7736 66.3147 91.1113 67.1022 91.7867 67.6608C92.4621 68.2193 93.3556 68.4974 94.4671 68.4974C95.5787 68.4974 96.4722 68.2193 97.1476 67.6608C97.823 67.1046 98.1607 66.317 98.1607 65.2981V59.1611C98.1607 58.869 98.0903 58.5979 97.9519 58.3501C97.8136 58.1024 97.6049 57.8313 97.3258 57.5392V57.4574H99.4856V57.5392C99.2066 57.8313 99.0002 58.1024 98.8595 58.3501C98.7211 58.6002 98.6508 58.869 98.6508 59.1611V65.2981C98.6508 66.4666 98.2404 67.3757 97.4196 68.0253C96.6059 68.675 95.4896 68.9999 94.0755 68.9999Z" fill="white"/>
<path d="M111.542 68.7405C111.706 68.5465 111.845 68.3011 111.959 68.009C112.074 67.7169 112.131 67.42 112.131 67.1162V59.1611C112.131 58.8573 112.074 58.5605 111.959 58.2684C111.847 57.9762 111.706 57.7332 111.542 57.5369V57.4551H116.354C117.592 57.4551 118.723 57.6444 119.745 58.023C120.768 58.4016 121.593 59.0139 122.217 59.8575C122.843 60.7012 123.155 61.7949 123.155 63.1363C123.155 64.4778 122.843 65.5715 122.217 66.4151C121.591 67.2588 120.768 67.8711 119.745 68.2497C118.723 68.6283 117.592 68.8176 116.354 68.8176H111.542V68.7405ZM115.92 68.4647C116.931 68.4647 117.827 68.2871 118.61 67.9295C119.393 67.572 120.015 66.9947 120.477 66.2001C120.939 65.4056 121.169 64.3843 121.169 63.1387C121.169 61.893 120.939 60.8765 120.477 60.0865C120.015 59.2966 119.393 58.7194 118.61 58.3572C117.827 57.9949 116.931 57.8126 115.92 57.8126C115.315 57.8126 114.652 57.8944 113.932 58.0557V68.2193C114.649 68.3829 115.313 68.4647 115.92 68.4647Z" fill="white"/>
<path d="M135.131 68.7405C135.295 68.5465 135.433 68.3011 135.548 68.009C135.663 67.7169 135.719 67.42 135.719 67.1162V59.1611C135.719 58.8573 135.663 58.5605 135.548 58.2684C135.436 57.9762 135.295 57.7332 135.131 57.5369V57.4551H138.048V57.5369C137.884 57.7308 137.746 57.9762 137.631 58.2684C137.516 58.5605 137.46 58.8596 137.46 59.1611V67.1162C137.46 67.42 137.516 67.7169 137.631 68.009C137.743 68.3011 137.884 68.5442 138.048 68.7405V68.8222H135.131V68.7405Z" fill="white"/>
<path d="M156.143 69.0002C154.93 69.0002 153.863 68.7572 152.942 68.2687C152.02 67.7827 151.302 67.0932 150.791 66.2075C150.28 65.3218 150.024 64.2982 150.024 63.139C150.024 61.9799 150.28 60.9586 150.791 60.0706C151.302 59.1825 152.02 58.4954 152.942 58.0093C153.863 57.5232 154.93 57.2778 156.143 57.2778C157.355 57.2778 158.422 57.5209 159.344 58.0093C160.265 58.4954 160.983 59.1848 161.494 60.0706C162.005 60.9586 162.261 61.9822 162.261 63.139C162.261 64.2982 162.005 65.3195 161.494 66.2075C160.983 67.0956 160.265 67.7827 159.344 68.2687C158.422 68.7572 157.355 69.0002 156.143 69.0002ZM156.143 68.6427C156.964 68.6427 157.686 68.409 158.312 67.9439C158.938 67.4789 159.421 66.8292 159.761 65.9948C160.101 65.1605 160.272 64.2094 160.272 63.1367C160.272 62.064 160.101 61.1128 159.761 60.2785C159.421 59.4442 158.938 58.7969 158.312 58.3295C157.686 57.8644 156.964 57.6307 156.143 57.6307C155.322 57.6307 154.6 57.8644 153.974 58.3295C153.347 58.7945 152.864 59.4442 152.524 60.2785C152.184 61.1128 152.013 62.064 152.013 63.1367C152.013 64.2094 152.184 65.1605 152.524 65.9948C152.864 66.8292 153.347 67.4789 153.974 67.9439C154.597 68.4113 155.32 68.6427 156.143 68.6427Z" fill="white"/>
<path d="M115.779 39.5701H90.3726L91.0456 38.1118C95.2292 29.5771 100.682 24.2791 105.747 20.9886L104.868 19.1027C100.121 20.7245 96.111 23.0148 93.0577 25.1251C86.74 29.4906 83.0371 34.0501 83.002 34.0945L79.5781 38.0721L97.3304 0L105.529 17.5836C109.682 16.2819 114.349 15.5013 119.402 15.742L125.145 16.0155L119.477 16.969C119.44 16.976 119.379 16.9853 119.297 16.997C117.2 17.2962 112.548 18.287 107.335 21.4537L115.779 39.5701ZM92.3213 38.3315H113.83L106.275 22.1244C101.474 25.2747 96.3244 30.3039 92.3213 38.3315ZM97.3304 2.93995L84.341 30.7947C86.0857 29.0373 88.7849 26.5741 92.3143 24.1296C95.4239 21.9772 99.5067 19.6402 104.338 17.9739L97.3304 2.93995ZM106.056 18.7171L106.807 20.3272C109.246 18.8596 111.567 17.8477 113.575 17.1536C110.918 17.4387 108.406 17.9902 106.056 18.7171Z" fill="white"/>
<path d="M124.039 16.1045C125.191 11.7553 125.96 8.18636 125.757 8.133C125.555 8.07964 124.456 11.5621 123.304 15.9113C122.153 20.2604 121.383 23.8294 121.586 23.8827C121.789 23.9361 122.887 20.4537 124.039 16.1045Z" fill="white"/>
<path d="M131.574 18.0868C131.628 17.8846 128.133 16.7901 123.769 15.6422C119.405 14.4943 115.823 13.7277 115.77 13.9298C115.716 14.132 119.211 15.2265 123.575 16.3744C127.939 17.5223 131.52 18.2889 131.574 18.0868Z" fill="white"/>
</svg>
