<svg width="44" height="32" viewBox="0 0 44 32" fill="none" xmlns="http://www.w3.org/2000/svg">
<path d="M13.0371 16.3031C17.2403 16.3031 20.6421 12.8637 20.6421 8.61421C20.6421 4.36471 17.2403 0.925293 13.0371 0.925293C8.83402 0.925293 5.43214 4.36471 5.43214 8.61421C5.43214 12.8637 8.83402 16.3031 13.0371 16.3031ZM18.252 18.5H17.6884C16.2761 19.1865 14.7075 19.5984 13.0371 19.5984C11.3668 19.5984 9.80502 19.1865 8.38587 18.5H7.82229C3.50373 18.5 0 22.0423 0 26.4085V28.3857C0 30.2049 1.45989 31.6809 3.25929 31.6809H22.815C24.6144 31.6809 26.0743 30.2049 26.0743 28.3857V26.4085C26.0743 22.0423 22.5706 18.5 18.252 18.5ZM32.5929 16.3031C36.1917 16.3031 39.1114 13.3511 39.1114 9.71262C39.1114 6.07412 36.1917 3.12213 32.5929 3.12213C28.9941 3.12213 26.0743 6.07412 26.0743 9.71262C26.0743 13.3511 28.9941 16.3031 32.5929 16.3031ZM35.8521 18.5H35.5941C34.6503 18.8295 33.6521 19.0492 32.5929 19.0492C31.5336 19.0492 30.5354 18.8295 29.5916 18.5H29.3336C27.9484 18.5 26.6718 18.905 25.5514 19.5572C27.2082 21.3627 28.2471 23.7586 28.2471 26.4085V29.0447C28.2471 29.1958 28.2132 29.3399 28.2064 29.4841H40.1979C41.9973 29.4841 43.4571 28.0081 43.4571 26.1889C43.4571 21.9394 40.0553 18.5 35.8521 18.5Z" fill="#289225"/>
</svg>
