<svg width="187" height="61" viewBox="0 0 187 61" fill="none" xmlns="http://www.w3.org/2000/svg">
<path d="M11.3642 34.4349C9.02956 34.4349 6.82646 34.0238 4.75075 33.1974C2.67504 32.373 1.09215 31.3317 0 30.0714L0.818587 28.993C1.84809 30.1334 3.30986 31.1003 5.2039 31.8937C7.09793 32.6891 9.13606 33.0858 11.3183 33.0858C13.5297 33.0858 15.3486 32.7862 16.7728 32.1871C18.1969 31.5879 19.2494 30.7863 19.9323 29.7801C20.613 28.776 20.9555 27.6604 20.9555 26.429C20.9555 24.989 20.5922 23.8361 19.8654 22.9663C19.1387 22.0965 18.1761 21.4085 16.9795 20.8982C15.7829 20.3879 14.4799 19.9685 13.0703 19.64C11.6607 19.3094 10.2366 18.9582 8.79777 18.5822C7.35897 18.2082 6.0392 17.7268 4.84263 17.1421C3.64607 16.5574 2.69174 15.7476 1.97965 14.7145C1.26756 13.6794 0.910471 12.3386 0.910471 10.6899C0.910471 9.28083 1.28844 7.96269 2.04647 6.7334C2.80451 5.5041 3.98645 4.50826 5.59231 3.74383C7.19817 2.97939 9.25927 2.59717 11.7735 2.59717C13.5005 2.59717 15.2045 2.85956 16.8876 3.38433C18.5686 3.90911 20.0012 4.60537 21.1831 5.47517L20.5024 6.69C19.2306 5.76028 17.8211 5.07023 16.2758 4.6219C14.7305 4.1715 13.2457 3.9463 11.8215 3.9463C9.69988 3.9463 7.93532 4.25414 6.52576 4.86776C5.11619 5.48344 4.07834 6.29952 3.41219 7.31808C2.74604 8.33665 2.41192 9.46264 2.41192 10.6899C2.41192 12.1588 2.77527 13.3282 3.50198 14.198C4.22869 15.0678 5.19137 15.7579 6.38793 16.2661C7.5845 16.7764 8.89591 17.1958 10.3201 17.5244C11.7443 17.8549 13.1685 18.2062 14.5926 18.5822C16.0168 18.9582 17.3261 19.4437 18.5248 20.0429C19.7214 20.642 20.6757 21.4457 21.3878 22.4498C22.0999 23.4539 22.457 24.7658 22.457 26.3856C22.457 27.7947 22.0706 29.1149 21.298 30.3421C20.5253 31.5714 19.3121 32.561 17.6624 33.311C16.0085 34.0589 13.9098 34.4349 11.3642 34.4349Z" fill="#EB5A2E"/>
<path d="M39.8623 34.2532V2.7749H50.907C53.5424 2.7749 55.8081 3.19431 57.7022 4.03312C59.5962 4.87194 61.0433 6.06404 62.0436 7.60738C63.0439 9.15278 63.543 11.0184 63.543 13.2064C63.543 15.3943 63.0439 17.2703 62.0436 18.8281C61.0433 20.3879 59.5962 21.5862 57.7022 22.4251C55.8081 23.2639 53.5424 23.6833 50.907 23.6833H40.7247L41.4076 22.9643V34.2511H39.8623V34.2532ZM41.4097 22.9664L40.7268 22.2908H50.9989C54.574 22.2908 57.3096 21.4974 59.2036 19.9066C61.0976 18.3178 62.0436 16.0844 62.0436 13.2064C62.0436 10.3284 61.0956 8.10116 59.2036 6.5289C57.3096 4.95458 54.574 4.16742 50.9989 4.16742H40.7268L41.4097 3.44844V22.9664Z" fill="#EB5A2E"/>
<path d="M119.999 34.2532V2.7749H131.044C133.679 2.7749 135.945 3.19431 137.839 4.03312C139.733 4.87194 141.18 6.06404 142.18 7.60738C143.181 9.15278 143.68 11.0184 143.68 13.2064C143.68 15.3943 143.181 17.2703 142.18 18.8281C141.18 20.3879 139.733 21.5862 137.839 22.4251C135.945 23.2639 133.679 23.6833 131.044 23.6833H120.861L121.542 22.9643V34.2511H119.999V34.2532ZM121.544 22.9664L120.864 22.2908H131.136C134.711 22.2908 137.446 21.4974 139.34 19.9066C141.234 18.3178 142.18 16.0844 142.18 13.2064C142.18 10.3284 141.232 8.10116 139.34 6.5289C137.446 4.95458 134.711 4.16742 131.136 4.16742H120.864L121.544 3.44844V22.9664ZM142.362 34.2532L134.088 22.83H135.861L144.179 34.2532H142.362Z" fill="#EB5A2E"/>
<path d="M161.724 34.2533V2.77502H163.269V34.2554H161.724V34.2533ZM163.043 26.1585L162.997 24.2247L184.089 2.77295H185.997L171.77 17.2993L170.862 18.1981L163.043 26.1585ZM185.089 34.2533L170.317 17.6134L171.363 16.5783L187 34.2512H185.089V34.2533Z" fill="#EB5A2E"/>
<path d="M45.288 61.0002C44.5571 61.0002 43.8701 60.9259 43.229 60.7771C42.5879 60.6284 42.0825 60.4631 41.7108 60.2812V57.8268H41.88C42.1619 58.678 42.6129 59.3577 43.2373 59.866C43.8617 60.3742 44.5613 60.6263 45.3381 60.6263C46.092 60.6263 46.6955 60.4403 47.1528 60.0664C47.608 59.6924 47.8356 59.2152 47.8356 58.6305C47.8356 58.209 47.7083 57.8578 47.4556 57.5747C47.2029 57.2917 46.8792 57.0624 46.4845 56.8867C46.0899 56.7091 45.6138 56.5438 45.0499 56.3909C44.2856 56.1698 43.6675 55.9549 43.1935 55.7442C42.7215 55.5335 42.3352 55.2422 42.0387 54.8682C41.7401 54.4943 41.5918 54.017 41.5918 53.4323C41.5918 52.8972 41.7463 52.4158 42.0554 51.9902C42.3644 51.5646 42.803 51.232 43.371 50.9923C43.939 50.7526 44.5947 50.6328 45.336 50.6328C45.9207 50.6328 46.5033 50.6989 47.0818 50.8332C47.6602 50.9675 48.1259 51.1101 48.4746 51.263V53.517H48.3055C48.0361 52.7505 47.6268 52.141 47.0818 51.6865C46.5368 51.232 45.8748 51.0047 45.1 51.0047C44.672 51.0047 44.2815 51.0791 43.9265 51.2278C43.5714 51.3766 43.2875 51.5915 43.0745 51.8745C42.8614 52.1576 42.7549 52.4902 42.7549 52.8724C42.7549 53.2546 42.8823 53.5749 43.135 53.8331C43.3877 54.0914 43.7135 54.3062 44.1144 54.4798C44.5133 54.6513 45.0228 54.829 45.6409 55.0108C46.3948 55.2318 47.0045 55.4467 47.4723 55.6574C47.938 55.8682 48.3347 56.1698 48.6626 56.5624C48.9883 56.9549 49.1512 57.4611 49.1512 58.083C49.1512 58.647 48.9842 59.1532 48.6542 59.5974C48.3222 60.0416 47.8649 60.3866 47.2802 60.6304C46.6934 60.8783 46.0314 61.0002 45.288 61.0002Z" fill="#343434"/>
<path d="M62.4635 60.7709C62.6097 60.5994 62.7329 60.3825 62.8352 60.1242C62.9355 59.8659 62.9877 59.6036 62.9877 59.335V51.0956H61.908C61.3233 51.0956 60.8305 51.1824 60.4317 51.3538C60.0328 51.5253 59.7008 51.7629 59.4356 52.0646C59.1704 52.3662 58.9219 52.7464 58.6838 53.205H58.5146L58.8864 50.7939H68.7053L69.0603 53.205H68.8911C68.6656 52.7464 68.4192 52.3662 68.1498 52.0646C67.8804 51.7629 67.5442 51.5253 67.1454 51.3538C66.7465 51.1824 66.2599 51.0956 65.6857 51.0956H64.5894V59.335C64.5894 59.6036 64.6395 59.8659 64.7418 60.1242C64.842 60.3825 64.9673 60.5973 65.1135 60.7709V60.8432H62.4656V60.7709H62.4635Z" fill="#343434"/>
<path d="M83.772 61.0002C82.3541 61.0002 81.2431 60.7151 80.4392 60.1469C79.6352 59.5788 79.2322 58.7709 79.2322 57.7276V52.3022C79.2322 52.0336 79.182 51.7712 79.0797 51.5129C78.9795 51.2547 78.8542 51.0398 78.708 50.8663V50.7939H81.3559V50.8663C81.2097 51.0377 81.0865 51.2547 80.9842 51.5129C80.884 51.7712 80.8318 52.0356 80.8318 52.3022V57.7276C80.8318 58.6263 81.1325 59.3226 81.7339 59.8164C82.3353 60.3102 83.1309 60.556 84.1207 60.556C85.1106 60.556 85.9062 60.3102 86.5076 59.8164C87.109 59.3246 87.4097 58.6284 87.4097 57.7276V52.3022C87.4097 52.0439 87.3471 51.8042 87.2239 51.5852C87.1007 51.3662 86.9148 51.1266 86.6663 50.8683V50.796H88.5896V50.8683C88.3411 51.1266 88.1573 51.3662 88.032 51.5852C87.9088 51.8063 87.8462 52.0439 87.8462 52.3022V57.7276C87.8462 58.7606 87.4807 59.5643 86.7498 60.1387C86.0252 60.713 85.0312 61.0002 83.772 61.0002Z" fill="#343434"/>
<path d="M99.3252 60.7709C99.4714 60.5994 99.5946 60.3825 99.6969 60.1242C99.7992 59.8659 99.8493 59.6036 99.8493 59.335V52.3022C99.8493 52.0336 99.7992 51.7712 99.6969 51.5129C99.5967 51.2547 99.4714 51.0398 99.3252 50.8663V50.7939H103.61C104.713 50.7939 105.719 50.9613 106.63 51.296C107.54 51.6307 108.275 52.172 108.831 52.9178C109.388 53.6637 109.666 54.6306 109.666 55.8165C109.666 57.0024 109.388 57.9693 108.831 58.7152C108.273 59.461 107.54 60.0023 106.63 60.337C105.719 60.6717 104.713 60.8391 103.61 60.8391H99.3252V60.7709ZM103.224 60.5271C104.124 60.5271 104.922 60.3701 105.619 60.054C106.317 59.7379 106.87 59.2275 107.281 58.5251C107.693 57.8226 107.897 56.9198 107.897 55.8186C107.897 54.7174 107.693 53.8186 107.281 53.1203C106.87 52.422 106.317 51.9117 105.619 51.5914C104.922 51.2712 104.124 51.11 103.224 51.11C102.685 51.11 102.094 51.1824 101.453 51.3249V60.3102C102.092 60.4548 102.683 60.5271 103.224 60.5271Z" fill="#343434"/>
<path d="M120.331 60.7709C120.477 60.5994 120.6 60.3825 120.703 60.1242C120.805 59.8659 120.855 59.6036 120.855 59.335V52.3022C120.855 52.0336 120.805 51.7712 120.703 51.5129C120.603 51.2547 120.477 51.0398 120.331 50.8663V50.7939H122.929V50.8663C122.783 51.0377 122.659 51.2547 122.557 51.5129C122.455 51.7712 122.405 52.0356 122.405 52.3022V59.335C122.405 59.6036 122.455 59.8659 122.557 60.1242C122.657 60.3825 122.783 60.5973 122.929 60.7709V60.8432H120.331V60.7709Z" fill="#343434"/>
<path d="M139.042 61C137.962 61 137.012 60.7851 136.192 60.3533C135.371 59.9236 134.732 59.3141 134.277 58.5311C133.821 57.7481 133.594 56.8431 133.594 55.8184C133.594 54.7936 133.821 53.8907 134.277 53.1056C134.732 52.3205 135.371 51.7131 136.192 51.2834C137.012 50.8537 137.962 50.6367 139.042 50.6367C140.122 50.6367 141.072 50.8516 141.892 51.2834C142.713 51.7131 143.352 52.3226 143.807 53.1056C144.263 53.8907 144.49 54.7957 144.49 55.8184C144.49 56.8431 144.263 57.746 143.807 58.5311C143.352 59.3162 142.713 59.9236 141.892 60.3533C141.072 60.7851 140.122 61 139.042 61ZM139.042 60.6839C139.773 60.6839 140.416 60.4773 140.974 60.0662C141.531 59.655 141.961 59.0806 142.264 58.3431C142.567 57.6055 142.719 56.7646 142.719 55.8163C142.719 54.868 142.567 54.0271 142.264 53.2895C141.961 52.5519 141.531 51.9796 140.974 51.5664C140.416 51.1553 139.773 50.9487 139.042 50.9487C138.311 50.9487 137.668 51.1553 137.11 51.5664C136.553 51.9776 136.123 52.5519 135.82 53.2895C135.517 54.0271 135.365 54.868 135.365 55.8163C135.365 56.7646 135.517 57.6055 135.82 58.3431C136.123 59.0806 136.553 59.655 137.11 60.0662C137.666 60.4794 138.309 60.6839 139.042 60.6839Z" fill="#343434"/>
<path d="M103.098 34.9823H80.4745L81.0738 33.6931C84.7992 26.1479 89.6544 21.4641 94.165 18.5552L93.3819 16.8879C89.1553 18.3217 85.5844 20.3464 82.8655 22.2121C77.2398 26.0714 73.9425 30.1023 73.9111 30.1415L70.8623 33.658L86.6703 0L93.9708 15.5449C97.6691 14.3941 101.825 13.7041 106.325 13.9169L111.439 14.1586L106.392 15.0016C106.358 15.0078 106.304 15.016 106.231 15.0263C104.364 15.2908 100.221 16.1668 95.5788 18.9663L103.098 34.9823ZM82.2098 33.8873H101.363L94.6349 19.5593C90.3602 22.3443 85.7744 26.7904 82.2098 33.8873ZM86.6703 2.59908L75.1035 27.2243C76.6572 25.6706 79.0607 23.493 82.2035 21.3319C84.9726 19.4291 88.6082 17.3631 92.91 15.89L86.6703 2.59908ZM94.4407 16.547L95.1089 17.9705C97.2807 16.673 99.348 15.7784 101.136 15.1648C98.7696 15.4168 96.5331 15.9044 94.4407 16.547Z" fill="#EB5A2E"/>
<path d="M110.454 14.2378C111.48 10.3929 112.165 7.23771 111.984 7.19053C111.803 7.14336 110.825 10.222 109.8 14.067C108.774 17.9119 108.089 21.0671 108.269 21.1142C108.45 21.1614 109.428 18.0827 110.454 14.2378Z" fill="#EB5A2E"/>
<path d="M117.164 15.99C117.211 15.8113 114.099 14.8437 110.213 13.8289C106.327 12.8141 103.138 12.1363 103.09 12.3151C103.043 12.4938 106.154 13.4613 110.041 14.4762C113.927 15.491 117.116 16.1688 117.164 15.99Z" fill="#EB5A2E"/>
</svg>
