<svg width="192" height="213" viewBox="0 0 192 213" fill="none" xmlns="http://www.w3.org/2000/svg">
<path d="M133.766 18.0988C134.414 18.2012 143.498 23.6991 147.664 26.9774C148.757 27.8311 153.367 31.8947 153.572 32.0996C156.338 34.4559 158.796 37.1536 161.357 39.7147C162.006 40.3636 169.86 49.8568 172.251 53.2717C179.695 63.9943 185.091 75.7072 188.437 88.308C191.169 98.5526 192.398 108.968 191.886 119.588C191.203 134.067 187.515 147.761 180.754 160.6C177.271 167.259 173.105 173.474 168.187 179.143C166.958 180.577 163.406 184.334 162.894 184.777C161.904 185.631 160.948 186.519 160.026 187.441C158.557 188.841 156.987 190.105 155.416 191.368C153.469 192.973 151.42 194.476 149.371 195.944C145.103 199.017 140.493 201.544 135.678 203.73C128.609 206.974 121.233 209.364 113.584 210.764C98.8316 213.462 84.2502 212.95 69.8396 208.75C65.7076 207.555 61.7122 206.052 57.8193 204.31C51.536 201.476 45.6624 197.993 40.1304 193.861C36.135 190.89 32.3787 187.646 28.8955 184.095C23.7391 178.87 19.1632 173.133 15.2361 166.918C9.4309 157.766 5.26479 147.931 2.70366 137.414C0.279114 127.579 -0.472155 117.642 0.279112 107.568C1.30357 93.7718 4.85501 80.6929 10.8651 68.2629C13.8019 62.1844 17.2509 56.4475 21.178 50.9837C23.9782 47.0908 26.9491 43.3345 30.159 39.783C33.3348 36.4023 39.4816 30.4605 41.872 28.2067C47.5065 23.3576 53.6873 18.1329 53.6873 18.1329C53.6873 18.1329 42.8964 29.436 36.3399 39.3391C35.0081 41.4222 33.7446 43.5052 32.5494 45.6907C28.076 54.023 24.9685 62.9016 23.3976 72.2582C21.6219 82.7077 22.0658 93.123 24.8319 103.402C26.7442 110.47 29.6127 117.129 33.5739 123.31C36.6131 128.057 40.4719 132.052 44.877 135.535C48.7358 138.575 52.8678 141.17 56.8973 143.97C60.039 146.19 63.2148 148.341 66.0832 150.936C70.1469 154.59 73.6983 158.756 76.84 163.23C83.9429 173.372 88.8261 184.504 91.4214 196.627C92.0702 199.735 92.6166 202.91 93.0605 206.052C93.1288 206.462 93.1971 206.94 93.1971 206.94H98.7633C98.7633 206.94 98.8316 206.53 98.8999 206.154C99.5488 201.783 100.3 197.447 101.393 193.178C102.315 189.592 103.442 186.109 104.808 182.66C108.086 174.26 112.457 166.508 117.989 159.405C122.155 154.044 127.141 149.536 132.741 145.712C136.361 143.219 140.049 140.863 143.6 138.301C147.801 135.262 151.693 131.916 155.006 127.92C158.352 123.891 160.948 119.417 163.099 114.671C166.104 108.114 168.119 101.25 169.007 94.1133C169.929 86.5323 169.758 78.9172 168.324 71.4045C167.026 64.5065 165.046 57.8476 162.109 51.4618C160.128 47.1591 157.874 43.0271 155.211 39.1001C149.747 31.0069 143.771 24.826 135.644 19.4305C135.268 19.1915 134.414 18.5085 133.766 18.0988Z" fill="#289225"/>
<path d="M53.4833 36.2314C53.2784 36.5729 53.2101 36.6754 53.1076 36.8461C48.3952 44.1197 45.356 51.9739 44.1608 60.5793C42.8631 70.0043 44.0583 79.0536 48.0195 87.7273C50.3758 92.8838 53.8589 97.1523 58.3665 100.601C60.996 102.616 63.762 104.426 66.528 106.27C68.3379 107.499 70.1477 108.695 71.8893 109.992C76.2945 113.27 79.7776 117.334 82.3729 122.183C86.5049 129.935 89.5099 138.062 90.9442 146.736C91.4564 149.878 91.7296 153.019 91.7637 156.161C91.9003 163.332 91.832 170.469 92.0711 177.64C92.1394 179.45 92.2077 181.294 92.276 183.104C92.276 183.411 92.4126 186.553 92.3443 187.236C92.276 186.485 91.9003 183.616 91.8662 183.377C91.3881 180.065 90.8417 176.787 90.0563 173.508C88.8611 168.591 86.9829 163.913 84.7291 159.371C82.851 155.546 80.6313 151.892 78.0702 148.477C75.3383 144.824 72.0601 141.716 68.5428 138.813C64.3425 135.33 60.1764 131.813 56.3859 127.886C54.098 125.496 51.9808 122.934 50.0343 120.271C45.2194 113.646 41.6679 106.441 39.4483 98.5524C37.1945 90.4251 36.6139 82.1953 37.6042 73.8289C38.7994 63.6185 41.8728 54.0228 46.9609 45.11C49.1464 40.6707 53.6882 35.7534 53.6882 35.7534L53.4833 36.2314Z" fill="#289225"/>
<path d="M138.58 35.8217C146.673 47.5346 148.825 51.9056 151.215 58.9743C154.493 68.6725 155.552 78.6439 154.493 88.8201C153.742 96.0937 151.625 102.992 148.381 109.582C146.912 112.553 145.341 115.456 143.429 118.188C142.507 119.554 141.517 120.851 140.526 122.183C139.639 123.344 138.682 124.471 137.76 125.598C136.634 126.93 135.37 128.159 134.175 129.457C133.219 130.481 132.126 131.335 131.136 132.325C129.087 134.374 126.765 136.116 124.545 137.96C123.555 138.779 122.564 139.599 121.574 140.418C120.003 141.716 118.467 143.082 117.066 144.585C115.291 146.497 113.652 148.58 112.183 150.731C107.402 157.732 103.988 165.313 101.836 173.508C100.846 177.231 100.334 181.055 99.9581 184.88C99.8898 185.631 99.7873 186.416 99.6507 187.338C99.5483 184.811 99.719 182.489 99.8215 180.133C100.061 173.918 100.163 167.669 100.129 161.42C100.129 158.927 100.129 156.4 100.265 153.907C100.573 147.624 101.802 141.545 103.783 135.604C105.319 131.028 107.266 126.622 109.588 122.354C112.593 116.788 116.759 112.348 121.984 108.865C125.194 106.748 128.404 104.597 131.511 102.377C134.243 100.431 136.77 98.2792 138.956 95.6839C141.653 92.474 143.668 88.8884 145.205 84.9955C147.766 78.439 148.79 71.6093 148.346 64.5405C147.903 56.8571 145.615 49.6859 142.234 42.8221C141.585 41.4562 139.707 37.734 138.58 35.8217Z" fill="#289225"/>
<path d="M95.8612 102.753C95.3831 97.972 95.3831 93.0205 95.0757 88.1031C94.7684 83.4247 93.7781 78.9171 92.1048 74.512C90.4998 70.2776 89.0997 65.9749 88.2119 61.5014C87.4606 57.7792 87.1533 54.0229 87.1192 50.1983C87.0167 43.5052 87.5631 36.8462 88.5875 30.2214C89.2705 25.8504 90.2608 21.5818 91.217 17.2791C92.4805 11.6788 95.8953 0.239039 96.0319 0C96.1685 0.239039 102.452 22.3673 103.954 33.6021C104.842 40.1245 105.115 46.681 104.876 53.2375C104.637 59.4525 103.374 65.4626 101.222 71.302C100.13 74.2388 98.9687 77.1414 98.1832 80.1806C97.3295 83.493 96.9198 86.8396 96.6807 90.2544C96.4075 94.2498 95.8953 102.65 95.8612 102.753Z" fill="#289225"/>
<path d="M99.4464 139.053C99.4122 138.404 99.3781 137.687 99.344 136.935C99.1049 130.379 99.1732 123.822 99.1049 117.266C99.0708 114.329 99.0366 111.222 99.2415 108.285C99.6854 102.377 100.676 97.0159 103.305 91.7229C105.013 88.2739 107.061 85.0298 109.042 81.7515C111.569 77.5854 114.062 73.4193 116.213 69.0824C118.535 64.3358 120.448 59.4184 121.506 54.2278C122.36 49.9593 122.497 45.6566 121.95 41.3197C121.404 37.1536 118.194 28.8896 118.296 28.5482C118.638 28.8555 124.067 39.9538 125.536 45.4858C127.653 53.3741 128.165 61.4331 127.312 69.5263C126.492 76.9707 124.443 84.0736 121.267 90.8691C118.774 96.1963 115.599 101.114 112.252 105.929C110.135 109.036 107.949 112.109 106.174 115.422C104.432 118.632 103.032 121.944 102.076 125.496C101.017 129.389 100.232 132.735 99.7879 136.696C99.6854 137.55 99.6171 137.789 99.4464 139.053Z" fill="#289225"/>
<path d="M92.2397 139.053C92.1031 137.55 91.6592 135.433 91.386 133.862C90.7372 130.003 90.0201 126.179 88.7566 122.456C87.4931 118.7 85.6149 115.251 83.6002 111.87C81.5854 108.558 79.3657 105.382 77.2144 102.138C73.8678 97.0499 70.8969 91.7569 68.6773 86.0541C65.399 77.6535 63.9989 68.9457 64.238 59.9646C64.4087 54.4326 65.1258 48.9688 66.6967 43.6417C67.926 39.4414 70.9311 32.5776 73.4922 28.4797C70.4188 35.1387 69.1895 42.9587 69.5651 48.7981C69.8383 53.0666 70.8628 57.1986 72.3312 61.2281C73.7654 65.1552 75.5753 68.9115 77.5217 72.5996C79.9121 77.0389 82.5757 81.3074 85.171 85.6101C87.5955 89.6738 89.7469 93.8399 91.0787 98.3817C92.3422 102.684 92.8885 107.055 93.0251 111.529C93.1617 117.368 92.8544 123.208 92.5812 129.047C92.4446 131.642 92.4446 134.238 92.308 136.833C92.2397 137.482 92.2739 138.609 92.2397 139.053Z" fill="#289225"/>
</svg>
