<svg width="125" height="127" viewBox="0 0 125 127" fill="none" xmlns="http://www.w3.org/2000/svg">
<g clip-path="url(#clip0_1_2)">
<path d="M86.7989 25.7655C78.1339 24.4859 68.2663 23.8031 57.9899 23.8031C48.5851 23.8031 39.5242 24.3741 31.4149 25.4508C31.4168 25.3355 31.4186 25.2203 31.4241 25.1051C31.6391 18.4161 34.673 12.0703 39.8773 7.42397C45.0816 2.77763 52.0434 0.199374 59.2749 0.240255C66.5063 0.281137 73.4336 2.93792 78.5761 7.64275C83.7187 12.3476 86.6685 18.7272 86.7952 25.4181C86.7971 25.535 86.7989 25.6503 86.7989 25.7655Z" fill="#FF5722"/>
<g opacity="0.1">
<path d="M62.7387 0.230701C58.8926 -0.250034 54.9803 0.0224326 51.2552 1.03044C47.5302 2.03845 44.0756 3.75951 41.1153 6.08208C38.1551 8.40464 35.7552 11.2769 34.0713 14.5126C32.3874 17.7484 31.457 21.2755 31.3404 24.8653C31.3347 24.9805 31.3329 25.0958 31.3311 25.211C33.7403 24.8911 36.2351 24.617 38.7964 24.3881C39.1096 18.4077 41.6756 12.7174 46.049 8.30476C50.4223 3.8921 56.3271 1.03552 62.7387 0.230701Z" fill="white"/>
</g>
<path d="M98.9136 27.7985C94.9249 26.7979 90.8792 26.0032 86.7952 25.4181C80.1014 24.4582 73.3531 23.8581 66.5843 23.6207C63.7646 23.5141 60.8931 23.4591 57.9898 23.4591C55.6889 23.4591 53.4064 23.4935 51.1556 23.5623C44.5529 23.7428 37.9659 24.2578 31.4241 25.1051C26.5816 25.7221 21.786 26.6217 17.0661 27.7985C6.06102 30.6141 0 34.3876 0 38.4226C0 42.4576 6.06103 46.2312 17.0661 49.0468C24.8055 51.0281 34.3478 52.3783 44.7452 52.9975C49.0367 53.2555 53.4734 53.3862 57.9898 53.3862C62.5212 53.3862 66.9727 53.2538 71.2774 52.9958C80.7397 52.4299 89.4939 51.2586 96.8207 49.5559C96.8598 49.5455 96.897 49.5369 96.936 49.5283C97.4304 49.4148 97.9173 49.2961 98.3988 49.1775C98.5716 49.1328 98.7425 49.0898 98.9136 49.0468C98.9232 49.0431 98.9331 49.0402 98.9433 49.0382C99.1069 48.9969 99.2686 48.9539 99.4303 48.9126C99.7537 48.8266 100.073 48.7423 100.387 48.6546C100.402 48.6512 100.415 48.6477 100.428 48.6443C100.702 48.5686 100.969 48.4929 101.235 48.4173C101.452 48.3536 101.668 48.2917 101.882 48.2281C102.038 48.1816 102.192 48.1352 102.345 48.0887C102.456 48.0543 102.566 48.0217 102.674 47.9873C102.82 47.9426 102.967 47.8961 103.112 47.8497C103.174 47.8308 103.235 47.8118 103.294 47.7912C103.434 47.7482 103.569 47.7035 103.705 47.6588C103.852 47.6106 103.999 47.5607 104.144 47.5126C104.265 47.473 104.385 47.4317 104.504 47.3904C104.605 47.3543 104.703 47.3199 104.804 47.2855C105.077 47.1909 105.345 47.0929 105.608 46.9966C105.74 46.9467 105.872 46.8985 106.002 46.8487C106.131 46.8005 106.261 46.7506 106.387 46.7007C106.595 46.6199 106.8 46.5391 107.001 46.4582C107.097 46.417 107.196 46.3774 107.291 46.3396C107.363 46.3086 107.434 46.2794 107.506 46.2484C107.558 46.2278 107.61 46.2054 107.66 46.1831C107.848 46.1039 108.034 46.0231 108.216 45.9423C108.915 45.6327 109.567 45.3162 110.173 44.9928C113.974 42.9788 115.98 40.7446 115.98 38.4226C115.98 34.3876 109.919 30.6141 98.9136 27.7985ZM98.8132 48.7165C91.0645 50.6996 81.4962 52.0498 71.071 52.6638C66.8314 52.9132 62.4488 53.0422 57.9899 53.0422C53.5458 53.0422 49.178 52.9149 44.9514 52.6655C34.5095 52.0532 24.9263 50.7031 17.1665 48.7165C6.33611 45.944 0.37173 42.2891 0.37173 38.4226C0.372335 38.081 0.418545 37.7407 0.509313 37.4096C1.45715 33.9215 7.28775 30.6571 17.1665 28.1287C21.8507 26.9611 26.6095 26.0667 31.4149 25.4508C37.996 24.5987 44.6228 24.082 51.2652 23.9028C53.4808 23.8357 55.7224 23.8025 57.9899 23.8031C60.8541 23.8031 63.6866 23.8564 66.4708 23.9596C73.2791 24.1948 80.0667 24.7978 86.7989 25.7655C90.8476 26.348 94.8585 27.137 98.8132 28.1287C108.69 30.6571 114.519 33.9198 115.469 37.4061C115.561 37.7382 115.608 38.0797 115.608 38.4226C115.608 42.2891 109.644 45.944 98.8132 48.7165Z" fill="#3F3D56"/>
<path d="M115.874 38.5791C115.874 40.877 113.827 43.051 110.173 44.9928C109.566 45.3162 108.911 45.6326 108.216 45.9422C108.034 46.0231 107.848 46.1039 107.66 46.183C107.61 46.2054 107.558 46.2277 107.506 46.2484C107.434 46.2793 107.363 46.3086 107.291 46.3395C107.196 46.3774 107.097 46.4169 107.001 46.4582C106.8 46.539 106.595 46.6199 106.387 46.7007C106.261 46.7506 106.131 46.8005 106.002 46.8486C105.872 46.8985 105.74 46.9467 105.608 46.9966C105.345 47.0929 105.077 47.1909 104.804 47.2855C104.703 47.3199 104.605 47.3543 104.504 47.3904C104.385 47.4317 104.265 47.473 104.144 47.5125C103.999 47.5607 103.852 47.6106 103.705 47.6587C103.569 47.7035 103.434 47.7482 103.294 47.7912C103.235 47.8118 103.174 47.8307 103.112 47.8496C102.967 47.8961 102.82 47.9425 102.674 47.9872C102.566 48.0216 102.456 48.0543 102.345 48.0887C102.192 48.1352 102.038 48.1816 101.882 48.228C101.668 48.2917 101.452 48.3536 101.235 48.4172C100.969 48.4929 100.702 48.5686 100.428 48.6443C100.415 48.6477 100.402 48.6511 100.387 48.6546C100.073 48.7423 99.7537 48.8266 99.4303 48.9126C99.2686 48.9539 99.1069 48.9969 98.9433 49.0381C98.9331 49.0402 98.9232 49.0431 98.9136 49.0467C98.7425 49.0897 98.5716 49.1327 98.3988 49.1774C97.9192 49.2944 97.4304 49.4131 96.936 49.5283C96.8969 49.5369 96.8597 49.5455 96.8207 49.5558C89.6928 51.2035 80.9479 52.4041 71.2699 52.9837C67.0303 53.2365 62.6104 53.3707 58.0698 53.3707C53.4882 53.3707 49.0311 53.2348 44.7581 52.9768C19.25 51.4375 0.265808 45.5759 0.265808 38.5791C0.267816 38.1534 0.337944 37.7303 0.473908 37.3236C0.485071 37.3528 0.496232 37.3803 0.509302 37.4096C3.16151 43.8559 21.9841 49.0657 46.4068 50.3367C50.1482 50.5328 54.0235 50.6342 57.9898 50.6342C61.973 50.6342 65.8631 50.531 69.6194 50.335C94.0216 49.0588 112.826 43.8473 115.469 37.4061C115.513 37.3029 115.552 37.1997 115.586 37.0965C115.774 37.5715 115.872 38.0732 115.874 38.5791Z" fill="#3F3D56"/>
<path d="M17.0381 36.7278C13.9448 36.7278 10.6572 36.112 10.6572 34.9706C10.6572 33.8292 13.9448 33.2133 17.0381 33.2133C20.1314 33.2133 23.419 33.8292 23.419 34.9706C23.419 36.112 20.1314 36.7278 17.0381 36.7278ZM17.0381 33.5573C13.4968 33.5573 11.029 34.3021 11.029 34.9706C11.029 35.639 13.4968 36.3838 17.0381 36.3838C20.5794 36.3838 23.0472 35.639 23.0472 34.9706C23.0472 34.3021 20.5794 33.5573 17.0381 33.5573Z" fill="#3F3D56"/>
<path d="M30.2345 44.8115C27.1412 44.8115 23.8536 44.1957 23.8536 43.0543C23.8536 41.9129 27.1412 41.2971 30.2345 41.2971C33.3278 41.2971 36.6154 41.9129 36.6154 43.0543C36.6154 44.1957 33.3278 44.8115 30.2345 44.8115ZM30.2345 41.641C26.6932 41.641 24.2254 42.3859 24.2254 43.0543C24.2254 43.7227 26.6932 44.4675 30.2345 44.4675C33.7757 44.4675 36.2436 43.7227 36.2436 43.0543C36.2436 42.3859 33.7758 41.641 30.2345 41.641Z" fill="#3F3D56"/>
<path d="M98.8187 36.7278C95.7254 36.7278 92.4378 36.112 92.4378 34.9706C92.4378 33.8292 95.7254 33.2133 98.8187 33.2133C101.912 33.2133 105.2 33.8292 105.2 34.9706C105.2 36.112 101.912 36.7278 98.8187 36.7278ZM98.8187 33.5573C95.2774 33.5573 92.8095 34.3021 92.8095 34.9706C92.8095 35.639 95.2774 36.3838 98.8187 36.3838C102.36 36.3838 104.828 35.639 104.828 34.9706C104.828 34.3021 102.36 33.5573 98.8187 33.5573Z" fill="#3F3D56"/>
<path d="M85.6222 44.8115C82.529 44.8115 79.2414 44.1957 79.2414 43.0543C79.2414 41.9129 82.529 41.2971 85.6222 41.2971C88.7156 41.2971 92.0031 41.9129 92.0031 43.0543C92.0031 44.1957 88.7156 44.8115 85.6222 44.8115ZM85.6222 41.641C82.081 41.641 79.6131 42.3859 79.6131 43.0543C79.6131 43.7227 82.081 44.4675 85.6222 44.4675C89.1635 44.4675 91.6314 43.7227 91.6314 43.0543C91.6314 42.3859 89.1635 41.641 85.6222 41.641Z" fill="#3F3D56"/>
<path d="M57.9284 48.5954C54.8351 48.5954 51.5475 47.9796 51.5475 46.8382C51.5475 45.6968 54.8351 45.081 57.9284 45.081C61.0217 45.081 64.3093 45.6968 64.3093 46.8382C64.3093 47.9796 61.0217 48.5954 57.9284 48.5954ZM57.9284 45.425C54.3871 45.425 51.9192 46.1698 51.9192 46.8382C51.9192 47.5066 54.3871 48.2514 57.9284 48.2514C61.4696 48.2514 63.9375 47.5066 63.9375 46.8382C63.9375 46.1698 61.4696 45.425 57.9284 45.425Z" fill="#3F3D56"/>
<path d="M62.6323 84.7448C66.9449 84.7448 70.441 81.5096 70.441 77.5188C70.441 73.5281 66.9449 70.2929 62.6323 70.2929C58.3198 70.2929 54.8237 73.5281 54.8237 77.5188C54.8237 81.5096 58.3198 84.7448 62.6323 84.7448Z" fill="#2F2E41"/>
<path d="M59.663 82.2663L55.8626 84.0275L56.9249 85.9903L60.7252 84.2292L59.663 82.2663Z" fill="#2F2E41"/>
<path d="M57.4259 85.7911C57.6513 85.4748 57.0951 84.7675 56.1836 84.2114C55.2721 83.6553 54.3505 83.4608 54.1251 83.7771C53.8997 84.0934 54.4559 84.8007 55.3674 85.3568C56.2789 85.913 57.2005 86.1074 57.4259 85.7911Z" fill="#2F2E41"/>
<path d="M65.6017 82.2663L64.5395 84.2292L68.3399 85.9903L69.4021 84.0274L65.6017 82.2663Z" fill="#2F2E41"/>
<path d="M69.8973 85.3568C70.8088 84.8007 71.365 84.0934 71.1396 83.7771C70.9142 83.4608 69.9926 83.6552 69.0811 84.2114C68.1696 84.7675 67.6134 85.4748 67.8388 85.7911C68.0642 86.1074 68.9858 85.9129 69.8973 85.3568Z" fill="#2F2E41"/>
<path d="M62.0857 78.221C63.5596 78.221 64.7545 77.1153 64.7545 75.7514C64.7545 74.3874 63.5596 73.2817 62.0857 73.2817C60.6118 73.2817 59.4169 74.3874 59.4169 75.7514C59.4169 77.1153 60.6118 78.221 62.0857 78.221Z" fill="white"/>
<path d="M62.7349 75.2779C63.0808 74.9577 63.0788 74.4369 62.7304 74.1144C62.382 73.792 61.8191 73.7902 61.4732 74.1103C61.1272 74.4305 61.1292 74.9514 61.4776 75.2738C61.826 75.5962 62.3889 75.598 62.7349 75.2779Z" fill="#3F3D56"/>
<path d="M68.7923 69.6578C68.9097 66.9827 66.4182 64.7168 63.2273 64.5969C60.0365 64.4769 57.3546 66.5483 57.2371 69.2235C57.1197 71.8986 59.3378 72.5064 62.5286 72.6264C65.7195 72.7463 68.6748 72.333 68.7923 69.6578Z" fill="#FF5722"/>
<path d="M73.2934 81.3026C73.807 80.8945 73.0847 79.3364 71.6802 77.8224C70.2756 76.3084 68.7207 75.4118 68.207 75.8199C67.6934 76.2279 68.4157 77.786 69.8202 79.3C71.2247 80.814 72.7797 81.7106 73.2934 81.3026Z" fill="#2F2E41"/>
<path d="M55.4664 79.3C56.8709 77.786 57.5931 76.2279 57.0795 75.8199C56.5659 75.4118 55.0109 76.3084 53.6064 77.8224C52.2018 79.3364 51.4796 80.8946 51.9932 81.3026C52.5068 81.7106 54.0618 80.814 55.4664 79.3Z" fill="#2F2E41"/>
<path d="M64.777 80.3665C64.8615 80.7961 64.7581 81.2391 64.4896 81.5982C64.2211 81.9573 63.8095 82.2029 63.3452 82.2811C62.881 82.3593 62.4022 82.2637 62.0142 82.0152C61.6261 81.7667 61.3607 81.3858 61.2762 80.9562L61.2755 80.953C61.1005 80.0583 61.8481 79.7417 62.815 79.5797C63.7819 79.4177 64.602 79.4717 64.777 80.3665Z" fill="white"/>
<path d="M49.4401 85.2052C49.3415 85.2052 49.2469 85.169 49.1772 85.1045C49.1075 85.04 49.0683 84.9525 49.0683 84.8613V64.5659C49.0683 64.4746 49.1075 64.3871 49.1772 64.3226C49.2469 64.2581 49.3415 64.2219 49.4401 64.2219C49.5386 64.2219 49.6332 64.2581 49.7029 64.3226C49.7726 64.3871 49.8118 64.4746 49.8118 64.5659V84.8613C49.8118 84.9525 49.7726 85.04 49.7029 85.1045C49.6332 85.169 49.5386 85.2052 49.4401 85.2052Z" fill="#CCCCCC"/>
<path d="M43.8641 103.437C43.7655 103.437 43.671 103.4 43.6013 103.336C43.5316 103.271 43.4924 103.184 43.4924 103.093V88.3011C43.4924 88.2099 43.5316 88.1224 43.6013 88.0579C43.671 87.9934 43.7655 87.9572 43.8641 87.9572C43.9627 87.9572 44.0573 87.9934 44.127 88.0579C44.1967 88.1224 44.2359 88.2099 44.2359 88.3011V103.093C44.2359 103.184 44.1967 103.271 44.127 103.336C44.0573 103.4 43.9627 103.437 43.8641 103.437Z" fill="#CCCCCC"/>
<path d="M58.1757 91.2251C58.0771 91.2251 57.9826 91.1888 57.9129 91.1243C57.8432 91.0598 57.804 90.9723 57.804 90.8811V70.5857C57.804 70.4945 57.8431 70.407 57.9129 70.3425C57.9826 70.2779 58.0771 70.2417 58.1757 70.2417C58.2743 70.2417 58.3688 70.2779 58.4386 70.3425C58.5083 70.407 58.5474 70.4945 58.5474 70.5857V90.8811C58.5474 90.9723 58.5083 91.0598 58.4386 91.1243C58.3689 91.1888 58.2743 91.2251 58.1757 91.2251Z" fill="#CCCCCC"/>
<path d="M52.7856 105.845C52.6871 105.845 52.5925 105.808 52.5228 105.744C52.4531 105.679 52.4139 105.592 52.4139 105.501V97.2449C52.4139 97.1536 52.4531 97.0661 52.5228 97.0016C52.5925 96.9371 52.6871 96.9009 52.7856 96.9009C52.8842 96.9009 52.9788 96.9371 53.0485 97.0016C53.1182 97.0661 53.1574 97.1536 53.1574 97.2449V105.501C53.1574 105.592 53.1182 105.679 53.0485 105.744C52.9788 105.808 52.8842 105.845 52.7856 105.845Z" fill="#CCCCCC"/>
<path d="M60.4061 63.5339C60.3075 63.5339 60.213 63.4976 60.1432 63.4331C60.0735 63.3686 60.0344 63.2811 60.0344 63.1899V54.9341C60.0344 54.8429 60.0735 54.7554 60.1432 54.6909C60.2129 54.6264 60.3075 54.5901 60.4061 54.5901C60.5047 54.5901 60.5992 54.6264 60.6689 54.6909C60.7387 54.7554 60.7778 54.8429 60.7778 54.9341V63.1899C60.7778 63.2811 60.7387 63.3686 60.6689 63.4331C60.5992 63.4976 60.5047 63.5339 60.4061 63.5339Z" fill="#CCCCCC"/>
<path d="M41.8196 67.1458C41.721 67.1458 41.6265 67.1095 41.5568 67.045C41.487 66.9805 41.4479 66.893 41.4479 66.8018V58.546C41.4479 58.4548 41.487 58.3673 41.5568 58.3028C41.6265 58.2383 41.721 58.202 41.8196 58.202C41.9182 58.202 42.0127 58.2383 42.0825 58.3028C42.1522 58.3673 42.1913 58.4548 42.1913 58.546V66.8018C42.1913 66.893 42.1522 66.9805 42.0825 67.045C42.0127 67.1095 41.9182 67.1458 41.8196 67.1458Z" fill="#CCCCCC"/>
<path d="M74.1601 68.0057C74.0615 68.0057 73.967 67.9695 73.8973 67.905C73.8276 67.8405 73.7884 67.753 73.7884 67.6618V59.406C73.7884 59.3148 73.8275 59.2273 73.8973 59.1628C73.967 59.0983 74.0615 59.062 74.1601 59.062C74.2587 59.062 74.3533 59.0983 74.423 59.1628C74.4927 59.2273 74.5319 59.3148 74.5319 59.406V67.6618C74.5318 67.753 74.4927 67.8405 74.423 67.905C74.3533 67.9695 74.2587 68.0057 74.1601 68.0057Z" fill="#CCCCCC"/>
<path d="M73.4167 93.805C73.3181 93.805 73.2235 93.7687 73.1538 93.7042C73.0841 93.6397 73.0449 93.5522 73.0449 93.461V83.4853C73.0449 83.3941 73.0841 83.3066 73.1538 83.242C73.2235 83.1775 73.3181 83.1413 73.4167 83.1413C73.5152 83.1413 73.6098 83.1775 73.6795 83.242C73.7492 83.3066 73.7884 83.3941 73.7884 83.4853V93.461C73.7884 93.5522 73.7492 93.6397 73.6795 93.7042C73.6098 93.7687 73.5152 93.805 73.4167 93.805Z" fill="#CCCCCC"/>
<path d="M65.9821 102.577C65.8835 102.577 65.7889 102.54 65.7192 102.476C65.6495 102.411 65.6103 102.324 65.6103 102.233V87.4412C65.6103 87.35 65.6495 87.2625 65.7192 87.1979C65.7889 87.1334 65.8835 87.0972 65.9821 87.0972C66.0806 87.0972 66.1752 87.1334 66.2449 87.1979C66.3146 87.2625 66.3538 87.35 66.3538 87.4412V102.233C66.3538 102.324 66.3146 102.411 66.2449 102.476C66.1752 102.54 66.0806 102.577 65.9821 102.577Z" fill="#CCCCCC"/>
<path d="M67.469 77.2935C67.3704 77.2935 67.2758 77.2572 67.2061 77.1927C67.1364 77.1282 67.0972 77.0407 67.0972 76.9495V56.6541C67.0972 56.5628 67.1364 56.4754 67.2061 56.4108C67.2758 56.3463 67.3704 56.3101 67.469 56.3101C67.5675 56.3101 67.6621 56.3463 67.7318 56.4108C67.8015 56.4754 67.8407 56.5628 67.8407 56.6541V76.9495C67.8407 77.0407 67.8015 77.1282 67.7318 77.1927C67.6621 77.2572 67.5675 77.2935 67.469 77.2935Z" fill="#CCCCCC"/>
<path d="M113.042 120.481C113.574 120.069 112.855 118.463 111.436 116.895C110.017 115.326 108.435 114.389 107.903 114.801C107.371 115.214 108.09 116.819 109.509 118.388C110.928 119.956 112.51 120.893 113.042 120.481Z" fill="#2F2E41"/>
<path d="M109.552 118.697C110.95 114.816 108.684 110.621 104.49 109.328C100.296 108.034 95.7625 110.132 94.3645 114.013C92.9665 117.894 95.2331 122.089 99.4271 123.382C103.621 124.676 108.154 122.578 109.552 118.697Z" fill="#2F2E41"/>
<path d="M105.347 122.168H102.915V126.2H105.347V122.168Z" fill="#2F2E41"/>
<path d="M100.483 122.168H98.0511V126.2H100.483V122.168Z" fill="#2F2E41"/>
<path d="M103.32 126.95C104.439 126.95 105.347 126.635 105.347 126.247C105.347 125.859 104.439 125.544 103.32 125.544C102.201 125.544 101.294 125.859 101.294 126.247C101.294 126.635 102.201 126.95 103.32 126.95Z" fill="#2F2E41"/>
<path d="M98.4564 126.857C99.5757 126.857 100.483 126.542 100.483 126.153C100.483 125.765 99.5757 125.45 98.4564 125.45C97.3372 125.45 96.4299 125.765 96.4299 126.153C96.4299 126.542 97.3372 126.857 98.4564 126.857Z" fill="#2F2E41"/>
<path d="M99.445 107.044C100.16 104.38 103.315 102.812 106.492 103.543C109.669 104.273 111.665 107.024 110.951 109.687C110.236 112.351 107.865 112.36 104.687 111.63C101.51 110.9 98.7303 109.707 99.445 107.044Z" fill="#CCCCCC"/>
<path d="M96.5588 114.505C96.8561 113.925 95.4781 112.744 93.4809 111.867C91.4837 110.991 89.6236 110.751 89.3263 111.331C89.0289 111.911 90.4069 113.092 92.4041 113.968C94.4013 114.845 96.2614 115.085 96.5588 114.505Z" fill="#2F2E41"/>
<path d="M100.762 117.262C102.236 117.262 103.431 116.156 103.431 114.792C103.431 113.428 102.236 112.322 100.762 112.322C99.2879 112.322 98.093 113.428 98.093 114.792C98.093 116.156 99.2879 117.262 100.762 117.262Z" fill="white"/>
<path d="M99.6649 114.73C100.156 114.73 100.555 114.361 100.555 113.907C100.555 113.452 100.156 113.084 99.6649 113.084C99.1736 113.084 98.7753 113.452 98.7753 113.907C98.7753 114.361 99.1736 114.73 99.6649 114.73Z" fill="#3F3D56"/>
<path d="M100.739 120.98C101.355 120.98 101.854 120.518 101.854 119.948C101.854 119.378 101.355 118.916 100.739 118.916C100.123 118.916 99.6236 119.378 99.6236 119.948C99.6236 120.518 100.123 120.98 100.739 120.98Z" fill="white"/>
<path d="M124.814 127H80.95C80.9007 127 80.8535 126.982 80.8186 126.95C80.7837 126.917 80.7642 126.874 80.7642 126.828C80.7642 126.782 80.7837 126.739 80.8186 126.706C80.8535 126.674 80.9007 126.656 80.95 126.656H124.814C124.863 126.656 124.911 126.674 124.946 126.706C124.98 126.739 125 126.782 125 126.828C125 126.874 124.98 126.917 124.946 126.95C124.911 126.982 124.863 127 124.814 127Z" fill="#3F3D56"/>
</g>
<defs>
<clipPath id="clip0_1_2">
<rect width="125" height="127" fill="white"/>
</clipPath>
</defs>
</svg>
