<svg width="27" height="27" viewBox="0 0 27 27" fill="none" xmlns="http://www.w3.org/2000/svg">
<g clip-path="url(#clip0_1_149)">
<path d="M9.40568 0.888051C6.70796 1.82391 4.38146 3.60021 2.76788 5.95604C1.15431 8.31186 0.338728 11.123 0.440929 13.9767C0.543131 16.8303 1.55773 19.5759 3.3357 21.8102C5.11367 24.0446 7.56129 25.6499 10.319 26.3904C12.5548 26.9673 14.8973 26.9926 17.145 26.4642C19.1812 26.0068 21.0637 25.0285 22.6083 23.625C24.2158 22.1196 25.3826 20.2046 25.9833 18.0858C26.6359 15.7816 26.7521 13.3586 26.3229 11.0025H13.7679V16.2106H21.0389C20.8936 17.0412 20.5822 17.834 20.1233 18.5415C19.6645 19.249 19.0676 19.8566 18.3684 20.3281C17.4807 20.9156 16.4797 21.3108 15.4301 21.4882C14.3774 21.684 13.2976 21.684 12.2449 21.4882C11.1779 21.2679 10.1685 20.8275 9.28123 20.1952C7.85561 19.186 6.78516 17.7523 6.22264 16.0988C5.65076 14.4142 5.65076 12.5879 6.22264 10.9034C6.62305 9.72257 7.28499 8.64746 8.15904 7.75829C9.15929 6.72205 10.4256 5.98134 11.8191 5.61743C13.2126 5.25352 14.6795 5.28047 16.0587 5.69532C17.1361 6.02591 18.1214 6.60378 18.9358 7.38282C19.7557 6.56719 20.5741 5.74946 21.3912 4.92961C21.813 4.48875 22.2729 4.06899 22.6884 3.61758C21.445 2.46063 19.9856 1.56032 18.3937 0.968207C15.4948 -0.0843928 12.3229 -0.11268 9.40568 0.888051Z" fill="white"/>
<path d="M9.40567 0.888099C12.3226 -0.113312 15.4946 -0.085769 18.3937 0.966146C19.9859 1.56228 21.4446 2.46692 22.6863 3.62818C22.2644 4.07958 21.8193 4.50146 21.389 4.94021C20.5706 5.75724 19.7529 6.57146 18.9358 7.38286C18.1214 6.60383 17.1361 6.02595 16.0586 5.69536C14.6799 5.27906 13.2131 5.25056 11.8193 5.61298C10.4254 5.9754 9.15826 6.71474 8.15692 7.7499C7.28286 8.63907 6.62093 9.71418 6.22051 10.895L1.84778 7.50943C3.41295 4.40561 6.12295 2.03143 9.40567 0.888099Z" fill="#E33629"/>
<path d="M0.687704 10.8633C0.922561 9.69845 1.31277 8.5704 1.84786 7.5094L6.22059 10.9034C5.64872 12.588 5.64872 14.4142 6.22059 16.0988C4.76372 17.2238 3.30614 18.3544 1.84786 19.4907C0.508725 16.8251 0.100312 13.788 0.687704 10.8633Z" fill="#F8BD00"/>
<path d="M13.7679 11.0004H26.3229C26.7521 13.3564 26.636 15.7795 25.9833 18.0836C25.3826 20.2025 24.2158 22.1175 22.6083 23.6229C21.1971 22.5218 19.7796 21.4291 18.3685 20.328C19.0681 19.8561 19.6652 19.2478 20.1241 18.5396C20.583 17.8313 20.8941 17.0377 21.0389 16.2063H13.7679C13.7658 14.4724 13.7679 12.7364 13.7679 11.0004Z" fill="#587DBD"/>
<path d="M1.8457 19.4906C3.30398 18.3656 4.76156 17.235 6.21844 16.0988C6.78208 17.7529 7.85406 19.1867 9.28125 20.1952C10.1713 20.8245 11.1828 21.2613 12.2513 21.4777C13.3039 21.6734 14.3837 21.6734 15.4364 21.4777C16.4861 21.3002 17.487 20.905 18.3748 20.3175C19.7859 21.4186 21.2034 22.5113 22.6146 23.6123C21.0703 25.0166 19.1878 25.9957 17.1513 26.4537C14.9036 26.9821 12.5612 26.9568 10.3254 26.3798C8.55711 25.9077 6.90541 25.0754 5.47383 23.9351C3.95872 22.7319 2.72117 21.2159 1.8457 19.4906Z" fill="#319F43"/>
</g>
<defs>
<clipPath id="clip0_1_149">
<rect width="27" height="27" fill="white"/>
</clipPath>
</defs>
</svg>
