<?xml version="1.0" encoding="utf-8"?>
<!-- Generator: Adobe Illustrator 19.0.0, SVG Export Plug-In . SVG Version: 6.00 Build 0)  -->
<svg version="1.1" id="Layer_1" xmlns="http://www.w3.org/2000/svg" xmlns:xlink="http://www.w3.org/1999/xlink" x="0px" y="0px"
	 viewBox="0 0 1000 1000" style="enable-background:new 0 0 1000 1000;" xml:space="preserve">
<style type="text/css">
	.st0{display:none;fill:#FFFFFF;}
	.st1{fill:#DC4102;}
	.st2{fill:#FC6502;}
</style>
<rect id="XMLID_1_" class="st0" width="1000" height="1000"/>
<g id="XMLID_2_">
	<g id="XMLID_41_">
		<path id="XMLID_65_" class="st1" d="M496.8,50.3c143.9,218.1,138.4,408.9,0.3,521.6c-3.6,2.9-8,3-11.6,0
			c-123.8-102.4-147.3-298.1,0.2-521.6C487.5,47.5,495,47.5,496.8,50.3z"/>
		<path id="XMLID_66_" class="st2" d="M384.8,375.6c-1.3-14.8-1.5-30-0.9-45.6c1.8-50.1,14.7-102.9,33.2-149.4
			c23.4-58.8,53.9-107.8,69.1-131.1c3.1-4.8,6.9-4.9,10.1,0c11.6,17.7,48.3,75.8,72,135.1c16.8,42,29.8,89.6,33.5,136.1
			c1.5,18.6,1.5,36.8-0.1,54.8c-15.7-4-101.3-60.3-110.5-145.2C480.2,315.6,399.6,376,384.8,375.6z"/>
	</g>
	<g id="XMLID_40_">
		<path id="XMLID_32_" class="st1" d="M881.2,536.9L491.2,874L101.3,536.9c0,0,0,65.4,0,87.7c0,2,0.5,5.9,3.8,8.8
			c34.2,29.4,290.9,250.4,380.4,327.5c2,1.7,3.9,2.6,5.7,2.6l0,0h0l0,0l0,0c1.9-0.1,3.8-0.9,5.7-2.6
			c89.5-77.2,346.2-298.1,380.4-327.5c3.3-2.8,3.8-6.8,3.8-8.8C881.1,602.3,881.2,536.9,881.2,536.9z"/>
		<path id="XMLID_35_" class="st2" d="M881.2,483.1c0-3-2.9-6.2-6.6-3C786.3,556.8,535.1,775,496.1,807.3c-1.9,1.6-3.4,2.4-4.9,2.4
			c-1.5,0-3-0.8-4.9-2.4c-39-32.2-290.2-250.5-378.4-327.2c-3.7-3.2-6.6,0-6.6,3c0,21.1,0,84.5,0,84.5l389.9,335.7v0h0l0,0v0
			l389.9-335.7C881.2,567.6,881.2,504.2,881.2,483.1z"/>
	</g>
	<g id="XMLID_39_">
		<path id="XMLID_8_" class="st2" d="M108.1,205.3c28.8,18.4,141.4,93.9,192.8,183.6c39.4,68.8,48.3,141.7,48.3,141.7l-247.9-155
			c0,0,0-125.4,0-167.1C101.3,206.6,103.8,202.5,108.1,205.3z"/>
		<path id="XMLID_9_" class="st1" d="M418.2,663.7C326.9,583,292.4,547.1,219.9,503c-33.8-20.6-98.6-60.8-114.8-70.9
			c-2.4-1.5-3.8-4.1-3.8-8.8c0-12,0-47.8,0-47.8s158.4,69.6,247.9,155c102.6,97.8,114.4,138.8,101,146.7
			C439,683.8,429.8,674,418.2,663.7z"/>
	</g>
	<g id="XMLID_38_">
		<path id="XMLID_37_" class="st2" d="M874.3,206.3c-28.8,18.4-141.4,93.9-192.8,183.6c-39.4,68.8-48.3,141.7-48.3,141.7l247.9-155
			c0,0,0-125.4,0-167.1C881.2,207.5,878.7,203.5,874.3,206.3z"/>
		<path id="XMLID_36_" class="st1" d="M564.3,664.6C655.6,584,690.1,548,762.6,503.9c33.8-20.6,98.6-60.8,114.8-70.9
			c2.4-1.5,3.8-4.1,3.8-8.8c0-12,0-47.8,0-47.8s-158.4,69.6-247.9,155c-102.6,97.8-114.4,138.8-101,146.7
			C543.4,684.8,552.7,674.9,564.3,664.6z"/>
	</g>
</g>
</svg>
