<svg width="67" height="75" viewBox="0 0 67 75" fill="none" xmlns="http://www.w3.org/2000/svg">
<path d="M46.6786 6.31592C46.905 6.35167 50.0748 8.27021 51.5286 9.41418C51.9099 9.71209 53.5186 11.1301 53.5901 11.2016C54.5553 12.0239 55.4133 12.9653 56.307 13.859C56.5335 14.0854 59.2742 17.3982 60.1084 18.5898C62.7062 22.3316 64.5889 26.4189 65.7567 30.816C66.7101 34.3909 67.139 38.0254 66.9603 41.7314C66.722 46.784 65.435 51.5625 63.0756 56.043C61.8601 58.3667 60.4063 60.5355 58.6903 62.5136C58.2613 63.0141 57.022 64.3249 56.8433 64.4799C56.4977 64.7778 56.164 65.0876 55.8423 65.4093C55.3299 65.8979 54.7817 66.3388 54.2336 66.7797C53.5544 67.3398 52.8394 67.8641 52.1244 68.3765C50.6348 69.449 49.0261 70.3308 47.3459 71.0935C44.8792 72.2255 42.3053 73.0597 39.636 73.5482C34.4881 74.4896 29.3998 74.3109 24.3711 72.8452C22.9292 72.4281 21.535 71.9038 20.1765 71.296C17.9839 70.307 15.9343 69.0915 14.0038 67.6496C12.6096 66.6129 11.2988 65.4808 10.0833 64.2415C8.28396 62.4183 6.68716 60.4164 5.31678 58.2476C3.29099 55.054 1.83719 51.6221 0.943463 47.9518C0.0973992 44.5199 -0.164762 41.0522 0.0973985 37.5369C0.45489 32.7227 1.6942 28.1587 3.79148 23.8211C4.81629 21.7 6.01985 19.698 7.39023 17.7914C8.36738 16.4329 9.4041 15.1221 10.5242 13.8828C11.6325 12.7031 13.7774 10.6297 14.6116 9.84317C16.5778 8.15104 18.7346 6.32783 18.7346 6.32783C18.7346 6.32783 14.9691 10.2722 12.6811 13.7279C12.2164 14.4548 11.7755 15.1817 11.3584 15.9444C9.79735 18.852 8.71295 21.9502 8.1648 25.2153C7.54514 28.8617 7.70006 32.4962 8.66529 36.0831C9.3326 38.5498 10.3336 40.8735 11.7159 43.0303C12.7764 44.6867 14.123 46.0809 15.6602 47.2964C17.0068 48.357 18.4486 49.2626 19.8548 50.2397C20.9511 51.0143 22.0593 51.7651 23.0603 52.6707C24.4783 53.9458 25.7176 55.3996 26.814 56.9606C29.2926 60.4998 30.9966 64.3845 31.9023 68.6148C32.1287 69.6992 32.3193 70.8075 32.4742 71.9038C32.4981 72.0468 32.5219 72.2136 32.5219 72.2136H34.4643C34.4643 72.2136 34.4881 72.0706 34.512 71.9395C34.7384 70.4142 35.0005 68.9008 35.3819 67.4113C35.7036 66.1601 36.0968 64.9446 36.5735 63.741C37.7175 60.8096 39.2428 58.1046 41.1732 55.626C42.627 53.7551 44.3668 52.1821 46.3211 50.8475C47.5842 49.9776 48.8712 49.1554 50.1105 48.2616C51.5762 47.2011 52.9347 46.0333 54.0906 44.639C55.2584 43.2329 56.164 41.6719 56.9148 40.0155C57.9634 37.7275 58.6665 35.3323 58.9763 32.8418C59.2981 30.1964 59.2385 27.539 58.738 24.9174C58.2852 22.5103 57.594 20.1866 56.5692 17.9582C55.8781 16.4568 55.0916 15.0149 54.1621 13.6445C52.2555 10.8203 50.1701 8.66345 47.334 6.78066C47.2029 6.69724 46.905 6.45891 46.6786 6.31592Z" fill="white"/>
<path d="M18.6634 12.6434C18.5919 12.7626 18.568 12.7983 18.5323 12.8579C16.8878 15.3961 15.8273 18.1369 15.4102 21.1398C14.9574 24.4287 15.3745 27.5866 16.7568 30.6133C17.579 32.4127 18.7945 33.9022 20.3674 35.1058C21.285 35.8089 22.2502 36.4404 23.2154 37.0839C23.847 37.5129 24.4786 37.93 25.0863 38.3828C26.6235 39.5268 27.839 40.9448 28.7447 42.637C30.1865 45.342 31.2352 48.1781 31.7357 51.2048C31.9144 52.3012 32.0097 53.3975 32.0217 54.4938C32.0693 56.9962 32.0455 59.4867 32.1289 61.9892C32.1527 62.6208 32.1766 63.2642 32.2004 63.8958C32.2004 64.0031 32.2481 65.0994 32.2242 65.3377C32.2004 65.0755 32.0693 64.0746 32.0574 63.9911C31.8906 62.8353 31.6999 61.6913 31.4258 60.5473C31.0088 58.8313 30.3534 57.1988 29.5669 55.6139C28.9115 54.2793 28.1369 53.0042 27.2432 51.8126C26.2899 50.5375 25.1459 49.4531 23.9185 48.4402C22.4528 47.2248 20.999 45.9974 19.6763 44.627C18.8779 43.7929 18.1391 42.8991 17.4598 41.9696C15.7796 39.6579 14.5403 37.1435 13.7657 34.3908C12.9793 31.5547 12.7767 28.6829 13.1223 25.7633C13.5393 22.2003 14.6118 18.8518 16.3873 15.7417C17.15 14.1925 18.7349 12.4766 18.7349 12.4766L18.6634 12.6434Z" fill="white"/>
<path d="M48.3584 12.5005C51.1826 16.5878 51.9333 18.1131 52.7675 20.5798C53.9114 23.9641 54.2809 27.4436 53.9115 30.9947C53.6493 33.5329 52.9105 35.94 51.7784 38.2399C51.266 39.2766 50.7179 40.2895 50.0505 41.2428C49.7288 41.7195 49.3832 42.1723 49.0376 42.6371C48.7278 43.0422 48.3942 43.4355 48.0724 43.8287C47.6792 44.2934 47.2383 44.7224 46.8212 45.1753C46.4875 45.5327 46.1062 45.8306 45.7606 46.1762C45.0457 46.8912 44.2353 47.4989 43.4608 48.1424C43.1152 48.4284 42.7696 48.7144 42.424 49.0004C41.8759 49.4532 41.3397 49.9299 40.8511 50.4542C40.2314 51.1215 39.6594 51.8484 39.147 52.5992C37.4787 55.042 36.2871 57.6875 35.5364 60.5474C35.1908 61.8463 35.012 63.1809 34.881 64.5156C34.8571 64.7777 34.8214 65.0518 34.7737 65.3735C34.738 64.4917 34.7976 63.6814 34.8333 62.8592C34.9167 60.6904 34.9525 58.5097 34.9406 56.329C34.9406 55.4591 34.9406 54.5773 34.9882 53.7074C35.0955 51.5148 35.5245 49.3937 36.2156 47.3202C36.7518 45.7234 37.4311 44.1862 38.2414 42.6966C39.29 40.7543 40.7438 39.2051 42.567 37.9897C43.6872 37.2508 44.8073 36.5001 45.8917 35.7255C46.845 35.0463 47.7268 34.2956 48.4895 33.3899C49.4309 32.2698 50.134 31.0186 50.6702 29.6601C51.5639 27.3722 51.9214 24.9889 51.7665 22.5222C51.6116 19.841 50.8132 17.3385 49.6335 14.9433C49.4071 14.4667 48.7517 13.1678 48.3584 12.5005Z" fill="white"/>
<path d="M33.4513 35.8564C33.2845 34.1881 33.2845 32.4603 33.1773 30.7443C33.07 29.1118 32.7244 27.5388 32.1405 26.0016C31.5805 24.5239 31.0919 23.0225 30.7821 21.4614C30.5199 20.1625 30.4127 18.8517 30.4007 17.5171C30.365 15.1815 30.5557 12.8578 30.9132 10.546C31.1515 9.02071 31.4971 7.53116 31.8307 6.0297C32.2716 4.07541 33.4633 0.0834148 33.5109 0C33.5586 0.0834148 35.7512 7.80524 36.2755 11.7257C36.5854 14.0018 36.6807 16.2897 36.5973 18.5777C36.5139 20.7464 36.073 22.8437 35.3222 24.8814C34.9409 25.9062 34.5357 26.9191 34.2617 27.9797C33.9637 29.1356 33.8208 30.3034 33.7373 31.495C33.642 32.8893 33.4633 35.8207 33.4513 35.8564Z" fill="white"/>
<path d="M34.7024 48.5234C34.6905 48.297 34.6786 48.0467 34.6666 47.7846C34.5832 45.4966 34.6071 43.2087 34.5832 40.9207C34.5713 39.8959 34.5594 38.8115 34.6309 37.7867C34.7858 35.7252 35.1314 33.8543 36.0489 32.0072C36.6448 30.8037 37.3597 29.6716 38.0509 28.5277C38.9327 27.0739 39.8026 25.6201 40.5533 24.1067C41.3637 22.4503 42.031 20.7343 42.4004 18.923C42.6983 17.4335 42.746 15.932 42.5553 14.4186C42.3646 12.9648 41.2445 10.0811 41.2802 9.96191C41.3994 10.0692 43.2941 13.942 43.8065 15.8724C44.5453 18.6251 44.7241 21.4374 44.4262 24.2616C44.1402 26.8594 43.4252 29.338 42.317 31.7093C41.4471 33.5683 40.3388 35.2843 39.171 36.9645C38.4322 38.0489 37.6696 39.1213 37.0499 40.2772C36.4422 41.3974 35.9536 42.5533 35.62 43.7926C35.2505 45.151 34.9765 46.3188 34.8216 47.7011C34.7858 47.9991 34.762 48.0825 34.7024 48.5234Z" fill="white"/>
<path d="M32.1878 48.5238C32.1401 47.9994 31.9852 47.2606 31.8899 46.7125C31.6634 45.3659 31.4132 44.0313 30.9723 42.7324C30.5314 41.4216 29.876 40.218 29.1729 39.0383C28.4698 37.8824 27.6953 36.7742 26.9445 35.6421C25.7767 33.8666 24.74 32.0196 23.9654 30.0295C22.8215 27.0981 22.3329 24.0594 22.4163 20.9254C22.4759 18.9949 22.7261 17.0883 23.2743 15.2294C23.7033 13.7636 24.7519 11.3684 25.6457 9.93848C24.5732 12.2622 24.1442 14.991 24.2753 17.0287C24.3706 18.5183 24.7281 19.9602 25.2405 21.3663C25.741 22.7367 26.3726 24.0475 27.0518 25.3345C27.8859 26.8836 28.8154 28.3731 29.7211 29.8746C30.5671 31.2927 31.3179 32.7465 31.7826 34.3313C32.2235 35.8328 32.4142 37.3581 32.4618 38.9192C32.5095 40.9569 32.4023 42.9946 32.3069 45.0323C32.2593 45.9379 32.2593 46.8436 32.2116 47.7492C32.1878 47.9756 32.1997 48.3689 32.1878 48.5238Z" fill="white"/>
</svg>
