<svg width="201" height="75" viewBox="0 0 201 75" fill="none" xmlns="http://www.w3.org/2000/svg">
<g clip-path="url(#clip0_153_563)">
<path d="M100.329 0C44.8499 0 0.378418 16.6291 0.378418 37.4779C0.378418 58.2039 45.2173 74.96 100.33 74.96C155.446 74.96 200.288 58.1459 200.288 37.4779C200.286 16.8141 155.446 0 100.329 0ZM199.676 34.584C199.712 34.7669 199.737 34.952 199.769 35.1295C199.742 34.9527 199.706 34.769 199.676 34.584Z" fill="#C9C9CA"/>
<path d="M100.332 1.49635C45.9565 1.49635 1.90967 17.5689 1.90967 37.4586C1.90967 57.3386 45.9565 73.4215 100.332 73.4215C154.715 73.4215 198.75 57.3386 198.75 37.4586C198.75 17.5703 154.714 1.49635 100.332 1.49635Z" fill="url(#paint0_radial_153_563)"/>
<path d="M100.78 9.03752C147.009 9.03752 185.181 20.3317 191.013 34.9499V34.9472C187.117 19.5686 148.008 7.4873 100.325 7.4873C50.0631 7.4873 9.32178 20.9075 9.32178 37.4696C9.32178 38.8196 9.59453 40.1454 10.1152 41.4484C9.88952 40.5988 9.77463 39.7236 9.77338 38.8445C9.77476 22.3846 50.5175 9.03752 100.78 9.03752Z" fill="url(#paint1_linear_153_563)"/>
<path d="M194.033 33.7188C194.431 34.9295 194.635 36.1958 194.636 37.4703C194.636 55.602 152.413 70.2983 100.323 70.2983C53.968 70.2983 15.4287 58.6555 7.49951 43.3253C13.516 59.259 52.926 71.5682 100.7 71.6207H101.277C153.23 71.5696 195.302 57.0217 195.302 39.071C195.303 37.2501 194.869 35.4575 194.033 33.7188Z" fill="url(#paint2_linear_153_563)"/>
<path d="M118.473 42.5229C118.265 41.9953 118.227 41.4028 118.346 40.8138C118.388 40.6046 118.118 40.4168 117.897 40.644C115.785 42.846 115.627 45.6944 117.011 46.9733C117.505 47.4331 118.074 47.6396 118.679 47.6783C117.778 46.5348 117.352 44.2927 118.473 42.5229Z" fill="url(#paint3_linear_153_563)"/>
<path d="M139.871 46.7627H139.873C139.981 46.5541 140.089 46.3338 140.204 46.0977C140.292 45.9161 140.248 45.865 140.173 45.8346C139.956 45.7566 139.732 45.5902 139.701 45.4182C139.686 45.3871 139.685 45.3575 139.682 45.3222L139.685 45.3409C139.713 45.673 139.8 46.2986 139.871 46.7627Z" fill="url(#paint4_linear_153_563)"/>
<path d="M142.27 38.1388C142.975 38.8148 143.405 39.6344 143.485 40.3885C143.516 40.7455 143.788 40.7848 144.01 40.4734C144.068 40.3885 144.135 40.2828 144.213 40.1641C144.152 40.0777 144.085 39.9949 144.023 39.9134C143.477 39.2851 142.891 38.6923 142.27 38.1388Z" fill="url(#paint5_linear_153_563)"/>
<path d="M113.013 36.7515C113.579 37.5256 113.844 38.6311 113.805 40.046C113.795 40.4126 114.062 40.3885 114.236 40.1385C114.336 39.9997 114.423 39.8768 114.515 39.7504V39.7394C114.102 38.4709 113.468 37.2252 113.013 36.7515Z" fill="url(#paint6_linear_153_563)"/>
<path d="M139.313 40.4941C137.572 39.6579 134.915 41.1915 132.51 44.1504C130.54 46.57 129.478 49.0303 129.441 51.4292C129.426 52.284 129.75 53.3405 130.502 53.7258C130.736 53.8557 130.991 53.9438 131.255 53.9862C131.17 53.6717 131.126 53.3478 131.124 53.0222C131.094 50.5467 131.863 48.0746 133.839 45.6516C136.226 42.7072 138.737 41.2399 140.481 42.0505C140.391 41.4028 140.054 40.8442 139.313 40.4941Z" fill="url(#paint7_linear_153_563)"/>
<path d="M87.2241 45.3982C89.0595 42.9096 91.1269 41.9684 93.4843 40.9499C93.7951 40.8138 93.8323 40.6384 93.773 40.3636C93.6721 39.8941 93.3448 38.7285 93.2447 38.4481C93.3193 38.7043 93.253 38.9004 92.9464 39.0143C90.2713 40.0301 87.5894 41.6072 85.7339 44.0924C83.6292 46.9125 83.0651 50.3043 84.471 52.2585C84.8059 52.7156 85.205 53.0547 85.6455 53.2756C84.888 50.9417 85.4411 47.8122 87.2241 45.3982Z" fill="url(#paint8_linear_153_563)"/>
<path d="M100.691 60.1587C102.499 60.1587 104.722 60.1587 106.226 60.1498C106.45 60.1373 106.609 60.011 106.727 59.8439C108.974 56.3222 111.374 52.5016 113.67 48.9771C114.174 50.7552 114.433 51.5825 115.37 52.4201C116.323 53.2715 117.205 53.4952 118.503 53.5063C119.681 53.5208 120.843 53.0498 122.225 52.476C122.691 52.2771 123.139 52.037 123.563 51.7586C123.563 51.1053 123.629 50.4486 123.745 49.8217C123.755 49.754 123.688 49.3196 123.318 49.5772C122.549 50.1362 121.708 50.5885 120.817 50.9217C119.544 51.3967 118.951 51.5749 117.772 51.5638C116.29 51.5521 114.953 50.9217 114.014 49.455C113.489 48.663 113.271 47.4552 113.222 46.5686C113.215 46.4713 113.088 46.2986 112.948 46.5224C110.456 50.3313 108.129 54.0117 105.656 57.8793C105.526 58.0616 105.415 58.1804 105.158 58.1887C103.63 58.1887 101.956 58.1845 100.274 58.1942C100.098 58.1942 99.9712 58.1134 99.9346 57.9905C100.066 58.5809 100.283 59.6505 100.339 59.9005C100.377 60.0696 100.503 60.1587 100.691 60.1587Z" fill="url(#paint9_linear_153_563)"/>
<path d="M124.887 58.0519C125.304 58.8529 126.24 59.752 126.808 60.0344C130.049 61.6316 134.677 59.8211 137.65 56.9637C137.679 56.9243 137.686 56.9216 137.728 56.8753C137.864 57.3884 138.031 58.0119 138.056 58.0982C138.258 58.7618 138.576 59.3646 138.854 59.6843C140.888 61.9824 145.205 60.9362 149.699 57.4588C152.211 55.517 154.073 53.567 156.354 50.9134C156.446 50.8029 156.438 50.6399 156.387 50.3913C156.256 49.814 156.051 48.77 155.937 48.2452C155.933 48.3328 155.902 48.4172 155.849 48.4869C153.467 51.3905 150.834 54.1353 148.317 56.0771C144.401 59.1105 140.493 59.8804 138.562 57.9359C137.839 57.213 137.444 56.1799 137.396 55.3037C137.373 54.8286 137.132 54.8065 136.904 55.0295C134.596 57.3159 130.585 59.8473 126.929 58.0437C125.043 57.1128 124.06 55.3665 123.707 53.4448C123.709 53.4648 123.716 53.489 123.721 53.5104C123.947 54.8721 124.243 56.838 124.887 58.0519Z" fill="url(#paint10_linear_153_563)"/>
<path d="M123.274 45.6516C124.477 45.0004 125.534 43.6194 125.403 41.3787C125.333 40.2635 125.01 39.1145 124.488 38.1878C124.843 38.8638 124.992 39.651 124.866 40.4803C124.635 41.9262 123.852 43.2009 122.52 43.8611C121.391 44.4142 120.072 44.3168 119.148 43.493C118.87 43.2377 118.65 42.9266 118.501 42.5802C118.739 43.6726 118.947 44.4756 119.231 44.9058C120.102 46.2192 121.61 46.5507 123.274 45.6516Z" fill="url(#paint11_linear_153_563)"/>
<path d="M159.051 26.7293C158.293 28.042 143.652 50.3326 142.727 52.6383C142.434 53.3682 142.399 53.9261 142.697 54.328C142.999 54.7326 143.44 54.8866 143.941 54.8783C143.992 54.5966 144.099 54.2796 144.232 53.9447C145.157 51.6308 158.869 30.7944 159.622 29.4755C159.684 29.3629 159.662 29.2366 159.642 29.1523C159.597 28.9431 159.138 26.7279 159.093 26.5201C159.105 26.5925 159.09 26.667 159.051 26.7293Z" fill="url(#paint12_linear_153_563)"/>
<path d="M98.2852 37.103C98.328 37.1492 98.3618 37.1955 98.3991 37.2418C99.2802 38.5531 99.7608 40.3988 99.8091 42.3053C99.8616 42.7072 100.034 42.7169 100.228 42.5104C100.406 42.3295 100.58 42.1368 100.752 41.9511C100.494 40.9271 100.095 40.0059 99.6841 39.1172C99.5309 38.7968 98.8624 37.6478 98.2852 37.103Z" fill="url(#paint13_linear_153_563)"/>
<path d="M74.6567 57.9373C74.9233 58.072 75.1988 57.9498 75.3314 57.8752C76.2242 57.4181 77.9629 56.0812 78.7121 55.1483C78.9393 54.9363 79.1575 55.0806 79.23 55.3064C79.5428 56.298 80.0013 57.0624 80.5151 57.8759C81.0744 58.7818 82.1986 59.7209 83.6549 60.1201C85.5393 60.6483 87.5729 60.7415 90.2459 59.7209C92.3892 58.9006 94.6355 57.2295 96.3625 55.352C98.4354 53.1016 99.1853 51.6598 99.9705 50.6765C101.315 49.0124 103.408 46.0645 106.341 43.5621C107.367 42.6844 108.491 42.1155 109.196 42.3917C109.62 41.2993 109.419 40.6964 108.968 40.4064C108.282 39.9597 106.909 40.6302 105.75 41.514C102.592 43.906 99.938 47.632 98.5942 49.2989C97.8015 50.2795 97.0544 51.7261 94.9842 53.9744C91.7298 57.5071 87.4147 59.538 83.2523 58.1355C80.9805 57.3718 79.3364 55.5447 78.7108 53.3005C78.5851 52.8675 78.3427 52.746 78.1065 53.0319C77.4347 53.8722 76.0599 55.1062 74.9115 55.883C74.7858 55.9735 74.4751 56.1572 74.2086 56.0246C73.9683 55.9155 73.1155 54.7112 72.9484 54.3646C72.9273 54.3288 72.913 54.2895 72.9062 54.2486V54.2638C73.2059 55.7456 73.2432 55.9182 73.6486 56.6032C74.1078 57.3587 74.5552 57.8945 74.6567 57.9373Z" fill="url(#paint14_linear_153_563)"/>
<path d="M49.5569 44.6255C50.6079 42.5063 52.087 41.4947 53.5412 40.5749C54.1669 40.1786 54.4444 39.7946 54.0723 38.7623C53.9666 38.4674 53.9072 37.9371 53.7898 37.4676C53.8271 37.9261 53.6006 38.3204 53.1953 38.5317C51.4193 39.4376 49.2814 40.9906 48.2263 43.1091C47.3687 44.8354 47.1947 46.9242 48.5011 48.9088C48.6109 49.0669 48.7297 49.2271 48.8609 49.3742H48.8623C48.4425 47.7266 48.894 45.952 49.5569 44.6255Z" fill="url(#paint15_linear_153_563)"/>
<path d="M67.7412 18.8919C74.1982 16.7623 81.3962 18.1089 87.1779 19.3463C87.9865 18.8415 88.6943 18.4928 89.4035 18.104C89.7563 17.919 89.3614 17.6987 89.2516 17.6987C81.7877 16.2976 74.0311 14.4802 66.6212 17.2243C61.4851 19.1412 59.2347 23.2132 60.3209 25.9317C60.528 26.4503 60.8588 26.8536 61.2904 27.1402C60.9279 24.6329 62.8074 20.5243 67.7412 18.8919Z" fill="url(#paint16_linear_153_563)"/>
<path d="M46.7386 57.9187C48.855 59.4102 50.939 59.9046 53.3703 59.9474C58.3089 60.0337 62.8201 57.9946 67.604 53.1403C72.1967 48.4793 76.172 41.9656 80.0921 35.5106C80.2219 35.2835 80.3607 35.182 81.0173 35.0963C83.477 34.7932 85.6804 34.6523 87.8528 34.4486C88.5005 34.3879 88.9929 34.3285 89.2304 34.5632C90.0148 35.3484 90.9277 36.0658 91.5312 36.4166C91.9324 36.4214 92.2694 36.5098 92.5048 36.7204C92.7582 36.6873 92.9896 36.5464 93.1394 36.4007C93.4211 36.1252 93.4322 35.8027 93.3859 35.5293C93.2886 34.9928 93.1436 33.9356 92.9716 33.629C93.0904 33.8624 93.0137 34.1924 92.7797 34.4569C92.6077 34.653 92.3391 34.8388 91.9973 34.8346C91.7149 34.8277 91.5478 34.731 91.1928 34.5363C90.4602 34.1448 89.5556 33.4964 88.9473 32.7306C88.7422 32.4737 88.6365 32.4668 88.1187 32.4958C85.7957 32.6312 82.1712 32.9792 79.7136 33.2879C79.1212 33.3617 79.0328 33.4729 78.9092 33.6759C74.9933 40.135 70.8129 47.0976 66.2223 51.7592C61.2996 56.7586 57.2048 58.0713 52.8614 58.1051C47.8489 58.1403 43.3889 55.3002 42.2578 50.3098V50.3126C42.8689 53.1009 44.665 56.4555 46.7386 57.9187Z" fill="url(#paint17_linear_153_563)"/>
<path d="M65.2558 36.2205C65.1462 36.0535 65.0858 35.8589 65.0818 35.6591C65.0307 36.496 65.3684 37.7265 65.6391 38.1374C65.9367 38.5959 66.7743 38.821 67.4372 38.3266C68.9356 37.2231 70.2884 36.5803 71.802 36.2937C72.1907 35.7613 72.6106 35.1716 73.0912 34.5087C73.1333 34.4569 73.1443 34.3879 73.1264 34.3533C73.0995 34.2933 73.0511 34.276 72.9538 34.2719C70.7351 34.3333 68.7961 34.9969 66.9179 36.4007C66.3773 36.7957 65.597 36.7398 65.2558 36.2205Z" fill="url(#paint18_linear_153_563)"/>
<path d="M125.649 21.0947C122.545 22.7982 119.302 23.3126 115.91 23.3423C107.71 23.4093 100.071 20.2143 92.1683 18.4976C92.1794 18.8422 92.2692 19.2558 91.9791 19.474C87.6026 22.7015 83.6453 25.9822 80.9937 30.5859C80.906 30.6936 80.9543 30.793 81.1083 30.782C81.8071 30.7502 82.4831 30.7184 83.1495 30.6818C85.5642 26.8992 88.1475 24.7309 92.0917 21.8197C92.3872 21.596 92.6821 21.4406 92.5854 20.5989C100.513 22.359 106.541 25.2744 116.778 25.3013C119.833 25.3117 124.14 24.2932 126.457 22.899C129.121 21.297 129.829 20.119 129.925 18.874C129.956 18.4852 129.853 17.9079 129.79 17.6103C129.699 17.1884 129.64 16.6498 129.52 16.2493C129.561 16.4123 129.579 16.5966 129.564 16.799C129.483 18.2311 128.376 19.6073 125.649 21.0947Z" fill="url(#paint19_linear_153_563)"/>
<path d="M91.3976 26.4386C91.3002 26.5311 91.1905 26.6257 91.082 26.7252C90.2997 27.5351 90.0615 28.6075 90.1761 29.4189C90.2403 29.7489 90.3674 29.8132 90.5179 29.7849C90.6729 29.7505 90.8247 29.7029 90.9716 29.6426C91.0268 29.1958 91.2139 28.7622 91.6655 28.3645C91.9921 28.0758 92.4016 27.9419 92.7517 27.9999C93.0535 27.4019 93.1398 26.6823 92.7717 26.3613C92.4182 26.056 91.854 26.1134 91.3976 26.4386Z" fill="url(#paint20_linear_153_563)"/>
<path d="M94.5515 29.2449C93.7995 30.6832 92.5594 31.4497 91.3696 31.8219C91.3696 31.8219 91.1203 31.8785 91.1576 32.1064C91.1866 32.3619 92.0304 32.8963 92.5573 33.2713C92.6339 33.2506 92.7486 33.2085 92.7486 33.2085C93.359 32.9661 94.3768 32.3453 94.9651 31.0575C95.3422 30.2268 95.5472 29.5749 95.3836 28.149C95.2648 27.1547 95.0639 26.2556 94.7973 25.7909C95.3118 26.8329 95.1067 28.1704 94.5515 29.2449Z" fill="url(#paint21_linear_153_563)"/>
<path d="M72.5208 24.1088C70.3526 29.2062 66.2095 33.2492 61.1631 33.4163C58.341 33.5109 56.181 32.1803 55.0327 30.1508C55.8717 31.6658 57.2914 32.9944 58.5564 33.7906C59.6495 34.4714 60.9981 34.8505 62.5407 34.7987C67.799 34.6192 71.7833 30.2855 73.105 26.6243C73.4578 25.6369 73.1823 24.579 73.0194 23.8636C72.9531 23.5902 72.8626 22.9667 72.6624 22.5227H72.6603C72.8094 22.8893 72.8094 23.4293 72.5208 24.1088Z" fill="url(#paint22_linear_153_563)"/>
<path d="M100.329 0C44.8499 0 0.378418 16.6291 0.378418 37.4779C0.378418 58.2039 45.2173 74.96 100.33 74.96C155.446 74.96 200.288 58.1459 200.288 37.4779C200.286 16.8141 155.446 0 100.329 0ZM1.06341 37.8915C1.04339 33.5054 2.97684 29.1475 7.04193 25.0451C21.3509 10.6112 58.8433 0.855553 100.163 0.687066C154.901 0.459195 199.506 16.7803 199.601 37.0691C199.62 41.4567 197.572 45.7566 193.506 49.8555C179.195 64.2922 141.818 74.1093 100.502 74.2736C45.7649 74.5022 1.15594 58.1831 1.06341 37.8915ZM199.676 34.584C199.712 34.7669 199.737 34.952 199.769 35.1295C199.742 34.9527 199.706 34.769 199.676 34.584Z" fill="#4B4B4B"/>
<path d="M0.680176 37.4779C0.680176 38.4571 0.795493 39.4293 0.995743 40.3871C0.841255 39.565 0.760144 38.7308 0.753371 37.8943C0.734036 33.4494 2.72135 28.9624 6.82027 24.8269C21.2093 10.3129 58.7397 0.546895 100.163 0.372884C105.902 0.347335 111.526 0.507535 117.008 0.835532C111.455 0.486977 105.894 0.31242 100.33 0.312119C45.073 0.312119 0.680176 16.8818 0.680176 37.4779Z" fill="url(#paint23_linear_153_563)"/>
<path d="M193.728 50.0861C179.388 64.5449 141.868 74.4131 100.502 74.585C94.7778 74.6144 89.054 74.4587 83.3398 74.1183C88.8599 74.4704 94.5408 74.6486 100.329 74.6486C155.273 74.6486 199.974 57.8738 199.974 37.4904C199.974 36.7115 199.902 35.9401 199.777 35.1723C199.868 35.8027 199.907 36.4387 199.913 37.0774C199.937 41.523 197.827 45.9506 193.728 50.0861Z" fill="url(#paint24_linear_153_563)"/>
<path d="M100.325 4.64236C48.2326 4.64236 6.00391 19.3359 6.00391 37.4703C6.00391 55.602 48.2326 70.2983 100.325 70.2983C152.413 70.2983 194.636 55.602 194.636 37.4703C194.636 19.3359 152.412 4.64236 100.325 4.64236ZM100.325 67.4548C50.0632 67.4548 9.32185 54.0338 9.32185 37.4696C9.32185 20.9062 50.0625 7.48661 100.325 7.48661C150.59 7.48661 191.326 20.9069 191.326 37.4696C191.326 54.0345 150.59 67.4548 100.325 67.4548Z" fill="white"/>
<path d="M159.052 26.7293C159.182 26.5007 159.047 26.3336 158.759 26.3336C157.248 26.3336 155.274 26.3385 153.706 26.3385C153.331 26.3385 153.141 26.3799 152.965 26.7293C152.385 27.8403 145.325 38.4184 144.011 40.4713C143.788 40.7841 143.516 40.7441 143.485 40.3864C143.355 39.1655 142.3 37.759 140.64 37.0919C139.373 36.5775 138.136 36.485 136.853 36.6569C134.531 36.9683 132.464 38.1961 130.644 39.575C127.902 41.6604 125.537 44.3596 122.486 46.3545C120.821 47.4394 118.537 48.3874 117.012 46.9733C115.628 45.693 115.788 42.846 117.898 40.644C118.119 40.4168 118.389 40.6046 118.347 40.8138C118.146 41.813 118.39 42.8018 119.146 43.4937C120.07 44.3175 121.389 44.4156 122.518 43.8618C123.852 43.2023 124.635 41.9249 124.864 40.481C125.217 38.2313 123.487 36.2509 121.322 36.0927C119.566 35.9684 117.881 36.5802 116.239 37.9357C115.419 38.6193 114.948 39.12 114.238 40.1371C114.062 40.3864 113.796 40.4119 113.806 40.0446C113.887 37.17 112.698 35.5507 110.32 35.4996C108.474 35.4519 106.504 36.4573 104.967 37.6796C103.283 39.0295 101.811 40.8256 100.229 42.509C100.034 42.7155 99.8623 42.7058 99.8098 42.304C99.7615 40.3967 99.2809 38.551 98.3998 37.2404C98.0842 36.7853 97.431 36.5595 96.8793 36.8675C96.6245 37.0056 95.7392 37.4144 95.0901 37.935C94.7732 38.1995 94.6496 38.58 94.7877 39.0689C95.637 41.9193 95.4513 45.153 94.2967 47.8896C93.2388 50.3886 91.1783 52.6514 88.7546 53.4123C87.1616 53.9171 85.4995 53.6699 84.4727 52.255C83.0668 50.3009 83.6309 46.909 85.7357 44.089C87.5911 41.6038 90.273 40.0266 92.9481 39.0109C93.2637 38.8873 93.3293 38.6863 93.2388 38.4191C93.0938 37.9799 92.8625 37.3819 92.7672 37.1099C92.5228 36.4587 91.8329 36.3489 90.9933 36.4415C89.0495 36.6679 87.2962 37.3329 85.5637 38.261C81.0284 40.6902 78.7545 45.3906 77.756 47.9075C77.2775 49.118 76.8659 49.8693 76.3329 50.5398C75.6168 51.4388 74.7219 52.2564 73.0784 53.6982C72.9307 53.8315 72.8229 54.1056 72.9465 54.3632C73.1137 54.7098 73.9671 55.9141 74.2067 56.0232C74.4733 56.1558 74.784 55.9721 74.9104 55.8816C76.0587 55.1048 77.4335 53.8708 78.1054 53.0305C78.3409 52.7446 78.5833 52.8661 78.7096 53.2991C79.3352 55.5433 80.9794 57.3704 83.2512 58.1341C87.4129 59.5338 91.7273 57.5057 94.9831 53.973C97.0526 51.7247 97.7997 50.2781 98.5931 49.2975C99.9376 47.6306 102.591 43.9032 105.748 41.5126C106.908 40.6301 108.28 39.9576 108.967 40.405C109.521 40.7641 109.7 41.5934 108.81 43.2099C105.591 49.0931 100.851 56.0039 99.979 57.6749C99.8222 57.9663 99.9624 58.1969 100.266 58.1969C101.95 58.1887 103.623 58.1928 105.151 58.1928C105.407 58.1811 105.519 58.063 105.647 57.8835C108.121 54.0138 110.447 50.3326 112.941 46.5258C113.08 46.3041 113.208 46.4768 113.214 46.5714C113.264 47.4587 113.483 48.6643 114.006 49.4584C114.946 50.9251 116.282 51.5555 117.765 51.5666C118.943 51.5804 119.537 51.4009 120.81 50.9251C121.7 50.591 122.541 50.139 123.31 49.5813C123.681 49.3238 123.747 49.7581 123.738 49.8258C123.167 52.8965 123.87 56.5376 126.924 58.043C130.581 59.8452 134.592 57.3138 136.899 55.0288C137.126 54.8086 137.367 54.8293 137.391 55.3037C137.438 56.1813 137.835 57.215 138.557 57.9359C140.49 59.8784 144.397 59.1091 148.312 56.0777C150.83 54.1353 153.462 51.3912 155.844 48.4869C155.928 48.3736 155.997 48.1906 155.827 48.0111C155.467 47.632 154.942 47.1991 154.582 46.8635C154.417 46.7267 154.179 46.7661 154.037 46.8711C151.6 49.1871 149.408 51.8345 146.235 54.0179C145.165 54.7678 143.462 55.3693 142.695 54.3335C142.396 53.9316 142.431 53.3716 142.724 52.6438C143.652 50.3326 158.294 28.0427 159.052 26.7293ZM139.702 45.4203C139.734 45.5915 139.955 45.7559 140.175 45.836C140.249 45.8663 140.294 45.9174 140.204 46.0984C139.585 47.4338 139.012 48.201 138.232 49.3624C137.516 50.4328 136.705 51.2704 135.729 52.0734C134.252 53.295 132.201 54.6221 130.506 53.7279C129.753 53.3398 129.428 52.2861 129.445 51.4312C129.483 49.0317 130.545 46.5707 132.514 44.1511C134.917 41.1922 137.574 39.6586 139.317 40.4948C141.119 41.3552 140.544 43.444 139.738 45.0847C139.676 45.209 139.669 45.3181 139.702 45.4203Z" fill="white"/>
<path d="M52.8646 58.1086C47.406 58.1479 42.6 54.7706 42.0469 48.9343C41.741 45.6992 42.6553 42.8129 44.4865 40.4368C46.1106 38.3197 48.863 36.5616 51.1859 36.1307C51.9476 35.9933 52.964 36.0831 53.3866 36.583C54.0454 37.3516 53.8534 38.1968 53.1974 38.5317C51.4214 39.4376 49.2835 40.9906 48.2284 43.1091C47.3708 44.8354 47.1968 46.9242 48.5033 48.9088C50.6984 52.2164 56.8067 52.3096 62.4876 47.0299C63.8956 45.7365 65.1537 44.4957 66.4367 43.0283C68.9378 40.1647 69.7685 39.12 73.0954 34.508C73.1375 34.4562 73.1486 34.3872 73.1306 34.3526C73.1037 34.2926 73.0553 34.2753 72.958 34.2712C70.7393 34.3326 68.8018 34.9962 66.9222 36.4C66.3801 36.7943 65.5998 36.7384 65.2587 36.2191C64.8796 35.6308 65.151 34.865 65.7766 34.4341C68.8018 32.3308 72.1093 31.9469 75.4867 31.3758C75.4846 31.3758 75.7228 31.3855 75.9141 31.13C77.3 29.3526 78.3461 27.7478 79.8259 25.9469C81.3153 24.1226 83.2371 22.4502 84.7072 21.1872C86.7587 19.4222 88.0741 18.8291 89.411 18.102C89.7638 17.9169 89.3682 17.6966 89.2584 17.6966C81.7946 16.2956 74.038 14.4781 66.6273 17.2222C61.4919 19.1391 59.2408 23.2111 60.327 25.9297C61.0935 27.859 63.6325 28.1718 66.0079 27.0103C68.0829 25.9861 69.843 24.4209 71.1026 22.4798C71.8255 21.366 73.3502 22.1691 72.5264 24.1053C70.3582 29.2027 66.2151 33.2457 61.1688 33.4128C56.8717 33.5551 54.0992 30.396 54.1103 26.4966C54.1248 18.8056 62.6893 13.7399 71.6847 12.9818C82.5196 12.0882 92.7821 14.9746 103.538 16.279C111.781 17.2754 119.685 17.2961 127.968 15.3944C128.946 15.1818 129.636 15.8053 129.569 16.7948C129.488 18.2249 128.38 19.6011 125.654 21.0898C122.549 22.7933 119.306 23.3078 115.914 23.3375C107.715 23.4045 100.075 20.2094 92.1731 18.4928C92.1841 18.8374 92.2739 19.251 91.9839 19.4692C87.6073 22.6967 83.65 25.9773 80.9984 30.581C80.9107 30.6887 80.959 30.7882 81.113 30.7771C83.4138 30.6563 85.4854 30.5983 87.6315 30.4263C88.0058 30.3953 88.0196 30.3027 87.9885 30.0279C87.8 28.4404 88.262 26.6292 89.6582 25.3828C91.0862 24.1033 92.876 23.9582 94.0609 24.878C95.4095 25.9297 95.2908 27.821 94.5547 29.2393C93.8027 30.6777 92.5625 31.4442 91.3728 31.8164C91.3728 31.8164 91.1235 31.873 91.1608 32.1009C91.207 32.4613 92.8291 33.3617 92.9678 33.6014C93.1018 33.8272 93.0348 34.1807 92.7849 34.4507C92.6129 34.6468 92.3443 34.8325 92.0025 34.8277C91.7201 34.8215 91.553 34.7248 91.198 34.5301C90.4661 34.1379 89.5608 33.4902 88.9525 32.7244C88.7474 32.4675 88.6418 32.4606 88.1239 32.4896C85.801 32.625 82.1764 32.973 79.7189 33.2816C79.1264 33.3555 79.038 33.4667 78.9144 33.6697C74.9985 40.1288 70.8181 47.0913 66.2275 51.753C61.3027 56.7607 57.2079 58.0727 52.8646 58.1086ZM90.1768 29.4189C90.241 29.7489 90.368 29.8132 90.5186 29.7849C91.2637 29.6357 92.0785 29.0211 92.5632 28.3127C93.0051 27.667 93.2102 26.7355 92.7724 26.3613C92.3823 26.0277 91.7477 26.1244 91.2761 26.5394C90.3418 27.3673 90.058 28.5405 90.1768 29.4189Z" fill="white"/>
</g>
<defs>
<radialGradient id="paint0_radial_153_563" cx="0" cy="0" r="1" gradientUnits="userSpaceOnUse" gradientTransform="translate(99.6699 123.666) scale(430.687 218.746)">
<stop stop-color="#00082E"/>
<stop offset="0.155" stop-color="#000A30"/>
<stop offset="0.242" stop-color="#010F39"/>
<stop offset="0.312" stop-color="#011946"/>
<stop offset="0.373" stop-color="#02275A"/>
<stop offset="0.414" stop-color="#03346C"/>
<stop offset="0.439" stop-color="#0B4F87"/>
<stop offset="0.48" stop-color="#1676AF"/>
<stop offset="0.513" stop-color="#1C8EC7"/>
<stop offset="0.533" stop-color="#1F97D0"/>
<stop offset="1" stop-color="#1F97D0"/>
</radialGradient>
<linearGradient id="paint1_linear_153_563" x1="100.15" y1="75.7848" x2="100.15" y2="-0.353122" gradientUnits="userSpaceOnUse">
<stop stop-color="#00082E"/>
<stop offset="0.321" stop-color="#010A30"/>
<stop offset="0.501" stop-color="#030F39"/>
<stop offset="0.647" stop-color="#071846"/>
<stop offset="0.773" stop-color="#0D245A"/>
<stop offset="0.809" stop-color="#0F2961"/>
<stop offset="0.839" stop-color="#0B386E"/>
<stop offset="0.896" stop-color="#054E83"/>
<stop offset="0.951" stop-color="#015B90"/>
<stop offset="1" stop-color="#006094"/>
</linearGradient>
<linearGradient id="paint2_linear_153_563" x1="18175.3" y1="75.8027" x2="18175.3" y2="-0.4051" gradientUnits="userSpaceOnUse">
<stop stop-color="#00082E"/>
<stop offset="0.321" stop-color="#010A30"/>
<stop offset="0.501" stop-color="#030F39"/>
<stop offset="0.647" stop-color="#071846"/>
<stop offset="0.773" stop-color="#0D245A"/>
<stop offset="0.809" stop-color="#0F2961"/>
<stop offset="0.839" stop-color="#0B386E"/>
<stop offset="0.896" stop-color="#054E83"/>
<stop offset="0.951" stop-color="#015B90"/>
<stop offset="1" stop-color="#006094"/>
</linearGradient>
<linearGradient id="paint3_linear_153_563" x1="117.399" y1="62.8759" x2="117.399" y2="9.37994" gradientUnits="userSpaceOnUse">
<stop stop-color="#00082E"/>
<stop offset="0.321" stop-color="#010A30"/>
<stop offset="0.501" stop-color="#030F39"/>
<stop offset="0.647" stop-color="#071846"/>
<stop offset="0.773" stop-color="#0D245A"/>
<stop offset="0.809" stop-color="#0F2961"/>
<stop offset="0.839" stop-color="#0B386E"/>
<stop offset="0.896" stop-color="#054E83"/>
<stop offset="0.951" stop-color="#015B90"/>
<stop offset="1" stop-color="#006094"/>
</linearGradient>
<linearGradient id="paint4_linear_153_563" x1="139.98" y1="62.793" x2="139.98" y2="9.64801" gradientUnits="userSpaceOnUse">
<stop stop-color="#00082E"/>
<stop offset="0.321" stop-color="#010A30"/>
<stop offset="0.501" stop-color="#030F39"/>
<stop offset="0.647" stop-color="#071846"/>
<stop offset="0.773" stop-color="#0D245A"/>
<stop offset="0.809" stop-color="#0F2961"/>
<stop offset="0.839" stop-color="#0B386E"/>
<stop offset="0.896" stop-color="#054E83"/>
<stop offset="0.951" stop-color="#015B90"/>
<stop offset="1" stop-color="#006094"/>
</linearGradient>
<linearGradient id="paint5_linear_153_563" x1="143.254" y1="62.6394" x2="143.254" y2="9.75651" gradientUnits="userSpaceOnUse">
<stop stop-color="#00082E"/>
<stop offset="0.321" stop-color="#010A30"/>
<stop offset="0.501" stop-color="#030F39"/>
<stop offset="0.647" stop-color="#071846"/>
<stop offset="0.773" stop-color="#0D245A"/>
<stop offset="0.809" stop-color="#0F2961"/>
<stop offset="0.839" stop-color="#0B386E"/>
<stop offset="0.896" stop-color="#054E83"/>
<stop offset="0.951" stop-color="#015B90"/>
<stop offset="1" stop-color="#006094"/>
</linearGradient>
<linearGradient id="paint6_linear_153_563" x1="113.757" y1="62.9915" x2="113.757" y2="9.37096" gradientUnits="userSpaceOnUse">
<stop stop-color="#00082E"/>
<stop offset="0.321" stop-color="#010A30"/>
<stop offset="0.501" stop-color="#030F39"/>
<stop offset="0.647" stop-color="#071846"/>
<stop offset="0.773" stop-color="#0D245A"/>
<stop offset="0.809" stop-color="#0F2961"/>
<stop offset="0.839" stop-color="#0B386E"/>
<stop offset="0.896" stop-color="#054E83"/>
<stop offset="0.951" stop-color="#015B90"/>
<stop offset="1" stop-color="#006094"/>
</linearGradient>
<linearGradient id="paint7_linear_153_563" x1="134.969" y1="62.8676" x2="134.969" y2="9.45609" gradientUnits="userSpaceOnUse">
<stop stop-color="#00082E"/>
<stop offset="0.321" stop-color="#010A30"/>
<stop offset="0.501" stop-color="#030F39"/>
<stop offset="0.647" stop-color="#071846"/>
<stop offset="0.773" stop-color="#0D245A"/>
<stop offset="0.809" stop-color="#0F2961"/>
<stop offset="0.839" stop-color="#0B386E"/>
<stop offset="0.896" stop-color="#054E83"/>
<stop offset="0.951" stop-color="#015B90"/>
<stop offset="1" stop-color="#006094"/>
</linearGradient>
<linearGradient id="paint8_linear_153_563" x1="88.7745" y1="62.8291" x2="88.7745" y2="9.47365" gradientUnits="userSpaceOnUse">
<stop stop-color="#00082E"/>
<stop offset="0.321" stop-color="#010A30"/>
<stop offset="0.501" stop-color="#030F39"/>
<stop offset="0.647" stop-color="#071846"/>
<stop offset="0.773" stop-color="#0D245A"/>
<stop offset="0.809" stop-color="#0F2961"/>
<stop offset="0.839" stop-color="#0B386E"/>
<stop offset="0.896" stop-color="#054E83"/>
<stop offset="0.951" stop-color="#015B90"/>
<stop offset="1" stop-color="#006094"/>
</linearGradient>
<linearGradient id="paint9_linear_153_563" x1="111.829" y1="62.8687" x2="111.829" y2="9.41709" gradientUnits="userSpaceOnUse">
<stop stop-color="#00082E"/>
<stop offset="0.321" stop-color="#010A30"/>
<stop offset="0.501" stop-color="#030F39"/>
<stop offset="0.647" stop-color="#071846"/>
<stop offset="0.773" stop-color="#0D245A"/>
<stop offset="0.809" stop-color="#0F2961"/>
<stop offset="0.839" stop-color="#0B386E"/>
<stop offset="0.896" stop-color="#054E83"/>
<stop offset="0.951" stop-color="#015B90"/>
<stop offset="1" stop-color="#006094"/>
</linearGradient>
<linearGradient id="paint10_linear_153_563" x1="140.097" y1="62.9955" x2="140.097" y2="9.14048" gradientUnits="userSpaceOnUse">
<stop stop-color="#00082E"/>
<stop offset="0.321" stop-color="#010A30"/>
<stop offset="0.501" stop-color="#030F39"/>
<stop offset="0.647" stop-color="#071846"/>
<stop offset="0.773" stop-color="#0D245A"/>
<stop offset="0.809" stop-color="#0F2961"/>
<stop offset="0.839" stop-color="#0B386E"/>
<stop offset="0.896" stop-color="#054E83"/>
<stop offset="0.951" stop-color="#015B90"/>
<stop offset="1" stop-color="#006094"/>
</linearGradient>
<linearGradient id="paint11_linear_153_563" x1="121.944" y1="63.0437" x2="121.944" y2="9.32403" gradientUnits="userSpaceOnUse">
<stop stop-color="#00082E"/>
<stop offset="0.321" stop-color="#010A30"/>
<stop offset="0.501" stop-color="#030F39"/>
<stop offset="0.647" stop-color="#071846"/>
<stop offset="0.773" stop-color="#0D245A"/>
<stop offset="0.809" stop-color="#0F2961"/>
<stop offset="0.839" stop-color="#0B386E"/>
<stop offset="0.896" stop-color="#054E83"/>
<stop offset="0.951" stop-color="#015B90"/>
<stop offset="1" stop-color="#006094"/>
</linearGradient>
<linearGradient id="paint12_linear_153_563" x1="151.062" y1="62.8853" x2="151.062" y2="9.51605" gradientUnits="userSpaceOnUse">
<stop stop-color="#00082E"/>
<stop offset="0.321" stop-color="#010A30"/>
<stop offset="0.501" stop-color="#030F39"/>
<stop offset="0.647" stop-color="#071846"/>
<stop offset="0.773" stop-color="#0D245A"/>
<stop offset="0.809" stop-color="#0F2961"/>
<stop offset="0.839" stop-color="#0B386E"/>
<stop offset="0.896" stop-color="#054E83"/>
<stop offset="0.951" stop-color="#015B90"/>
<stop offset="1" stop-color="#006094"/>
</linearGradient>
<linearGradient id="paint13_linear_153_563" x1="99.5242" y1="62.9163" x2="99.5242" y2="9.40549" gradientUnits="userSpaceOnUse">
<stop stop-color="#00082E"/>
<stop offset="0.321" stop-color="#010A30"/>
<stop offset="0.501" stop-color="#030F39"/>
<stop offset="0.647" stop-color="#071846"/>
<stop offset="0.773" stop-color="#0D245A"/>
<stop offset="0.809" stop-color="#0F2961"/>
<stop offset="0.839" stop-color="#0B386E"/>
<stop offset="0.896" stop-color="#054E83"/>
<stop offset="0.951" stop-color="#015B90"/>
<stop offset="1" stop-color="#006094"/>
</linearGradient>
<linearGradient id="paint14_linear_153_563" x1="91.191" y1="62.8765" x2="91.191" y2="9.50001" gradientUnits="userSpaceOnUse">
<stop stop-color="#00082E"/>
<stop offset="0.321" stop-color="#010A30"/>
<stop offset="0.501" stop-color="#030F39"/>
<stop offset="0.647" stop-color="#071846"/>
<stop offset="0.773" stop-color="#0D245A"/>
<stop offset="0.809" stop-color="#0F2961"/>
<stop offset="0.839" stop-color="#0B386E"/>
<stop offset="0.896" stop-color="#054E83"/>
<stop offset="0.951" stop-color="#015B90"/>
<stop offset="1" stop-color="#006094"/>
</linearGradient>
<linearGradient id="paint15_linear_153_563" x1="50.8882" y1="62.8933" x2="50.8882" y2="9.47937" gradientUnits="userSpaceOnUse">
<stop stop-color="#00082E"/>
<stop offset="0.321" stop-color="#010A30"/>
<stop offset="0.501" stop-color="#030F39"/>
<stop offset="0.647" stop-color="#071846"/>
<stop offset="0.773" stop-color="#0D245A"/>
<stop offset="0.809" stop-color="#0F2961"/>
<stop offset="0.839" stop-color="#0B386E"/>
<stop offset="0.896" stop-color="#054E83"/>
<stop offset="0.951" stop-color="#015B90"/>
<stop offset="1" stop-color="#006094"/>
</linearGradient>
<linearGradient id="paint16_linear_153_563" x1="74.8002" y1="63.1963" x2="74.8002" y2="9.27647" gradientUnits="userSpaceOnUse">
<stop stop-color="#00082E"/>
<stop offset="0.321" stop-color="#010A30"/>
<stop offset="0.501" stop-color="#030F39"/>
<stop offset="0.647" stop-color="#071846"/>
<stop offset="0.773" stop-color="#0D245A"/>
<stop offset="0.809" stop-color="#0F2961"/>
<stop offset="0.839" stop-color="#0B386E"/>
<stop offset="0.896" stop-color="#054E83"/>
<stop offset="0.951" stop-color="#015B90"/>
<stop offset="1" stop-color="#006094"/>
</linearGradient>
<linearGradient id="paint17_linear_153_563" x1="67.8312" y1="62.8832" x2="67.8312" y2="9.4562" gradientUnits="userSpaceOnUse">
<stop stop-color="#00082E"/>
<stop offset="0.321" stop-color="#010A30"/>
<stop offset="0.501" stop-color="#030F39"/>
<stop offset="0.647" stop-color="#071846"/>
<stop offset="0.773" stop-color="#0D245A"/>
<stop offset="0.809" stop-color="#0F2961"/>
<stop offset="0.839" stop-color="#0B386E"/>
<stop offset="0.896" stop-color="#054E83"/>
<stop offset="0.951" stop-color="#015B90"/>
<stop offset="1" stop-color="#006094"/>
</linearGradient>
<linearGradient id="paint18_linear_153_563" x1="69.1088" y1="63.0086" x2="69.1088" y2="9.3954" gradientUnits="userSpaceOnUse">
<stop stop-color="#00082E"/>
<stop offset="0.321" stop-color="#010A30"/>
<stop offset="0.501" stop-color="#030F39"/>
<stop offset="0.647" stop-color="#071846"/>
<stop offset="0.773" stop-color="#0D245A"/>
<stop offset="0.809" stop-color="#0F2961"/>
<stop offset="0.839" stop-color="#0B386E"/>
<stop offset="0.896" stop-color="#054E83"/>
<stop offset="0.951" stop-color="#015B90"/>
<stop offset="1" stop-color="#006094"/>
</linearGradient>
<linearGradient id="paint19_linear_153_563" x1="105.451" y1="62.9168" x2="105.451" y2="9.45263" gradientUnits="userSpaceOnUse">
<stop stop-color="#00082E"/>
<stop offset="0.321" stop-color="#010A30"/>
<stop offset="0.501" stop-color="#030F39"/>
<stop offset="0.647" stop-color="#071846"/>
<stop offset="0.773" stop-color="#0D245A"/>
<stop offset="0.809" stop-color="#0F2961"/>
<stop offset="0.839" stop-color="#0B386E"/>
<stop offset="0.896" stop-color="#054E83"/>
<stop offset="0.951" stop-color="#015B90"/>
<stop offset="1" stop-color="#006094"/>
</linearGradient>
<linearGradient id="paint20_linear_153_563" x1="91.5629" y1="62.9301" x2="91.5629" y2="9.44338" gradientUnits="userSpaceOnUse">
<stop stop-color="#00082E"/>
<stop offset="0.321" stop-color="#010A30"/>
<stop offset="0.501" stop-color="#030F39"/>
<stop offset="0.647" stop-color="#071846"/>
<stop offset="0.773" stop-color="#0D245A"/>
<stop offset="0.809" stop-color="#0F2961"/>
<stop offset="0.839" stop-color="#0B386E"/>
<stop offset="0.896" stop-color="#054E83"/>
<stop offset="0.951" stop-color="#015B90"/>
<stop offset="1" stop-color="#006094"/>
</linearGradient>
<linearGradient id="paint21_linear_153_563" x1="93.3213" y1="62.8865" x2="93.3213" y2="9.48142" gradientUnits="userSpaceOnUse">
<stop stop-color="#00082E"/>
<stop offset="0.321" stop-color="#010A30"/>
<stop offset="0.501" stop-color="#030F39"/>
<stop offset="0.647" stop-color="#071846"/>
<stop offset="0.773" stop-color="#0D245A"/>
<stop offset="0.809" stop-color="#0F2961"/>
<stop offset="0.839" stop-color="#0B386E"/>
<stop offset="0.896" stop-color="#054E83"/>
<stop offset="0.951" stop-color="#015B90"/>
<stop offset="1" stop-color="#006094"/>
</linearGradient>
<linearGradient id="paint22_linear_153_563" x1="64.1656" y1="62.9929" x2="64.1656" y2="9.46094" gradientUnits="userSpaceOnUse">
<stop stop-color="#00082E"/>
<stop offset="0.321" stop-color="#010A30"/>
<stop offset="0.501" stop-color="#030F39"/>
<stop offset="0.647" stop-color="#071846"/>
<stop offset="0.773" stop-color="#0D245A"/>
<stop offset="0.809" stop-color="#0F2961"/>
<stop offset="0.839" stop-color="#0B386E"/>
<stop offset="0.896" stop-color="#054E83"/>
<stop offset="0.951" stop-color="#015B90"/>
<stop offset="1" stop-color="#006094"/>
</linearGradient>
<linearGradient id="paint23_linear_153_563" x1="78.4337" y1="92.8989" x2="55.3331" y2="6.68602" gradientUnits="userSpaceOnUse">
<stop stop-color="#A5A5A6"/>
<stop offset="0.35" stop-color="#D7D7D7"/>
<stop offset="0.65" stop-color="#D7D7D7"/>
<stop offset="1" stop-color="#A5A5A6"/>
</linearGradient>
<linearGradient id="paint24_linear_153_563" x1="139.036" y1="45.2318" x2="115.986" y2="-40.7917" gradientUnits="userSpaceOnUse">
<stop stop-color="#A5A5A6"/>
<stop offset="0.35" stop-color="#D7D7D7"/>
<stop offset="0.65" stop-color="#D7D7D7"/>
<stop offset="1" stop-color="#A5A5A6"/>
</linearGradient>
<clipPath id="clip0_153_563">
<rect width="200" height="74.96" fill="white" transform="translate(0.333008)"/>
</clipPath>
</defs>
</svg>
