<svg width="313" height="225" viewBox="0 0 313 225" fill="none" xmlns="http://www.w3.org/2000/svg">
<g clip-path="url(#clip0_153_603)">
<path d="M253.307 143.166C253.586 143.192 253.867 143.132 254.112 142.992C254.356 142.853 254.551 142.641 254.672 142.386C254.792 142.132 254.831 141.846 254.784 141.568C254.737 141.29 254.606 141.034 254.409 140.833C254.381 140.694 254.361 140.594 254.333 140.454C254.347 140.425 254.36 140.396 254.374 140.366C254.688 139.71 255.188 139.162 255.811 138.79C256.434 138.418 257.153 138.239 257.878 138.275C258.602 138.312 259.3 138.562 259.883 138.995C260.466 139.428 260.908 140.024 261.155 140.708C262.139 143.439 263.427 146.189 263.643 149.039C263.738 150.298 263.615 151.564 263.278 152.781C266.148 147.203 267.788 141.071 268.088 134.802C268.161 133.228 268.147 131.652 268.045 130.08C267.961 128.792 267.82 127.509 267.622 126.234C266.544 119.312 263.845 112.746 259.745 107.074C257.692 105.823 256.07 103.97 255.099 101.766C254.747 100.973 254.511 100.134 254.399 99.2733C254.635 99.3157 254.875 99.3465 255.112 99.3732C255.186 99.3806 255.264 99.3881 255.338 99.3955L255.366 99.3981C255.626 99.422 255.888 99.3699 256.12 99.2479C256.352 99.126 256.544 98.9395 256.672 98.7108C256.801 98.4821 256.861 98.221 256.845 97.9589C256.829 97.6968 256.738 97.445 256.583 97.2337C256.486 97.1022 256.389 96.9708 256.292 96.8394C256.145 96.6367 255.994 96.4378 255.848 96.2351C255.831 96.2157 255.815 96.1953 255.8 96.1741C255.631 95.943 255.462 95.7157 255.293 95.4846C255.644 94.9906 256.104 94.5845 256.637 94.298C258.482 93.3267 260.926 94.1732 262.148 95.8635C263.374 97.5539 263.513 99.8517 262.966 101.867C262.442 103.578 261.63 105.188 260.567 106.627C260.658 106.756 260.754 106.882 260.846 107.012C262.52 109.392 263.957 111.93 265.137 114.591C264.956 111.664 265.471 108.734 266.638 106.045C267.811 103.542 269.888 101.485 271.731 99.3607C273.945 96.8085 278.179 98.1651 278.391 101.541C278.394 101.574 278.395 101.607 278.397 101.639C278.132 101.774 277.872 101.917 277.616 102.07C277.296 102.264 277.041 102.55 276.885 102.892C276.73 103.234 276.681 103.615 276.744 103.985C276.808 104.355 276.982 104.697 277.243 104.967C277.505 105.236 277.841 105.42 278.208 105.494L278.245 105.502C278.11 106.432 277.904 107.351 277.63 108.25C276.839 110.759 275.541 113.077 273.815 115.059C272.09 117.04 269.975 118.643 267.603 119.767C267.447 119.838 267.295 119.909 267.14 119.976C268.275 123.753 268.915 127.661 269.045 131.603C269.114 133.929 268.995 136.256 268.69 138.562L268.706 138.481C269.324 135.929 270.801 133.67 272.888 132.084C275.986 129.766 280.243 129.057 283.553 127.231C283.906 127.027 284.309 126.928 284.715 126.946C285.122 126.964 285.515 127.098 285.848 127.333C286.181 127.568 286.44 127.893 286.595 128.27C286.749 128.648 286.793 129.062 286.721 129.464C286.716 129.492 286.71 129.521 286.704 129.549C286.215 129.723 285.737 129.927 285.274 130.16C285.008 130.294 284.748 130.438 284.493 130.59C284.172 130.784 283.917 131.071 283.762 131.413C283.606 131.754 283.557 132.135 283.621 132.506C283.685 132.876 283.859 133.218 284.12 133.487C284.381 133.757 284.717 133.941 285.084 134.015L285.122 134.023C285.149 134.028 285.172 134.033 285.199 134.038C284.288 135.963 283.054 137.717 281.55 139.222C279.694 141.042 277.486 142.462 275.063 143.396C272.64 144.331 270.053 144.759 267.459 144.654L267.455 144.654C266.609 147.689 265.45 150.627 263.998 153.422L253.127 152.915C253.094 152.792 253.065 152.665 253.035 152.542C254.038 152.653 255.051 152.639 256.051 152.503C255.291 151.472 254.531 150.434 253.77 149.404C253.753 149.385 253.737 149.364 253.722 149.343C253.337 148.816 252.947 148.292 252.562 147.765L252.562 147.765C252.612 146.206 252.862 144.661 253.306 143.167L253.307 143.166Z" fill="#F2F2F2"/>
<path d="M34.2676 48.8799C33.9899 48.9232 33.7057 48.8798 33.4534 48.7557C33.2011 48.6316 32.993 48.4327 32.8572 48.1859C32.7213 47.9391 32.6644 47.6565 32.6942 47.3762C32.7239 47.0959 32.8388 46.8316 33.0233 46.619C33.0428 46.4783 33.0568 46.3773 33.0763 46.2366C33.0607 46.2081 33.0452 46.1797 33.0295 46.1512C32.6761 45.5159 32.1434 44.9994 31.4984 44.6667C30.8533 44.334 30.1246 44.1999 29.4038 44.2813C28.683 44.3626 28.0022 44.6558 27.447 45.124C26.8918 45.5922 26.4868 46.2145 26.2831 46.9127C25.4684 49.6997 24.3527 52.5242 24.3124 55.3814C24.2952 56.6443 24.4964 57.9006 24.9073 59.0945C21.6995 53.7048 19.6847 47.6863 18.9993 41.4471C18.8289 39.8813 18.746 38.3071 18.7508 36.732C18.756 35.4406 18.8177 34.1522 18.9359 32.8668C19.5856 25.8917 21.8755 19.1707 25.6178 13.2556C27.5902 11.8793 29.0947 9.92959 29.9283 7.66927C30.231 6.85643 30.4148 6.00393 30.4739 5.13829C30.2407 5.19521 30.0024 5.24088 29.7676 5.28223C29.6943 5.29414 29.6172 5.3065 29.5439 5.31844L29.5163 5.32272C29.2576 5.36279 28.9928 5.32699 28.7539 5.21966C28.5151 5.11232 28.3122 4.93801 28.1698 4.71772C28.0274 4.49743 27.9515 4.24054 27.9512 3.97799C27.951 3.71543 28.0264 3.45841 28.1684 3.23786C28.2569 3.10065 28.3454 2.96349 28.434 2.82639C28.568 2.61499 28.7064 2.40706 28.8404 2.19569C28.8563 2.17526 28.871 2.15393 28.8845 2.13181C29.0388 1.89065 29.1935 1.65339 29.3479 1.41223C28.9673 0.940862 28.4833 0.564041 27.9337 0.31114C26.0321 -0.543973 23.6447 0.452398 22.5293 2.21517C21.41 3.97833 21.4125 6.28034 22.082 8.25764C22.7114 9.93366 23.6205 11.49 24.7706 12.86C24.6871 12.9951 24.5993 13.1266 24.5159 13.2617C22.9916 15.7406 21.7132 18.3635 20.699 21.0925C20.6995 18.1591 20.0056 15.2674 18.6745 12.6554C17.3495 10.2303 15.1503 8.30603 13.1798 6.29955C10.8129 3.88946 6.67059 5.50588 6.6665 8.88883C6.66646 8.92159 6.6665 8.95432 6.66663 8.98703C6.93974 9.10457 7.20839 9.23164 7.47258 9.36824C7.80468 9.54195 8.07674 9.81222 8.25308 10.1437C8.42943 10.4751 8.50184 10.8522 8.46084 11.2256C8.41984 11.5991 8.26734 11.9513 8.02331 12.2363C7.77928 12.5213 7.45511 12.7258 7.09327 12.8228L7.05622 12.8328C7.24877 13.753 7.51077 14.6571 7.83998 15.5375C8.7835 17.9925 10.2225 20.2255 12.0668 22.0966C13.911 23.9677 16.1208 25.4364 18.5575 26.4107C18.7172 26.472 18.873 26.5337 19.0322 26.5911C18.1323 30.4308 17.734 34.3715 17.8473 38.3142C17.9216 40.6395 18.1832 42.9549 18.6295 45.2379L18.6091 45.1575C17.8348 42.6492 16.2212 40.4857 14.0408 39.0325C10.8062 36.91 6.51356 36.4668 3.09701 34.8498C2.7328 34.6677 2.32427 34.5938 1.9196 34.637C1.51494 34.6801 1.13101 34.8385 0.813109 35.0933C0.495207 35.3481 0.256586 35.6888 0.125394 36.0752C-0.00579873 36.4615 -0.024094 36.8775 0.0726682 37.2739C0.0800645 37.3021 0.0875383 37.3302 0.0950838 37.3584C0.593754 37.5014 1.08305 37.6753 1.56015 37.8793C1.83327 37.9969 2.10191 38.124 2.36609 38.2606C2.6982 38.4343 2.97025 38.7045 3.1466 39.036C3.32295 39.3674 3.39536 39.7445 3.35436 40.118C3.31336 40.4914 3.16086 40.8437 2.91683 41.1287C2.6728 41.4137 2.34863 41.6181 1.98679 41.7152L1.94971 41.7251C1.923 41.7319 1.90014 41.7384 1.87347 41.7452C2.90127 43.6102 4.24145 45.2838 5.83532 46.6928C7.80008 48.3944 10.0906 49.6756 12.5666 50.4577C15.0425 51.2399 17.6517 51.5066 20.234 51.2415L20.2379 51.2411C21.2695 54.2179 22.6068 57.0791 24.2282 59.7786L35.0471 58.5983C35.0729 58.4735 35.0942 58.3452 35.1161 58.2208C34.1215 58.3932 33.1096 58.4428 32.103 58.3685C32.7986 57.293 33.4933 56.2097 34.1889 55.1343C34.2048 55.1138 34.2195 55.0925 34.233 55.0704C34.5853 54.5204 34.9419 53.9738 35.2943 53.4238L35.2944 53.4231C35.148 51.8709 34.803 50.344 34.2679 48.8801L34.2676 48.8799Z" fill="#F2F2F2"/>
<path d="M183.741 44.8585C184.276 45.0063 184.773 45.27 185.196 45.6312C185.619 45.9923 185.957 46.4421 186.188 46.9487C186.419 47.4554 186.536 48.0067 186.532 48.5638C186.527 49.1208 186.401 49.6701 186.162 50.1729L191.968 56.647L188.906 61.1453L180.835 51.8871C180.019 51.4283 179.4 50.6853 179.094 49.799C178.788 48.9127 178.817 47.9446 179.175 47.0783C179.533 46.2119 180.196 45.5074 181.037 45.0983C181.879 44.6892 182.841 44.6039 183.741 44.8585Z" fill="#A0616A"/>
<path d="M238.093 60.7558C237.57 59.9013 236.883 59.1589 236.073 58.5711C235.263 57.9833 234.345 57.5617 233.372 57.3305C232.4 57.0993 231.391 57.063 230.404 57.2236C229.417 57.3843 228.471 57.7388 227.621 58.2668L208.528 70.128L187.931 52.5677L182.807 57.3531L205.56 86.9627L235.132 71.4999C234.442 71.8608 238.927 62.1172 238.093 60.7558Z" fill="#CCCCCC"/>
<path d="M200.268 100.195C200.27 109.653 198.414 119.019 194.806 127.758C191.198 136.497 185.909 144.437 179.241 151.125C172.573 157.813 164.656 163.118 155.944 166.737C147.231 170.355 137.893 172.217 128.463 172.215C88.807 172.215 56.6585 139.97 56.6585 100.195C56.6516 92.4577 57.8882 84.7703 60.3205 77.4281C65.096 63.0889 74.2447 50.6182 86.473 41.7795C98.7014 32.9408 113.39 28.1813 128.463 28.1741C141.462 28.1696 154.219 31.7058 165.371 38.4053C176.523 45.1047 185.652 54.7159 191.783 66.2129C193.303 69.0495 194.629 71.9865 195.752 75.0035C195.908 75.4236 196.059 75.8437 196.207 76.2678V76.2718C196.865 78.1363 197.445 80.0355 197.946 81.9694C199.493 87.9202 200.273 94.0451 200.268 100.195Z" fill="#3F3D56"/>
<path d="M120.607 51.6033C117.38 49.853 113.797 48.865 110.132 48.7146C106.467 48.5642 102.815 49.2553 99.4567 50.7353C96.4995 52.0262 93.3857 54.3418 92.3992 58.5234C96.389 56.1617 101.554 59.8932 102.581 65.8795L102.341 65.9457C101.799 70.092 103.009 74.6062 105.353 77.1772C105.661 74.5067 107.411 72.6891 109.133 71.5538C110.855 70.4184 112.76 69.5937 114.074 67.6421C115.632 65.3285 116.028 61.9472 116.647 58.8627C117.266 55.7781 118.44 52.4628 120.607 51.6033Z" fill="white"/>
<path d="M98.2733 86.8868C97.1683 88.5513 95.6923 89.5956 94.3679 90.896C93.0476 92.2004 91.7909 93.9608 91.5277 96.2215C91.3601 97.6699 91.6194 99.1423 91.5835 100.607C91.5476 102.071 91.0609 103.72 90.0676 104.084C88.4999 104.652 87.3031 101.731 85.6915 101.527C84.411 101.367 83.2582 103.388 83.6291 105.14C84.0001 106.893 85.7434 107.669 86.7447 106.524C87.6502 108.049 87.0119 110.814 85.6517 111.282C85.508 112.242 85.3645 113.198 85.2248 114.159C81.7862 111.746 78.3116 109.293 75.3876 105.76C72.1355 101.864 70.1185 97.0823 69.5953 92.0283C69.2164 87.9671 69.7788 83.3218 67.9199 80.197C66.4319 77.6963 63.8788 77.144 61.5811 77.3001C61.1623 77.3281 60.7394 77.3761 60.3206 77.4282C61.6756 73.346 63.3967 69.3954 65.4625 65.6248C65.9301 65.4235 66.3645 65.1524 66.751 64.8206C68.8892 63.0001 69.8387 59.315 71.5739 56.7662C71.6856 56.6022 71.8013 56.4421 71.921 56.2861C73.6962 53.9614 76.0737 52.7651 78.3715 51.6528C83.4576 49.1761 88.6914 46.6674 94.0608 47.0115L92.533 47.1595C90.7498 52.1689 88.9653 57.1784 87.1795 62.1878C86.9082 62.956 86.6343 63.7255 86.3578 64.4965C85.3445 67.3452 84.2993 70.3781 84.4549 73.567C84.5467 75.4555 85.2009 77.4721 86.4455 78.1203C87.6063 78.7205 88.8749 77.9843 89.9958 77.2561C90.4705 76.952 90.9413 76.6479 91.416 76.3398C93.1193 75.2395 95.0062 74.1112 96.8053 74.8474C98.4528 75.5196 99.6695 77.7642 99.9009 80.1849C100.113 82.538 99.5406 84.8952 98.2733 86.8868Z" fill="white"/>
<path d="M108.404 121.087C103.429 118.015 98.4543 114.943 93.4794 111.871L93.5639 111.652C90.4707 112.834 89.1866 118.349 89.6977 122.859C90.2089 127.369 91.9422 131.4 92.8179 135.794C93.9986 141.808 93.5529 148.029 91.5272 153.811C98.0689 146.449 103.858 138.448 108.808 129.927C109.5 128.853 110.027 127.681 110.371 126.45C110.688 125.141 110.639 123.567 110.006 122.517C109.599 121.914 109.048 121.423 108.404 121.087Z" fill="white"/>
<path d="M88.77 65.1934C88.2418 66.3847 88.0385 67.9732 88.5179 69.2058C89.0075 70.4647 90.0425 71.0337 90.9954 71.5073L93.7442 72.874C94.6587 73.3286 95.6444 73.7878 96.5767 73.4138C97.7011 72.9626 98.4807 71.1945 98.279 69.5531C98.0644 67.8064 96.9667 66.6049 95.9515 65.5818C94.5308 64.15 93.1101 62.7182 91.6894 61.2864L90.8887 62.27C90.0227 63.1172 89.3063 64.1057 88.77 65.1934Z" fill="white"/>
<path d="M185.532 83.8659C186.769 84.158 188.005 84.4501 189.242 84.7421C189.026 88.9314 186.956 92.8085 184.18 94.2128C183.023 94.797 181.734 95.0131 180.777 96.1054C179.911 97.0977 179.472 98.6421 179.069 100.119C178.363 102.695 177.657 105.272 176.951 107.849C176.193 110.626 175.22 113.71 173.249 114.711C171.558 115.571 169.623 114.519 168.323 112.754C167.022 110.99 166.228 108.617 165.459 106.304C165.506 108.825 164.338 111.298 162.682 112.174C161.023 113.05 159.004 112.258 157.895 110.301C157.097 108.897 156.766 107.044 155.984 105.62C155.202 104.196 153.563 103.379 152.709 104.716C152.147 105.604 152.218 106.964 151.939 108.093C151.504 109.845 150.188 110.946 148.884 111.042C147.583 111.138 146.315 110.385 145.226 109.365C142.98 107.253 141.324 103.9 140.682 100.175C140.399 98.5141 140.319 96.7056 140.81 95.1491C141.3 93.5927 142.485 92.3924 143.662 92.6884C144.436 91.0479 142.908 88.8713 141.532 89.0634C140.151 89.2554 139.07 90.7398 137.937 91.8802C136.808 93.0205 135.229 93.8487 134.092 92.7164C134.1 93.7687 133.246 94.4649 132.508 94.3769C131.774 94.2929 131.12 93.7007 130.446 93.2806C127.841 91.6521 124.534 92.7324 122.683 95.8133C123.84 90.8759 125.535 85.2103 129.089 84.0499C130.542 83.5738 132.125 83.9659 133.497 83.1417C135.927 81.6813 136.418 76.1637 134.319 73.887C134.586 76.0396 134.535 78.5523 133.402 80.0248C132.269 81.4972 129.891 80.5369 130.035 78.3603C129.708 79.8607 128.08 80.0888 127.33 78.9364C126.576 77.7842 126.64 75.8996 127.175 74.5232C127.709 73.1468 128.619 72.1585 129.5 71.2103C131.395 69.1737 133.318 67.1131 135.512 65.8327C137.71 64.5524 140.247 64.1203 142.449 65.3926C143.61 66.0648 144.631 67.1851 145.816 67.7773C147.001 68.3734 148.505 68.2975 149.291 66.905C150.172 65.3526 149.757 63.0479 150.084 61.1074C150.671 57.6784 154.089 56.074 155.984 58.3386C154.568 57.9745 153.104 59.655 152.929 61.6916C152.749 63.7281 153.774 65.7847 155.147 66.4009C157.452 67.4252 159.71 64.8484 161.453 62.4638C163.272 59.9671 165.094 57.4717 166.919 54.9777C167.21 54.553 167.537 54.1541 167.896 53.7853C168.467 53.2267 169.229 52.9068 170.027 52.8905C170.824 52.8741 171.599 53.1626 172.192 53.6973C174.035 55.2057 174.901 58.2986 176.413 60.4272C178.607 63.5201 181.89 64.2723 184.946 64.8725C187.223 65.3166 189.502 65.7634 191.783 66.2128C193.303 69.0494 194.629 71.9864 195.752 75.0034C191.891 76.6478 188.328 79.7247 185.532 83.8659Z" fill="white"/>
<path d="M192.896 132.008C191.187 135.488 189.199 138.824 186.952 141.983C185.516 141.366 183.972 142.467 182.628 143.499C181.224 144.579 179.536 145.632 178.096 144.647C176.624 143.639 176.15 140.818 176.616 138.582C177.083 136.349 178.248 134.572 179.377 132.884C180.574 131.091 181.854 129.231 183.518 128.535C185.185 127.838 187.327 128.823 187.814 131.199L188.995 131.159C188.332 130.247 188.68 128.359 189.569 128.027C190.594 127.638 191.484 129.051 192.09 130.299C192.361 130.863 192.637 131.432 192.896 132.008Z" fill="white"/>
<path d="M147.673 115.107C145.135 115.267 143.124 112.133 141.788 109.05C140.452 105.967 139.233 102.442 136.943 100.873C135.635 99.9759 134.143 99.8529 132.724 99.4184C131.304 98.9839 129.819 98.0849 129.14 96.2539L127.53 95.6016C125.404 96.8007 123.25 98.0218 121.418 99.9732C119.363 102.162 118.083 104.969 117.775 107.96C117.468 111.192 118.603 114.796 120.725 116.011C122.402 116.97 124.354 116.365 126.053 117.244C128.175 118.341 129.435 121.529 129.912 124.676C130.388 127.824 130.268 131.095 130.609 134.278C130.95 137.461 131.89 140.773 133.836 142.405C136.272 144.446 139.845 142.75 140.938 139.034C141.474 137.211 141.455 135.154 141.856 133.262C142.562 129.93 144.467 127.458 145.977 124.725C147.488 121.991 148.677 118.279 147.673 115.107Z" fill="white"/>
<path d="M122.593 82.3653C122.83 82.5838 123.051 82.819 123.254 83.069C123.465 83.433 123.572 83.8477 123.565 84.2685C123.558 84.6892 123.436 85.1 123.214 85.4566C123.519 85.4391 123.818 85.3582 124.091 85.2191C124.364 85.0799 124.605 84.8855 124.799 84.6481C125.263 84.1189 125.67 83.5432 126.015 82.9301C126.274 82.5067 126.55 81.9343 126.374 81.4314C126.254 81.0882 125.971 80.9418 125.772 80.6837C125.457 80.2746 125.379 79.6248 125.216 79.0633C124.863 77.8505 124.02 76.9587 123.104 76.8312L123.231 76.8556C122.849 76.9871 122.581 77.5964 122.666 78.1447C122.743 78.6439 123.063 79.0585 123.031 79.5677C122.985 80.2999 122.256 80.6436 122.211 81.3759C122.204 81.7433 122.341 82.0987 122.593 82.3653Z" fill="white"/>
<path d="M118.245 69.9216C118.248 69.9206 118.252 69.9204 118.256 69.9194C118.334 69.848 118.406 69.7707 118.473 69.688L118.245 69.9216Z" fill="#E6E6E6"/>
<path d="M119.006 73.3588C119.567 72.9968 119.88 71.9959 119.695 71.1581C119.51 70.3254 118.858 69.7657 118.256 69.9194C118.081 70.097 117.865 70.2271 117.626 70.2975C117.388 70.3679 117.135 70.3764 116.892 70.3221C116.52 70.226 116.112 69.9785 115.789 70.2597C115.604 70.4697 115.475 70.7228 115.413 70.9958C115.294 71.3636 115.174 71.7314 115.055 72.0992C114.998 72.2309 114.983 72.3769 115.012 72.5173C115.035 72.5736 115.072 72.623 115.12 72.6608C115.167 72.6987 115.223 72.7236 115.283 72.7333C116 72.9452 116.717 73.1572 117.433 73.3691C117.956 73.5235 118.52 73.6723 119.006 73.3588Z" fill="white"/>
<path d="M173.115 120.812C172.784 120.268 172.453 119.724 172.121 119.18C171.796 118.55 171.351 117.989 170.812 117.53C170.693 117.431 170.556 117.356 170.408 117.31C170.26 117.264 170.105 117.249 169.951 117.264C169.797 117.28 169.647 117.326 169.512 117.4C169.376 117.474 169.256 117.575 169.159 117.696L169.2 118.007C169.955 118.957 170.754 120.013 170.946 121.423C171.021 121.979 170.995 122.555 171.061 123.113C171.127 123.672 171.316 124.251 171.675 124.492C172.197 124.841 172.809 124.326 173.18 123.697C173.512 123.18 173.661 122.567 173.603 121.955C173.52 121.544 173.354 121.155 173.115 120.812Z" fill="white"/>
<path d="M187.861 100.033C187.956 99.4029 188.052 98.7726 188.148 98.1424C188.304 97.4501 188.323 96.7341 188.205 96.0344C188.178 95.8816 188.121 95.7356 188.038 95.6052C187.954 95.4748 187.845 95.3625 187.717 95.2749C187.589 95.1873 187.446 95.1262 187.294 95.0951C187.142 95.0641 186.986 95.0638 186.835 95.0942L186.666 95.3581C186.633 96.5729 186.567 97.8966 185.808 99.0994C185.509 99.5736 185.119 99.9969 184.811 100.467C184.503 100.937 184.276 101.502 184.396 101.918C184.571 102.522 185.37 102.524 186.058 102.282C186.644 102.101 187.152 101.728 187.5 101.223C187.7 100.855 187.823 100.45 187.861 100.033Z" fill="#E6E6E6"/>
<path d="M178.313 121.52C178.475 121.053 178.241 120.517 178.192 120.001C178.168 119.334 178.344 118.676 178.697 118.11C179.048 117.577 179.314 116.992 179.486 116.377C179.558 116.097 179.545 115.801 179.448 115.528C179.338 115.281 179.073 115.168 178.92 115.364L179.246 115.575C178.806 115.496 178.354 115.518 177.923 115.639C177.677 115.733 177.458 115.885 177.283 116.083C177.109 116.28 176.984 116.517 176.92 116.773C176.866 117.172 176.778 117.565 176.657 117.949C176.463 118.35 176.086 118.484 175.85 118.836C175.688 119.148 175.607 119.495 175.613 119.846C175.618 120.198 175.711 120.542 175.883 120.849C176.18 121.35 176.652 121.723 177.208 121.894C177.606 122.037 178.131 122.045 178.313 121.52Z" fill="white"/>
<path d="M187.569 124.321C187.713 124.697 187.905 125.052 188.142 125.377C188.585 125.824 189.187 125.549 189.725 125.44C190.213 125.363 190.712 125.42 191.171 125.604C191.629 125.789 192.029 126.094 192.329 126.488C192.12 125.445 191.665 124.468 191.002 123.638C190.339 122.808 189.487 122.15 188.517 121.718C187.25 121.2 185.915 121.15 184.598 121.104L184.37 121.162C184.95 122.856 186.771 122.818 187.569 124.321Z" fill="white"/>
<path d="M148.367 127.785L148.37 127.792C148.392 127.75 148.414 127.707 148.437 127.664L148.367 127.785Z" fill="#E6E6E6"/>
<path d="M146.963 130.511C146.657 131.068 146.393 131.649 146.175 132.246C145.886 133.215 145.695 134.21 145.604 135.216C145.533 135.789 145.511 136.52 145.868 136.799C145.971 136.867 146.095 136.895 146.217 136.879C146.339 136.862 146.451 136.802 146.532 136.708C146.73 136.497 146.893 136.255 147.013 135.991C147.715 134.777 148.261 133.479 148.636 132.126C148.978 130.702 148.975 129.025 148.37 127.792C147.901 128.698 147.432 129.605 146.963 130.511Z" fill="white"/>
<path d="M133.417 57.8838C133.64 58.1025 133.922 58.2509 134.228 58.3109C134.534 58.3708 134.851 58.3396 135.14 58.2211C135.738 57.959 136.286 57.5957 136.761 57.1471C137.154 56.8552 137.488 56.4902 137.743 56.0719C137.884 55.8219 137.975 55.5465 138.009 55.2614C138.044 54.9763 138.022 54.6872 137.945 54.4107C137.723 53.7595 137.159 53.5412 136.662 53.3934C135.867 53.1568 135.071 52.9201 134.276 52.6835L134.851 52.1633C134.259 51.8445 133.604 52.4361 133.234 53.1684C132.996 53.6466 132.831 54.1574 132.743 54.6842C132.545 55.8337 132.738 57.2025 133.417 57.8838Z" fill="#E6E6E6"/>
<path d="M147.463 53.1544C147.687 53.4024 147.997 53.5554 148.329 53.5826C148.662 53.6097 148.993 53.5089 149.254 53.3006C149.479 53.1312 149.665 52.9162 149.802 52.6696C149.938 52.423 150.022 52.1503 150.046 51.8693C150.102 51.2417 149.793 50.544 149.351 50.4898L149.452 49.9022C148.601 49.748 147.553 49.7171 147.097 50.754C146.943 51.1512 146.896 51.5819 146.96 52.0032C147.024 52.4244 147.198 52.8214 147.463 53.1544Z" fill="#E6E6E6"/>
<path d="M145.586 21.9035C140.596 21.3389 135.586 22.7859 131.659 25.9262C127.732 29.0665 125.209 33.6429 124.646 38.6486C123.474 49.0725 128.949 71.7082 138.931 81.0784C143.632 63.1258 160.102 52.4773 162.281 42.9066C164.61 32.68 155.979 23.0793 145.586 21.9035Z" fill="#E33A3A"/>
<path d="M142.135 45.0769C145.546 45.0769 148.311 42.3035 148.311 38.8824C148.311 35.4612 145.546 32.6879 142.135 32.6879C138.724 32.6879 135.959 35.4612 135.959 38.8824C135.959 42.3035 138.724 45.0769 142.135 45.0769Z" fill="white"/>
<path d="M135.641 90.01C137.875 90.01 139.686 88.1935 139.686 85.9528C139.686 83.712 137.875 81.8955 135.641 81.8955C133.407 81.8955 131.596 83.712 131.596 85.9528C131.596 88.1935 133.407 90.01 135.641 90.01Z" fill="#E33A3A"/>
<path opacity="0.2" d="M147.245 34.4443C147.94 34.8633 148.546 35.4155 149.028 36.0694C149.511 36.7234 149.86 37.4662 150.056 38.2555C150.252 39.0448 150.292 39.8651 150.172 40.6696C150.052 41.4741 149.775 42.2471 149.357 42.9444C148.94 43.6416 148.389 44.2495 147.737 44.7334C147.085 45.2172 146.345 45.5675 145.558 45.7643C143.968 46.1617 142.287 45.9096 140.883 45.0634C142.314 45.3828 143.812 45.1808 145.109 44.4936C146.405 43.8064 147.416 42.6787 147.959 41.3126C148.503 39.9464 148.543 38.4309 148.075 37.0372C147.606 35.6436 146.658 34.4628 145.4 33.7062C146.051 33.8508 146.673 34.1001 147.245 34.4443Z" fill="#231F20"/>
<path opacity="0.2" d="M162.305 42.9266C160.126 52.4973 143.656 63.1458 138.956 81.0984C138.017 80.2087 137.145 79.2506 136.347 78.2319C141.629 61.357 157.074 51.1031 159.179 41.8561C161.064 33.5799 155.77 25.7144 148.174 22.3918C157.369 24.7102 164.439 33.5549 162.305 42.9266Z" fill="#231F20"/>
<path d="M87.7116 46.0735C83.9637 45.6495 80.2014 46.7361 77.2523 49.0944C74.3033 51.4527 72.409 54.8894 71.9862 58.6485C71.1059 66.4764 75.2175 83.4751 82.7139 90.5118C86.2436 77.03 98.6123 69.0334 100.249 61.8461C101.998 54.1663 95.5161 46.9565 87.7116 46.0735Z" fill="#E33A3A"/>
<path d="M85.1196 63.4759C87.6811 63.4759 89.7575 61.3932 89.7575 58.824C89.7575 56.2549 87.6811 54.1722 85.1196 54.1722C82.5582 54.1722 80.4817 56.2549 80.4817 58.824C80.4817 61.3932 82.5582 63.4759 85.1196 63.4759Z" fill="white"/>
<path d="M80.2431 97.2192C81.9208 97.2192 83.2808 95.855 83.2808 94.1723C83.2808 92.4896 81.9208 91.1254 80.2431 91.1254C78.5654 91.1254 77.2053 92.4896 77.2053 94.1723C77.2053 95.855 78.5654 97.2192 80.2431 97.2192Z" fill="#E33A3A"/>
<path opacity="0.2" d="M88.957 55.4912C89.479 55.8059 89.9341 56.2206 90.2964 56.7116C90.6587 57.2027 90.921 57.7605 91.0683 58.3533C91.2156 58.946 91.2451 59.562 91.1551 60.1662C91.065 60.7704 90.8572 61.3508 90.5435 61.8745C90.2298 62.3981 89.8164 62.8546 89.3268 63.2179C88.8372 63.5813 88.281 63.8444 87.6901 63.9921C87.0991 64.1399 86.4849 64.1695 85.8826 64.0792C85.2802 63.9889 84.7015 63.7805 84.1794 63.4658C85.2544 63.7057 86.3794 63.554 87.3531 63.0379C88.3267 62.5218 89.0855 61.675 89.4935 60.649C89.9016 59.6231 89.9323 58.485 89.5802 57.4384C89.228 56.3918 88.5161 55.5051 87.5717 54.937C88.0602 55.0455 88.528 55.2327 88.957 55.4912Z" fill="#231F20"/>
<path opacity="0.2" d="M100.267 61.8612C98.6305 69.0484 86.2619 77.0451 82.7322 90.5269C82.0272 89.8587 81.3724 89.1392 80.7732 88.3742C84.7395 75.7017 96.3384 68.0014 97.9196 61.0572C99.3349 54.842 95.3594 48.9354 89.655 46.4402C96.5602 48.1812 101.87 54.8233 100.267 61.8612Z" fill="#231F20"/>
<path d="M232.915 214.589H227.823L225.4 194.888L232.916 194.889L232.915 214.589Z" fill="#A0616A"/>
<path d="M235.654 224.287H232.041L231.396 220.866L229.744 224.287H220.161C219.701 224.287 219.254 224.14 218.884 223.867C218.514 223.594 218.24 223.209 218.104 222.77C217.967 222.33 217.974 221.857 218.124 221.422C218.274 220.986 218.558 220.61 218.936 220.348L226.59 215.047V211.588L234.639 212.07L235.654 224.287Z" fill="#2F2E41"/>
<path d="M213.191 214.589H208.099L205.676 194.888L213.192 194.889L213.191 214.589Z" fill="#A0616A"/>
<path d="M215.931 224.287H212.317L211.672 220.866L210.02 224.287H200.437C199.978 224.287 199.53 224.14 199.16 223.867C198.79 223.594 198.517 223.209 198.38 222.77C198.243 222.33 198.25 221.857 198.4 221.422C198.55 220.986 198.835 220.61 199.213 220.348L206.866 215.047V211.588L214.916 212.07L215.931 224.287Z" fill="#2F2E41"/>
<path d="M193.845 162.575C194.82 164.041 205.421 204.345 205.421 204.345L214.821 205.42L213.705 195.279L212 177.334L209.359 165.356C209.359 165.356 218.685 144.068 219.275 142.372L219.694 141.155L222.607 167.677C222.953 168.624 223.104 169.632 223.051 170.639C222.963 172.295 224.62 197.22 224.62 197.22L225.416 206.158L233.47 207.28L236.737 191.814C239.466 186.79 237.902 168.938 236.786 167.276C235.67 165.615 236.114 154.042 236.114 154.042C237.539 153.539 246.035 124.479 241.785 124.651C242.058 123.102 242.272 121.719 242.272 121.719L234.896 115.752L216.434 110.938L211.776 108.695C211.776 108.695 203.457 124.123 203.54 124.891C203.655 125.862 203.433 126.844 202.912 127.671L194.513 155.865C194.513 155.865 192.861 161.094 193.845 162.575Z" fill="#2F2E41"/>
<path d="M240.227 61.6875L237.29 55.433L227.294 55.8184L224.033 62.3252C224.033 62.3252 214.715 73.4884 214.413 77.1182C214.034 81.6835 217.187 104.058 214.034 102.608C214.034 102.608 206.602 111.358 211 111.358C215.397 111.358 235.291 123.884 236.596 125.292C237.902 126.701 243.729 127.614 243.24 124.673C242.752 121.733 240.227 105.829 240.227 105.829L247.062 80.8211C249.028 75.422 249.641 69.3658 245.194 65.7391L240.227 61.6875Z" fill="#CCCCCC"/>
<path d="M203.2 43.2789C201.863 42.7465 200.434 42.4835 198.996 42.5049C197.558 42.5263 196.137 42.8317 194.817 43.4035C193.496 43.9754 192.3 44.8026 191.298 45.8379C190.296 46.8731 189.508 48.0962 188.977 49.4373C186.745 55.0774 186.375 68.5462 190.529 75.2966C195.869 65.9912 206.675 62.5553 209.34 57.5448C212.188 52.1909 208.823 45.5177 203.2 43.2789Z" fill="#E33A3A"/>
<path d="M198.703 55.8141C200.677 55.8141 202.276 54.2098 202.276 52.2308C202.276 50.2518 200.677 48.6475 198.703 48.6475C196.73 48.6475 195.131 50.2518 195.131 52.2308C195.131 54.2098 196.73 55.8141 198.703 55.8141Z" fill="white"/>
<path d="M187.954 79.8634C189.247 79.8634 190.294 78.8126 190.294 77.5164C190.294 76.2202 189.247 75.1694 187.954 75.1694C186.662 75.1694 185.614 76.2202 185.614 77.5164C185.614 78.8126 186.662 79.8634 187.954 79.8634Z" fill="#E33A3A"/>
<path opacity="0.2" d="M202.228 50.5316C202.882 51.2179 203.238 52.1367 203.218 53.0862C203.197 54.0357 202.801 54.9382 202.118 55.5953C201.434 56.2525 200.518 56.6105 199.572 56.5909C198.625 56.5712 197.725 56.1754 197.069 55.4904C197.82 55.8866 198.687 56.0019 199.514 55.8158C200.342 55.6296 201.077 55.154 201.587 54.4741C202.097 53.7943 202.349 52.9546 202.298 52.1053C202.247 51.256 201.897 50.4525 201.31 49.8387C201.651 50.0185 201.961 50.2524 202.228 50.5316Z" fill="#231F20"/>
<path opacity="0.2" d="M209.35 57.5597C206.685 62.5701 195.88 66.0061 190.539 75.3115C190.15 74.6719 189.808 74.0043 189.517 73.3142C195.019 64.6989 205.193 61.3271 207.768 56.4861C210.072 52.1533 208.308 46.9568 204.571 43.9455C209.352 46.6397 211.96 52.6534 209.35 57.5597Z" fill="#231F20"/>
<path d="M186.899 76.7082C187.443 76.5958 188.005 76.6043 188.546 76.7332C189.086 76.8621 189.592 77.1083 190.027 77.4544C190.462 77.8005 190.816 78.2381 191.065 78.7364C191.313 79.2347 191.449 79.7815 191.464 80.3384L199.569 83.4589L198.88 88.8616L187.496 84.2936C186.561 84.2566 185.673 83.8771 184.999 83.2271C184.325 82.577 183.912 81.7015 183.838 80.7665C183.765 79.8315 184.036 78.902 184.6 78.154C185.164 77.406 185.982 76.8916 186.899 76.7082Z" fill="#A0616A"/>
<path d="M243.531 65.5747C242.678 65.0522 241.73 64.7038 240.742 64.5494C239.754 64.3951 238.746 64.4379 237.774 64.6754C236.803 64.9129 235.888 65.3404 235.082 65.9334C234.275 66.5264 233.594 67.2732 233.076 68.131L221.442 87.4L195.139 81.1464L192.743 87.745L226.427 103.749L243.486 76.4948C246.041 72.8946 247.291 67.8772 243.531 65.5747Z" fill="#CCCCCC"/>
<path d="M243.966 41.9599C243.966 43.8171 243.513 45.6461 242.644 47.2863C241.775 48.9264 240.519 50.3277 238.984 51.367C237.45 52.4063 235.684 53.0519 233.843 53.2471C232.002 53.4423 230.141 53.1812 228.423 52.4866C226.706 51.7921 225.185 50.6853 223.994 49.2635C222.803 47.8417 221.978 46.1483 221.591 44.332C221.205 42.5157 221.269 40.6321 221.777 38.8464C222.286 37.0607 223.224 35.4276 224.509 34.0904L224.564 34.036C224.654 33.9407 224.745 33.8454 224.84 33.7546C224.84 33.7546 224.841 33.7545 224.841 33.7543C224.842 33.754 224.842 33.7537 224.843 33.7533C224.843 33.7529 224.844 33.7523 224.844 33.7518C224.844 33.7512 224.844 33.7506 224.844 33.75C224.962 33.6411 225.079 33.5322 225.202 33.4278C226.836 31.9905 228.849 31.0561 230.999 30.7366C233.15 30.417 235.346 30.7259 237.326 31.6261C239.306 32.5263 240.985 33.9798 242.163 35.8126C243.34 37.6453 243.966 39.7796 243.966 41.9599Z" fill="#2F2E41"/>
<path d="M229.867 54.0991C235.106 54.0991 239.353 49.8395 239.353 44.5851C239.353 39.3307 235.106 35.0711 229.867 35.0711C224.628 35.0711 220.382 39.3307 220.382 44.5851C220.382 49.8395 224.628 54.0991 229.867 54.0991Z" fill="#9E616A"/>
<path d="M239.94 47.2982L238.368 47.0198C237.49 46.8597 236.682 46.4345 236.051 45.801C235.42 45.1676 234.997 44.3561 234.839 43.4751L233.305 46.0529L233.238 46.0752C229.585 47.2919 225.783 46.928 221.619 44.9641C220.428 44.3977 219.273 43.759 218.16 43.0515L218.078 43.0001L218.071 42.9033C217.859 39.8083 218.552 37.2227 220.022 35.6227C220.586 35.0208 221.271 34.5452 222.031 34.2273C222.792 33.9093 223.611 33.7561 224.434 33.7777C224.493 33.7624 224.547 33.7326 224.591 33.691C224.612 33.6754 224.633 33.66 224.654 33.6453V33.6293L224.763 33.5779C224.997 33.4675 225.236 33.3618 225.475 33.2652C227.351 32.5365 229.395 32.3536 231.371 32.7378C233.347 33.1219 235.175 34.0574 236.644 35.4368C239.566 38.2345 240.906 42.9297 239.979 47.1205L239.94 47.2982Z" fill="#2F2E41"/>
<path d="M259.947 55.4042C256.719 53.7331 260.87 47.6682 260.036 44.1222C259.202 40.5761 253.195 39.4356 252.812 35.8125C252.429 32.1893 251.529 28.4525 249.145 25.7032C247.622 23.9464 245.378 22.6495 243.067 22.8696C242.285 22.944 241.529 23.1866 240.849 23.5808C240.169 23.975 239.581 24.5116 239.127 25.1539C238.672 25.7963 238.361 26.5294 238.214 27.3032C238.068 28.0771 238.089 28.8736 238.277 29.6384C237.619 28.7034 235.917 28.906 235.495 29.9696C235.12 30.9151 235.948 32.0604 236.922 32.144C238.197 33.7228 239.656 35.3984 241.653 35.7169C241.972 35.7902 242.302 35.79 242.62 35.7164C242.938 35.6427 243.236 35.4976 243.489 35.2918C243.959 34.8393 243.996 33.9346 243.439 33.5965C245.948 34.5963 247.419 37.3178 247.792 40.0003C248.164 42.6828 247.649 45.3969 247.309 48.0838C246.97 50.7707 246.824 53.5972 247.874 56.0923C249.115 59.0402 251.972 61.1531 255.09 61.8307C258.208 62.5083 261.529 61.8461 264.352 60.3541C267.174 58.8619 269.528 56.5841 271.45 54.0304C268.138 56.3892 263.556 57.2729 259.947 55.4042Z" fill="#2F2E41"/>
<path d="M239.536 47.0338C239.536 47.0338 236.726 36.5139 224.681 34.0859C224.668 34.0814 224.623 34.0632 224.564 34.036C224.528 34.0133 224.482 33.9906 224.437 33.9679C224.573 33.8908 224.704 33.8227 224.84 33.7546L224.841 33.7543L224.843 33.7533L224.844 33.7518L224.844 33.7501C224.962 33.6411 225.08 33.5322 225.202 33.4278L225.546 33.4415C225.546 33.4415 237.631 31.5218 239.536 47.0338Z" fill="#FD6584"/>
<path opacity="0.2" d="M233.245 80.7893L226.442 88.6945L215.202 85.3653L227.456 91.0293L233.245 80.7893Z" fill="black"/>
<path d="M274.077 224.883L169.485 225C169.366 225 169.251 224.952 169.167 224.867C169.082 224.782 169.035 224.667 169.035 224.547C169.035 224.427 169.082 224.312 169.167 224.227C169.251 224.142 169.366 224.094 169.485 224.094L274.077 223.977C274.197 223.977 274.312 224.025 274.397 224.11C274.482 224.195 274.529 224.31 274.529 224.43C274.529 224.55 274.482 224.665 274.397 224.75C274.312 224.835 274.197 224.883 274.077 224.883Z" fill="#CACACA"/>
<path d="M278.669 154.486C273.771 154.486 268.403 154.301 262.565 153.929C232.367 152.006 193.252 145.319 152.425 135.101C111.598 124.882 73.936 112.353 46.3778 99.8207C32.9533 93.7158 22.6502 87.9371 15.7548 82.6447C8.45434 77.042 5.26104 72.1582 6.26318 68.1298C8.21582 60.2817 25.5055 58.5647 39.6659 58.5064L39.6708 59.6477C20.2247 59.7278 8.75254 62.8384 7.36739 68.4062C5.60293 75.4977 19.993 86.5688 46.8477 98.7812C74.3453 111.286 111.938 123.791 152.7 133.993C193.463 144.196 232.506 150.871 262.637 152.79C292.063 154.665 309.952 151.673 311.716 144.581C313.181 138.693 303.524 130.02 284.525 120.158L285.048 119.144C298.853 126.31 314.878 136.588 312.821 144.858C311.818 148.886 306.712 151.692 297.643 153.198C292.473 154.056 286.123 154.486 278.669 154.486Z" fill="#E33A3A"/>
</g>
<defs>
<clipPath id="clip0_153_603">
<rect width="313" height="225" fill="white"/>
</clipPath>
</defs>
</svg>
