<svg width="185" height="44" viewBox="0 0 185 44" fill="none" xmlns="http://www.w3.org/2000/svg">
<path fill-rule="evenodd" clip-rule="evenodd" d="M94.4057 14.4396C94.4091 14.1644 94.3562 13.8914 94.2503 13.6363C94.1445 13.3812 93.9877 13.1491 93.789 12.9534C93.5904 12.7577 93.3538 12.6024 93.0932 12.4964C92.8324 12.3904 92.5526 12.3358 92.2701 12.3358H87.9989V11.1883C87.9989 8.67808 89.2999 7.43491 91.8284 7.43491C92.3474 7.43301 92.8655 7.48106 93.3748 7.57836C93.8359 7.66833 94.3147 7.60395 94.7335 7.39565C95.1523 7.18736 95.4867 6.84736 95.6822 6.43083V6.38303C95.8048 6.1308 95.8714 5.85621 95.8777 5.57721C95.8839 5.29821 95.8298 5.02106 95.7185 4.76386C95.6073 4.50665 95.4417 4.2752 95.2325 4.08458C95.0231 3.89396 94.7749 3.7485 94.5039 3.65766C93.2737 3.2788 91.9893 3.09318 90.6991 3.1078C88.9178 3.08221 87.1653 3.54623 85.6424 4.44658C83.9242 5.42675 82.8195 7.74571 82.8195 10.9492V12.3358H80.7329C80.4485 12.3326 80.166 12.3848 79.9025 12.4894C79.6389 12.594 79.3995 12.7488 79.1982 12.9448C78.997 13.1408 78.8379 13.374 78.7305 13.6307C78.6232 13.8874 78.5696 14.1624 78.5728 14.4396C78.5728 14.7147 78.6289 14.9872 78.7377 15.2411C78.8466 15.495 79.006 15.7254 79.207 15.9188C79.4079 16.1123 79.6463 16.265 79.9082 16.3681C80.1701 16.4712 80.4505 16.5226 80.7329 16.5195H82.8195V38.3225C82.8195 38.9882 83.0911 39.6267 83.5744 40.0973C84.0577 40.5682 84.7133 40.8327 85.397 40.8327C86.0805 40.8327 86.7361 40.5682 87.2194 40.0973C87.7029 39.6267 87.9744 38.9882 87.9744 38.3225V16.5195H92.2701C92.8366 16.5195 93.3798 16.3003 93.7802 15.9103C94.1807 15.5202 94.4057 14.9912 94.4057 14.4396ZM105.182 17.0455C99.217 17.165 92.172 23.1417 94.0376 31.748C97.7197 43.3428 109.257 41.741 113.994 39.0875C115.173 38.418 116.302 37.677 117.161 36.625C118.02 35.5732 117.726 35.0472 117.014 34.2822C116.302 33.5172 115.394 33.326 114.51 33.8758C114.08 34.168 113.67 34.4873 113.283 34.832C111.662 36.123 109.846 36.9837 107.759 37.1748C102.138 37.7247 97.4741 32.4413 98.8733 27.158C99.8798 23.3807 103.415 20.751 107.219 21.2292C109.969 21.5877 112.08 22.9025 113.381 25.3172C113.823 26.13 113.577 26.5603 112.644 26.6798C110.607 26.895 109.699 27.1102 107.686 27.3253C106.728 27.4448 105.771 27.5165 104.838 27.7078C104.385 27.8057 103.986 28.0672 103.722 28.4397C103.457 28.8122 103.348 29.268 103.415 29.716C103.485 30.1488 103.711 30.5432 104.053 30.828C104.395 31.113 104.83 31.2697 105.28 31.27C105.845 31.27 106.434 31.1982 106.998 31.1503C109.748 30.8397 111.392 30.5288 114.166 30.1942C115.222 30.0747 116.302 29.955 117.357 29.7398C118.413 29.5247 118.83 28.9032 118.855 27.9468C118.888 27.4575 118.847 26.9662 118.732 26.4887C117.456 21.277 113.258 16.8542 105.182 17.0455ZM22.9245 5.16378H44.8696C46.1706 5.16378 47.5453 5.16378 48.6498 4.4944C49.7545 3.82501 50.4171 2.27106 49.6316 1.26698C48.8461 0.262902 47.7171 0.334616 46.6369 0.334616H23.759C22.5562 0.334616 21.2306 0.382434 20.3224 1.12354C19.4142 1.86465 19.095 3.27515 19.6841 4.23141C20.2733 5.18768 21.8688 5.16378 22.9245 5.16378ZM14.1856 31.509C14.5865 31.6588 15.02 31.7067 15.4452 31.6482C15.8704 31.5895 16.2732 31.4265 16.6158 31.1743C17.4504 30.5288 17.7449 29.4292 17.9904 28.4012L21.6725 12.9335C21.7021 12.6827 21.8139 12.4479 21.9915 12.2641C22.2371 12.1047 22.5335 12.0368 22.8261 12.0728L32.8169 12.1924C34.0934 12.2163 35.4926 12.1924 36.5725 11.523C37.6527 10.8536 38.2419 9.25183 37.3826 8.31946C36.5235 7.38711 35.6889 7.57836 34.7561 7.57836H21.1079C20.2488 7.57836 19.2915 7.60226 18.6287 8.15211C17.9659 8.70198 17.7941 9.44308 17.6221 10.1842C16.0675 16.4956 14.5947 22.8228 13.2037 29.1662C12.9582 30.218 13.081 31.0787 14.1856 31.509ZM23.1699 17.3802C22.9735 17.2607 22.7034 17.141 22.5071 17.2845C22.4291 17.3727 22.378 17.4803 22.3598 17.5953C22.1635 18.3125 21.9425 19.0537 21.7461 19.7947C21.6234 20.1318 21.5733 20.4898 21.5989 20.8467C21.697 21.4443 22.2126 21.8985 22.6543 22.3527C25.7472 25.4367 26.4346 30.5288 24.2744 34.2822C22.1142 38.0355 17.2294 40.1155 12.9091 39.1113C8.58883 38.1073 5.20133 34.1865 4.95585 29.8833C4.71039 25.5802 7.68059 21.3008 11.8536 19.8903C12.5164 19.6513 13.2528 19.484 13.6701 18.934C13.9461 18.5415 14.1228 18.091 14.1856 17.6192C14.2838 17.0455 14.4065 16.4956 14.5047 15.9218C14.5403 15.8204 14.5543 15.713 14.5459 15.6061C14.5374 15.4992 14.5067 15.3952 14.4556 15.3002C14.2838 15.0612 13.9401 15.0612 13.6456 15.109C8.51519 15.6827 3.80213 19.0775 1.78927 23.6915C1.3478 24.7357 1.03469 25.827 0.856474 26.9428C0.714738 27.7318 0.657155 28.533 0.684644 29.3335C0.856474 38.179 9.64437 45.3988 18.8986 43.1517C24.4218 41.8367 28.8894 37.0793 29.7976 31.6285C30.7058 26.1778 27.9812 20.3207 23.1699 17.3802ZM57.9287 15.1568C51.9147 13.8419 45.1641 16.7346 42.1693 21.9702C41.7521 22.6635 41.4084 23.4285 41.4084 24.2413C41.4084 25.0542 41.8503 25.891 42.6113 26.2017C43.3722 26.5125 44.354 26.1538 44.9678 25.5802C45.5815 25.0063 46.0232 24.2653 46.5387 23.572C48.7971 20.5118 52.9947 18.8862 56.7994 19.6752C58.242 19.9483 59.6049 20.5278 60.791 21.3727C61.977 22.2177 62.9572 23.3068 63.6616 24.563C64.3659 25.819 64.7769 27.2108 64.8656 28.6395C64.9542 30.068 64.7183 31.498 64.1744 32.8275C63.6305 34.157 62.7922 35.3533 61.7193 36.3312C60.6463 37.309 59.3649 38.0443 57.9668 38.4845C56.5686 38.9248 55.0879 39.0593 53.6301 38.8783C52.1724 38.6975 50.7736 38.2057 49.5335 37.4378C47.3242 36.0992 45.7778 33.9713 44.2559 31.8915C41.3593 27.8513 38.4382 23.835 35.5171 19.7947C34.6803 18.586 33.779 17.421 32.8169 16.3043C32.3506 15.7545 31.835 15.2046 31.1477 14.8938C30.4604 14.583 29.6258 14.5352 29.0366 14.9655C28.4475 15.3959 28.2266 16.2326 28.3493 16.9737C28.5376 17.6835 28.8535 18.3553 29.282 18.958C31.1722 21.9223 33.4306 24.6 35.4926 27.4448C37.5545 30.2898 39.2237 33.1347 41.3348 35.8122C44.1577 39.3982 47.8889 42.6495 52.4791 43.4623C53.4094 43.633 54.3566 43.6972 55.3021 43.6537C57.1719 43.5738 59.0072 43.135 60.7025 42.3627C66.2746 39.8525 69.9322 33.7323 69.3432 27.7795C68.754 21.8268 63.9427 16.4478 57.9287 15.1568ZM136.381 16.2565C134.354 16.2281 132.374 16.8559 130.753 18.0413C129.131 19.2268 127.96 20.903 127.422 22.807V19.1492C127.422 18.4835 127.15 17.845 126.667 17.3742C126.183 16.9035 125.528 16.639 124.844 16.639C124.161 16.639 123.505 16.9035 123.022 17.3742C122.538 17.845 122.267 18.4835 122.267 19.1492V38.2507C122.267 38.9165 122.538 39.555 123.022 40.0257C123.505 40.4965 124.161 40.7608 124.844 40.7608C125.528 40.7608 126.183 40.4965 126.667 40.0257C127.15 39.555 127.422 38.9165 127.422 38.2507V29.3813C127.716 26.895 128.723 24.8868 130.392 23.3568C132.037 21.8313 134.233 20.9983 136.504 21.0378C139.45 21.0378 139.622 16.2565 136.381 16.2565ZM174.11 16.2326C173.427 16.2326 172.771 16.4971 172.288 16.9678C171.804 17.4385 171.534 18.077 171.534 18.7428V20.1772C170.378 17.906 166.943 15.7545 162.966 15.7545C160.119 15.7545 157.148 16.8303 154.694 18.8145C152.239 20.7988 150.643 24.2413 150.643 28.2817C150.643 32.3218 152.263 35.7405 154.694 37.7487C157.124 39.7568 160.119 40.8087 162.966 40.8087C166.943 40.8087 170.378 38.681 171.534 36.4098V38.442C171.596 39.0685 171.896 39.6498 172.373 40.0728C172.853 40.4958 173.477 40.7302 174.123 40.7302C174.769 40.7302 175.392 40.4958 175.871 40.0728C176.35 39.6498 176.649 39.0685 176.713 38.442V18.7428C176.713 18.4112 176.646 18.0828 176.514 17.7767C176.384 17.4705 176.192 17.1927 175.95 16.9593C175.707 16.7259 175.42 16.5415 175.105 16.4168C174.789 16.292 174.45 16.2294 174.11 16.2326ZM169.25 34.2105C167.751 35.6205 165.738 36.3942 163.653 36.362C161.571 36.3838 159.562 35.6117 158.057 34.2105C156.461 32.776 155.651 30.8397 155.651 28.2817C155.651 25.7235 156.461 23.7872 158.057 22.3527C159.57 20.9668 161.576 20.2043 163.653 20.225C165.732 20.1968 167.741 20.9603 169.25 22.3527C170.871 23.7872 171.681 25.7235 171.681 28.2817C171.681 30.8397 170.871 32.776 169.25 34.2105ZM144.752 8.91715C144.068 8.91715 143.413 9.18161 142.93 9.65236C142.446 10.1231 142.175 10.7616 142.175 11.4273V38.2507C142.175 38.9165 142.446 39.555 142.93 40.0257C143.413 40.4965 144.068 40.7608 144.752 40.7608C145.436 40.7608 146.091 40.4965 146.575 40.0257C147.058 39.555 147.329 38.9165 147.329 38.2507V11.4273C147.329 10.7616 147.058 10.1231 146.575 9.65236C146.091 9.18161 145.436 8.91715 144.752 8.91715ZM182.063 36.5295C180.714 36.5295 179.806 37.39 179.806 38.681C179.806 39.972 180.714 40.8087 182.063 40.8087C183.414 40.8087 184.322 39.948 184.322 38.681C184.322 37.414 183.414 36.5295 182.063 36.5295ZM182.063 40.3307C181.008 40.3307 180.297 39.6612 180.297 38.681C180.297 37.7008 181.008 37.0075 182.063 37.0075C183.12 37.0075 183.806 37.677 183.806 38.681C183.806 39.6852 183.12 40.3307 182.063 40.3307ZM182.554 38.944C182.713 38.926 182.858 38.8485 182.96 38.7278C183.06 38.6073 183.108 38.4533 183.095 38.2985C183.095 37.7725 182.726 37.5813 182.113 37.5813H181.082V39.7807H181.646V38.9918H181.744C181.829 38.9788 181.915 38.9927 181.99 39.0315C182.065 39.0703 182.125 39.1318 182.162 39.207L182.579 39.7807H183.168L182.751 39.1352C182.706 39.0545 182.638 38.988 182.554 38.944ZM182.015 38.5853H181.646V38.0117H182.015C182.235 38.0117 182.432 38.0355 182.432 38.2747C182.432 38.5137 182.235 38.5853 182.015 38.5853Z" fill="#232121"/>
</svg>
