<svg width="140" height="51" viewBox="0 0 140 51" fill="none" xmlns="http://www.w3.org/2000/svg">
<path fill-rule="evenodd" clip-rule="evenodd" d="M71.3544 19.9558C71.3568 19.7556 71.3192 19.5571 71.244 19.3716C71.1687 19.186 71.0573 19.0172 70.9161 18.8749C70.775 18.7326 70.6068 18.6196 70.4216 18.5425C70.2363 18.4654 70.0375 18.4257 69.8367 18.4257H66.8013V17.5912C66.8013 15.7656 67.7259 14.8614 69.5228 14.8614C69.8916 14.8601 70.2598 14.895 70.6218 14.9658C70.9495 15.0312 71.2897 14.9844 71.5873 14.8329C71.885 14.6814 72.1226 14.4341 72.2616 14.1312V14.0964C72.3486 13.913 72.396 13.7133 72.4005 13.5104C72.4049 13.3075 72.3664 13.1059 72.2873 12.9189C72.2083 12.7318 72.0906 12.5635 71.9419 12.4248C71.7932 12.2862 71.6167 12.1804 71.4242 12.1144C70.5499 11.8388 69.6372 11.7038 68.7203 11.7144C67.4543 11.6958 66.2089 12.0333 65.1267 12.6881C63.9056 13.401 63.1205 15.0875 63.1205 17.4173V18.4257H61.6377C61.4355 18.4234 61.2348 18.4614 61.0476 18.5374C60.8602 18.6135 60.6901 18.7261 60.547 18.8687C60.404 19.0112 60.291 19.1808 60.2147 19.3675C60.1384 19.5542 60.1003 19.7542 60.1026 19.9558C60.1026 20.1559 60.1424 20.354 60.2198 20.5387C60.2971 20.7233 60.4104 20.8909 60.5533 21.0316C60.696 21.1722 60.8654 21.2833 61.0516 21.3583C61.2377 21.4333 61.437 21.4707 61.6377 21.4684H63.1205V37.3251C63.1205 37.8093 63.3135 38.2736 63.657 38.6159C64.0005 38.9584 64.4664 39.1507 64.9523 39.1507C65.438 39.1507 65.9039 38.9584 66.2474 38.6159C66.591 38.2736 66.7839 37.8093 66.7839 37.3251V21.4684H69.8367C70.2393 21.4684 70.6253 21.309 70.9099 21.0254C71.1945 20.7417 71.3544 20.3569 71.3544 19.9558ZM79.0126 21.851C74.7736 21.9379 69.767 26.2845 71.0928 32.5437C73.7095 40.9763 81.9085 39.8113 85.2753 37.8815C86.1127 37.3946 86.9151 36.8557 87.5256 36.0906C88.1363 35.3256 87.9268 34.9431 87.4209 34.3867C86.9151 33.8304 86.2696 33.6913 85.6416 34.0912C85.3359 34.3037 85.0445 34.5359 84.7694 34.7866C83.6181 35.7255 82.3271 36.3514 80.8444 36.4905C76.8495 36.8904 73.535 33.0479 74.5293 29.2055C75.2446 26.4584 77.7567 24.5459 80.4606 24.8936C82.4144 25.1544 83.9145 26.1106 84.8391 27.8667C85.1532 28.4579 84.9788 28.7708 84.3158 28.8577C82.8679 29.0142 82.2224 29.1707 80.792 29.3272C80.1116 29.4141 79.4313 29.4662 78.7684 29.6054C78.446 29.6765 78.1624 29.8667 77.9748 30.1376C77.7871 30.4085 77.7092 30.74 77.7567 31.0659C77.8065 31.3807 77.9674 31.6674 78.2104 31.8746C78.4534 32.0819 78.7627 32.1958 79.0824 32.196C79.4837 32.196 79.9024 32.1438 80.3035 32.109C82.2573 31.8831 83.4262 31.657 85.3974 31.4136C86.1475 31.3267 86.9151 31.2397 87.6652 31.0832C88.4153 30.9267 88.7119 30.4747 88.7294 29.7792C88.7532 29.4233 88.7238 29.066 88.6422 28.7187C87.735 24.9284 84.7519 21.7118 79.0126 21.851ZM20.5555 13.2097H36.1511C37.0756 13.2097 38.0526 13.2097 38.8375 12.7229C39.6226 12.2361 40.0935 11.1059 39.5353 10.3757C38.977 9.64544 38.1746 9.69759 37.407 9.69759H21.1486C20.2938 9.69759 19.3518 9.73237 18.7063 10.2714C18.0609 10.8103 17.8341 11.8362 18.2528 12.5316C18.6715 13.2271 19.8053 13.2097 20.5555 13.2097ZM14.3452 32.3699C14.6301 32.4788 14.9381 32.5136 15.2403 32.4711C15.5425 32.4284 15.8287 32.3099 16.0722 32.1265C16.6653 31.657 16.8746 30.8573 17.0491 30.1096L19.6658 18.8604C19.6868 18.678 19.7663 18.5072 19.8925 18.3736C20.0671 18.2576 20.2777 18.2083 20.4856 18.2345L27.5857 18.3214C28.4928 18.3388 29.4872 18.3214 30.2547 17.8346C31.0223 17.3477 31.441 16.1828 30.8303 15.5048C30.2198 14.8267 29.6267 14.9658 28.9638 14.9658H19.2646C18.654 14.9658 17.9737 14.9832 17.5027 15.383C17.0317 15.7829 16.9096 16.3219 16.7874 16.8609C15.6826 21.451 14.6359 26.0527 13.6474 30.666C13.4729 31.431 13.5602 32.0569 14.3452 32.3699ZM20.7299 22.0944C20.5904 22.0074 20.3984 21.9204 20.2589 22.0248C20.2035 22.0889 20.1672 22.1672 20.1543 22.2508C20.0147 22.7724 19.8577 23.3114 19.7181 23.8504C19.6309 24.0956 19.5953 24.3559 19.6135 24.6154C19.6833 25.0501 20.0496 25.3804 20.3636 25.7107C22.5616 27.9536 23.05 31.657 21.5149 34.3867C19.9797 37.1164 16.5083 38.6291 13.438 37.8988C10.3678 37.1687 7.96042 34.3171 7.78596 31.1876C7.61152 28.058 9.72233 24.9457 12.6879 23.9199C13.1589 23.7461 13.6823 23.6244 13.9788 23.2244C14.175 22.939 14.3005 22.6113 14.3452 22.2682C14.4149 21.851 14.5022 21.451 14.572 21.0337C14.5972 20.96 14.6072 20.8818 14.6012 20.8041C14.5952 20.7264 14.5734 20.6507 14.5371 20.5817C14.415 20.4078 14.1707 20.4078 13.9614 20.4426C10.3154 20.8599 6.96606 23.3288 5.5356 26.6844C5.22186 27.4438 4.99935 28.2375 4.8727 29.049C4.77197 29.6228 4.73105 30.2055 4.75059 30.7877C4.8727 37.2208 11.1179 42.4716 17.6945 40.8373C21.6196 39.8809 24.7946 36.421 25.44 32.4568C26.0854 28.4927 24.1491 24.2329 20.7299 22.0944ZM45.4316 20.4774C41.1577 19.5211 36.3603 21.6249 34.2321 25.4325C33.9356 25.9368 33.6913 26.4931 33.6913 27.0843C33.6913 27.6754 34.0054 28.284 34.5462 28.51C35.0869 28.736 35.7847 28.4752 36.2208 28.058C36.657 27.6407 36.9709 27.1017 37.3373 26.5975C38.9422 24.3719 41.9252 23.1896 44.6291 23.7634C45.6543 23.9621 46.6228 24.3836 47.4658 24.998C48.3086 25.6125 49.0052 26.4047 49.5057 27.3182C50.0063 28.2317 50.2984 29.2439 50.3614 30.283C50.4244 31.3219 50.2568 32.3619 49.8702 33.3288C49.4837 34.2957 48.888 35.1657 48.1254 35.8769C47.3629 36.588 46.4523 37.1228 45.4587 37.443C44.465 37.7632 43.4128 37.861 42.3768 37.7294C41.3409 37.5979 40.3468 37.2402 39.4655 36.6817C37.8955 35.7082 36.7965 34.1607 35.7149 32.648C33.6564 29.7097 31.5805 26.7888 29.5046 23.8504C28.91 22.9713 28.2694 22.124 27.5857 21.3119C27.2543 20.912 26.8879 20.5121 26.3995 20.2861C25.911 20.0601 25.3179 20.0253 24.8992 20.3383C24.4805 20.6512 24.3235 21.2598 24.4107 21.7987C24.5446 22.315 24.7691 22.8036 25.0736 23.2419C26.4169 25.3977 28.0218 27.3451 29.4872 29.4141C30.9525 31.4832 32.1387 33.5522 33.639 35.4994C35.6452 38.1074 38.2967 40.472 41.5588 41.0632C42.2199 41.1873 42.8931 41.234 43.565 41.2024C44.8938 41.1443 46.1981 40.8251 47.4029 40.2634C51.3628 38.4379 53.962 33.9868 53.5434 29.6575C53.1247 25.3283 49.7055 21.4162 45.4316 20.4774ZM101.185 21.2771C99.744 21.2565 98.3372 21.713 97.1848 22.5752C96.0325 23.4374 95.1999 24.6564 94.8176 26.0411V23.3809C94.8176 22.8968 94.6245 22.4324 94.2811 22.09C93.9375 21.7477 93.4717 21.5553 92.9858 21.5553C92.5 21.5553 92.0342 21.7477 91.6906 22.09C91.3471 22.4324 91.1542 22.8968 91.1542 23.3809V37.2729C91.1542 37.7571 91.3471 38.2215 91.6906 38.5638C92.0342 38.9062 92.5 39.0985 92.9858 39.0985C93.4717 39.0985 93.9375 38.9062 94.2811 38.5638C94.6245 38.2215 94.8176 37.7571 94.8176 37.2729V30.8225C95.0269 29.0142 95.7421 27.5537 96.9284 26.441C98.0975 25.3316 99.658 24.7257 101.272 24.7545C103.365 24.7545 103.487 21.2771 101.185 21.2771ZM127.997 21.2598C127.512 21.2598 127.045 21.4521 126.702 21.7945C126.358 22.1368 126.166 22.6011 126.166 23.0854V24.1285C125.345 22.4768 122.903 20.912 120.077 20.912C118.054 20.912 115.943 21.6944 114.199 23.1375C112.454 24.5807 111.32 27.0843 111.32 30.0227C111.32 32.961 112.472 35.4473 114.199 36.9078C115.926 38.3683 118.054 39.1333 120.077 39.1333C122.903 39.1333 125.345 37.5859 126.166 35.9341V37.412C126.21 37.8677 126.424 38.2905 126.763 38.5981C127.103 38.9057 127.547 39.0762 128.006 39.0762C128.466 39.0762 128.908 38.9057 129.249 38.5981C129.589 38.2905 129.801 37.8677 129.847 37.412V23.0854C129.847 22.8442 129.799 22.6054 129.705 22.3827C129.613 22.16 129.476 21.958 129.304 21.7883C129.132 21.6185 128.928 21.4844 128.704 21.3937C128.48 21.303 128.239 21.2575 127.997 21.2598ZM124.543 34.3346C123.478 35.36 122.047 35.9227 120.566 35.8993C119.086 35.9152 117.659 35.3536 116.589 34.3346C115.455 33.2913 114.879 31.8831 114.879 30.0227C114.879 28.1622 115.455 26.754 116.589 25.7107C117.664 24.7028 119.089 24.1483 120.566 24.1633C122.043 24.1428 123.471 24.6981 124.543 25.7107C125.695 26.754 126.271 28.1622 126.271 30.0227C126.271 31.8831 125.695 33.2913 124.543 34.3346ZM107.133 15.9394C106.648 15.9394 106.182 16.1318 105.838 16.4741C105.495 16.8165 105.302 17.2808 105.302 17.765V37.2729C105.302 37.7571 105.495 38.2215 105.838 38.5638C106.182 38.9062 106.648 39.0985 107.133 39.0985C107.619 39.0985 108.085 38.9062 108.429 38.5638C108.772 38.2215 108.965 37.7571 108.965 37.2729V17.765C108.965 17.2808 108.772 16.8165 108.429 16.4741C108.085 16.1318 107.619 15.9394 107.133 15.9394ZM133.649 36.0211C132.69 36.0211 132.045 36.647 132.045 37.5859C132.045 38.5248 132.69 39.1333 133.649 39.1333C134.609 39.1333 135.254 38.5073 135.254 37.5859C135.254 36.6644 134.609 36.0211 133.649 36.0211ZM133.649 38.7856C132.899 38.7856 132.394 38.2987 132.394 37.5859C132.394 36.873 132.899 36.3688 133.649 36.3688C134.4 36.3688 134.888 36.8557 134.888 37.5859C134.888 38.3162 134.4 38.7856 133.649 38.7856ZM133.998 37.7771C134.111 37.764 134.214 37.7077 134.286 37.6199C134.357 37.5323 134.392 37.4203 134.382 37.3077C134.382 36.9251 134.12 36.7861 133.685 36.7861H132.951V38.3856H133.352V37.8119H133.422C133.483 37.8025 133.543 37.8125 133.597 37.8408C133.65 37.869 133.693 37.9137 133.719 37.9684L134.016 38.3856H134.434L134.138 37.9162C134.106 37.8575 134.057 37.8091 133.998 37.7771ZM133.615 37.5163H133.352V37.0991H133.615C133.771 37.0991 133.911 37.1164 133.911 37.2904C133.911 37.4642 133.771 37.5163 133.615 37.5163Z" fill="#E33A3A"/>
</svg>
