<svg width="159" height="85" viewBox="0 0 159 85" fill="none" xmlns="http://www.w3.org/2000/svg">
<g clip-path="url(#clip0_153_600)">
<path d="M85.1557 3.8447C84.6409 3.92447 84.1459 5.82877 83.1508 6.82081C82.423 7.53677 81.5146 7.49198 81.0321 8.37712C80.8489 8.7078 80.9082 9.27225 80.7004 9.81422C80.2944 10.8982 78.8638 10.9951 78.8638 12.1761C78.8588 13.4515 80.0569 13.6951 81.0939 14.6001C81.9034 15.3285 81.9826 15.8307 82.9626 16.1837C83.7994 16.4697 85.0444 15.5348 86.1656 15.8705C87.0865 16.1465 87.9675 16.3453 88.1756 17.2951C88.3586 18.1702 88.1631 19.5276 87.0468 19.3711C86.6705 19.3288 85.0394 18.7768 83.0346 18.9906C80.6161 19.2667 77.8563 20.0595 77.5866 22.7673C77.438 24.2813 79.3018 26.0664 81.1014 25.7034C82.3463 25.4571 81.7573 23.9831 82.4355 23.2669C83.324 22.3497 88.3586 26.4691 93.0392 26.4691C95.0096 26.4691 96.4748 25.9695 97.9304 24.438C98.0663 24.3211 98.2323 24.07 98.4427 24.055C98.6408 24.07 98.9872 24.2663 99.1011 24.3509C102.871 27.3939 105.72 33.4976 119.574 33.5697C121.522 33.5795 123.742 34.5145 125.554 36.1752C127.17 37.6769 128.116 40.0113 129.034 42.3806C130.42 45.936 132.905 49.3943 136.672 53.2429C136.878 53.4492 139.979 55.8708 140.227 56.0523C140.266 56.0771 140.494 56.6241 140.415 56.9298C140.323 59.237 139.989 65.9471 144.969 66.2505C146.187 66.3126 145.868 65.4524 145.868 64.8607C145.865 63.6922 145.652 62.5311 146.266 61.3353C147.105 59.6896 144.487 58.9311 144.563 55.3734C144.618 52.7207 142.4 53.1731 141.274 51.1519C140.625 49.9809 140.048 49.3595 140.091 47.9272C140.343 39.8672 138.383 34.5716 137.405 33.2713C136.643 32.2893 136.011 31.899 136.709 31.444C140.865 28.6868 141.808 26.121 141.808 26.121C144.019 20.9026 146.006 16.1364 148.746 14.0383C149.298 13.6055 150.714 12.5441 151.583 12.1263C154.14 10.9155 155.486 10.1822 156.229 9.45606C157.405 8.30502 158.333 5.90586 157.207 4.45145C155.806 2.65636 153.382 4.08098 152.313 4.71735C144.672 9.27225 143.546 17.3074 140.9 21.9219C138.789 25.6088 135.355 28.3163 132.286 28.5376C129.984 28.7091 127.504 28.2417 125.034 27.1528C119.027 24.5076 115.739 21.0916 114.965 20.4875C113.351 19.2369 100.821 6.88291 90.6704 6.37824C90.6704 6.37824 89.4107 3.84488 89.0938 3.80259C88.3511 3.708 87.5914 5.3166 87.0468 5.50327C86.5344 5.67459 85.6731 3.76011 85.1557 3.8447ZM40.4683 77.5776C39.5128 77.5551 38.7011 76.7671 38.7011 75.7925L38.7036 43.9892H28.268V79.0468C28.268 80.7648 29.654 82.1671 31.3545 82.1671H49.5944C51.3071 82.1671 52.6761 80.7648 52.6761 79.0468V43.9892H42.2505L42.2406 75.7925C42.2406 76.7671 41.4286 77.5551 40.4683 77.5776ZM75.4083 43.9892H59.614C57.7453 43.9892 56.223 45.5157 56.223 47.4127V82.167H66.6681V50.2869C66.6756 49.3099 67.4627 48.5366 68.4331 48.5366C69.4083 48.5366 70.1904 49.2924 70.2126 50.2596V82.1671H80.616V50.2593C80.6284 49.2922 81.4105 48.5364 82.3832 48.5364C83.3487 48.5364 84.1457 49.3097 84.1532 50.2867V82.1671H94.5984V47.4127C94.5984 45.5157 93.0737 43.9892 91.205 43.9892H75.4083ZM14.3028 50.3538C14.3103 49.2922 13.4489 48.5364 12.5355 48.5364H10.7633V67.8466H12.5355C13.4564 67.8466 14.3104 67.1107 14.3028 66.0542V50.3538ZM21.3052 72.5728H10.7633V82.1671H0.332764V43.9892H21.3722C23.2557 43.9892 24.7259 45.5257 24.7259 47.4277V69.1345C24.7259 71.039 23.1988 72.5728 21.3052 72.5728ZM130.393 73.6295C128.296 73.6295 126.536 75.4494 126.536 77.6547C126.536 79.8674 128.296 81.6723 130.46 81.6723C132.606 81.6723 134.343 79.8674 134.343 77.6547C134.343 75.4444 132.606 73.6295 130.459 73.6295H130.393ZM135.091 77.6422C135.091 80.2352 133.021 82.3436 130.46 82.3436C127.87 82.3436 125.791 80.2504 125.791 77.6422C125.791 75.0839 127.87 72.9458 130.383 72.9458C133.021 72.9458 135.091 75.0195 135.091 77.6422Z" fill="black"/>
<path d="M129.977 77.3438C130.702 77.3438 131.083 77.0853 131.083 76.5683C131.083 76.1082 130.715 75.8721 130.009 75.8721H129.801V77.3438H129.977ZM132.648 80.3621H131.403L129.801 78.2215V80.3621H128.784V74.9497H129.853C131.306 74.9497 132.078 75.5016 132.078 76.5558C132.078 77.2593 131.623 77.8835 130.987 78.0698L130.912 78.0973L132.648 80.3621ZM112.111 67.8541V50.2744C112.086 49.3022 111.306 48.5564 110.334 48.5564C109.371 48.5564 108.574 49.332 108.566 50.3017V67.8541H112.111ZM112.111 82.1671V72.5828H108.566V82.1671H98.1409V47.4127C98.1409 45.5157 99.663 43.9892 101.532 43.9892H119.145C121.019 43.9892 122.541 45.5157 122.541 47.4127V82.167L112.111 82.1671Z" fill="black"/>
</g>
<defs>
<clipPath id="clip0_153_600">
<rect width="158" height="85" fill="white" transform="translate(0.332764)"/>
</clipPath>
</defs>
</svg>
