<svg width="210" height="69" viewBox="0 0 210 69" fill="none" xmlns="http://www.w3.org/2000/svg">
<path d="M12.7619 38.9508C10.1401 38.9508 7.66608 38.4858 5.33507 37.551C3.00405 36.6185 1.22648 35.4407 0 34.0151L0.919269 32.7952C2.0754 34.0852 3.71696 35.1789 5.84395 36.0763C7.97094 36.9761 10.2597 37.4248 12.7104 37.4248C15.1938 37.4248 17.2364 37.0859 18.8357 36.4082C20.4351 35.7304 21.617 34.8237 22.3838 33.6856C23.1483 32.5498 23.5329 31.2878 23.5329 29.895C23.5329 28.2661 23.1249 26.962 22.3088 25.9781C21.4927 24.9943 20.4116 24.216 19.0679 23.6388C17.7242 23.0616 16.2608 22.5871 14.6779 22.2156C13.095 21.8416 11.4956 21.4444 9.87984 21.019C8.26408 20.596 6.78199 20.0515 5.43825 19.3901C4.09452 18.7288 3.02281 17.8127 2.22314 16.6441C1.42346 15.4733 1.02245 13.9566 1.02245 12.0917C1.02245 10.4978 1.44691 9.00682 2.29818 7.61631C3.14945 6.22579 4.47677 5.09935 6.28014 4.23466C8.08351 3.36997 10.3981 2.93762 13.2216 2.93762C15.161 2.93762 17.0746 3.23442 18.9647 3.82802C20.8525 4.42162 22.4612 5.20919 23.7885 6.19307L23.024 7.56722C21.5959 6.51557 20.013 5.73502 18.2776 5.22789C16.5422 4.71842 14.8749 4.46368 13.2755 4.46368C10.8929 4.46368 8.91132 4.8119 7.32839 5.50599C5.74546 6.20242 4.57995 7.12553 3.83187 8.27767C3.08379 9.42982 2.70857 10.7035 2.70857 12.0917C2.70857 13.7533 3.11662 15.076 3.9327 16.0599C4.74879 17.0438 5.82988 17.8243 7.17361 18.3992C8.51735 18.9765 9.99006 19.4509 11.5894 19.8225C13.1888 20.1964 14.7881 20.5937 16.3875 21.019C17.9868 21.4444 19.4572 21.9935 20.8032 22.6713C22.147 23.349 23.2187 24.2581 24.0184 25.3939C24.818 26.5297 25.219 28.0137 25.219 29.8459C25.219 31.4397 24.7852 32.9331 23.9175 34.3212C23.0498 35.7118 21.6873 36.8312 19.8347 37.6795C17.9774 38.5255 15.6206 38.9508 12.7619 38.9508Z" fill="#E33A3A"/>
<path d="M44.7654 38.7451V3.13855H57.1685C60.128 3.13855 62.6725 3.61296 64.7994 4.56178C66.9264 5.51061 68.5516 6.85905 69.6749 8.6048C70.7982 10.3529 71.3586 12.4632 71.3586 14.9381C71.3586 17.413 70.7982 19.535 69.6749 21.2971C68.5516 23.0615 66.9264 24.417 64.7994 25.3658C62.6725 26.3146 60.128 26.789 57.1685 26.789H45.7339L46.5007 25.9757V38.7428H44.7654V38.7451ZM46.5031 25.9781L45.7362 25.2139H57.2717C61.2865 25.2139 64.3586 24.3165 66.4856 22.517C68.6126 20.7198 69.6749 18.1935 69.6749 14.9381C69.6749 11.6826 68.6102 9.16334 66.4856 7.38488C64.3586 5.60408 61.2865 4.71369 57.2717 4.71369H45.7362L46.5031 3.90041V25.9781Z" fill="#E33A3A"/>
<path d="M134.758 38.7451V3.13855H147.161C150.121 3.13855 152.665 3.61296 154.792 4.56178C156.919 5.51061 158.544 6.85905 159.667 8.6048C160.791 10.3529 161.351 12.4632 161.351 14.9381C161.351 17.413 160.791 19.535 159.667 21.2971C158.544 23.0615 156.919 24.417 154.792 25.3658C152.665 26.3146 150.121 26.789 147.161 26.789H135.726L136.491 25.9757V38.7428H134.758V38.7451ZM136.493 25.9781L135.729 25.2139H147.264C151.279 25.2139 154.351 24.3165 156.478 22.517C158.605 20.7198 159.667 18.1935 159.667 14.9381C159.667 11.6826 158.603 9.16334 156.478 7.38488C154.351 5.60408 151.279 4.71369 147.264 4.71369H135.729L136.493 3.90041V25.9781ZM159.871 38.7451L150.58 25.8238H152.571L161.912 38.7451H159.871Z" fill="#E33A3A"/>
<path d="M181.615 38.7451V3.13857H183.35V38.7475H181.615V38.7451ZM183.097 29.5888L183.046 27.4013L206.731 3.13623H208.874L192.897 19.5677L191.877 20.5843L183.097 29.5888ZM207.854 38.7451L191.265 19.9229L192.44 18.7521L210 38.7428H207.854V38.7451Z" fill="#E33A3A"/>
<path d="M50.8578 69C50.0371 69 49.2655 68.9159 48.5456 68.7476C47.8256 68.5794 47.2581 68.3924 46.8407 68.1868V65.4104H47.0307C47.3472 66.3732 47.8538 67.1421 48.555 67.717C49.2561 68.2919 50.0417 68.577 50.9141 68.577C51.7607 68.577 52.4384 68.3667 52.952 67.9437C53.4632 67.5207 53.7188 66.9809 53.7188 66.3195C53.7188 65.8427 53.5758 65.4455 53.292 65.1253C53.0083 64.8051 52.6448 64.5457 52.2016 64.3471C51.7583 64.1461 51.2237 63.9591 50.5905 63.7862C49.7322 63.5361 49.038 63.2931 48.5057 63.0547C47.9757 62.8163 47.5419 62.4868 47.2089 62.0638C46.8735 61.6408 46.707 61.101 46.707 60.4396C46.707 59.8343 46.8806 59.2898 47.2276 58.8084C47.5747 58.3269 48.0672 57.9507 48.705 57.6796C49.3429 57.4085 50.0793 57.2729 50.9118 57.2729C51.5684 57.2729 52.2227 57.3477 52.8723 57.4996C53.5218 57.6516 54.0448 57.8128 54.4364 57.9857V60.5354H54.2465C53.944 59.6684 53.4843 58.979 52.8723 58.4648C52.2602 57.9507 51.5168 57.6936 50.6468 57.6936C50.166 57.6936 49.7275 57.7777 49.3288 57.946C48.9302 58.1143 48.6112 58.3573 48.372 58.6775C48.1328 58.9977 48.0132 59.3739 48.0132 59.8063C48.0132 60.2386 48.1563 60.6008 48.4401 60.893C48.7238 61.1851 49.0896 61.4281 49.5399 61.6244C49.9878 61.8184 50.56 62.0194 51.2542 62.2251C52.1007 62.4751 52.7855 62.7182 53.3108 62.9565C53.8338 63.1949 54.2793 63.5361 54.6475 63.9801C55.0133 64.4242 55.1962 64.9967 55.1962 65.7002C55.1962 66.3382 55.0086 66.9108 54.6381 67.4132C54.2652 67.9157 53.7517 68.3059 53.095 68.5817C52.4361 68.8621 51.6927 69 50.8578 69Z" fill="#232121"/>
<path d="M70.1461 68.7406C70.3103 68.5466 70.4486 68.3012 70.5635 68.0091C70.6761 67.717 70.7347 67.4202 70.7347 67.1164V57.7964H69.5223C68.8657 57.7964 68.3123 57.8945 67.8643 58.0885C67.4164 58.2825 67.0436 58.5512 66.7457 58.8924C66.4479 59.2337 66.1689 59.6637 65.9015 60.1825H65.7115L66.129 57.4552H77.1556L77.5542 60.1825H77.3643C77.111 59.6637 76.8343 59.2337 76.5318 58.8924C76.2293 58.5512 75.8517 58.2825 75.4038 58.0885C74.9559 57.8945 74.4095 57.7964 73.7646 57.7964H72.5334V67.1164C72.5334 67.4202 72.5897 67.717 72.7046 68.0091C72.8172 68.3012 72.9579 68.5443 73.122 68.7406V68.8224H70.1485V68.7406H70.1461Z" fill="#232121"/>
<path d="M94.0754 69C92.4831 69 91.2355 68.6775 90.3326 68.0348C89.4298 67.3921 88.9772 66.4784 88.9772 65.2982V59.1612C88.9772 58.8574 88.9209 58.5606 88.806 58.2685C88.6934 57.9763 88.5527 57.7333 88.3885 57.537V57.4552H91.3621V57.537C91.198 57.731 91.0596 57.9763 90.9447 58.2685C90.8321 58.5606 90.7735 58.8597 90.7735 59.1612V65.2982C90.7735 66.3148 91.1112 67.1023 91.7866 67.6609C92.462 68.2194 93.3555 68.4975 94.467 68.4975C95.5786 68.4975 96.4721 68.2194 97.1475 67.6609C97.8228 67.1047 98.1605 66.3171 98.1605 65.2982V59.1612C98.1605 58.8691 98.0902 58.598 97.9518 58.3503C97.8135 58.1025 97.6047 57.8315 97.3257 57.5393V57.4575H99.4855V57.5393C99.2064 57.8315 99.0001 58.1025 98.8594 58.3503C98.721 58.6003 98.6506 58.8691 98.6506 59.1612V65.2982C98.6506 66.4667 98.2403 67.3758 97.4195 68.0255C96.6057 68.6751 95.4895 69 94.0754 69Z" fill="#232121"/>
<path d="M111.542 68.7406C111.706 68.5466 111.844 68.3012 111.959 68.0091C112.074 67.717 112.13 67.4202 112.13 67.1164V59.1612C112.13 58.8574 112.074 58.5606 111.959 58.2685C111.846 57.9763 111.706 57.7333 111.542 57.537V57.4552H116.354C117.592 57.4552 118.722 57.6445 119.745 58.0231C120.767 58.4017 121.593 59.014 122.216 59.8576C122.843 60.7013 123.154 61.795 123.154 63.1365C123.154 64.4779 122.843 65.5716 122.216 66.4153C121.59 67.2589 120.767 67.8712 119.745 68.2498C118.722 68.6284 117.592 68.8177 116.354 68.8177H111.542V68.7406ZM115.92 68.4648C116.931 68.4648 117.826 68.2872 118.61 67.9296C119.393 67.5721 120.014 66.9948 120.476 66.2003C120.938 65.4057 121.168 64.3844 121.168 63.1388C121.168 61.8932 120.938 60.8766 120.476 60.0867C120.014 59.2968 119.393 58.7195 118.61 58.3573C117.826 57.995 116.931 57.8128 115.92 57.8128C115.315 57.8128 114.651 57.8946 113.931 58.0558V68.2194C114.649 68.383 115.313 68.4648 115.92 68.4648Z" fill="#232121"/>
<path d="M135.131 68.7406C135.295 68.5466 135.433 68.3012 135.548 68.0091C135.663 67.717 135.719 67.4202 135.719 67.1164V59.1612C135.719 58.8574 135.663 58.5606 135.548 58.2685C135.436 57.9763 135.295 57.7333 135.131 57.537V57.4552H138.048V57.537C137.884 57.731 137.746 57.9763 137.631 58.2685C137.516 58.5606 137.46 58.8597 137.46 59.1612V67.1164C137.46 67.4202 137.516 67.717 137.631 68.0091C137.743 68.3012 137.884 68.5443 138.048 68.7406V68.8224H135.131V68.7406Z" fill="#232121"/>
<path d="M156.143 69C154.93 69 153.863 68.7569 152.942 68.2685C152.02 67.7824 151.302 67.093 150.791 66.2073C150.28 65.3216 150.024 64.2979 150.024 63.1388C150.024 61.9796 150.28 60.9584 150.791 60.0703C151.302 59.1822 152.02 58.4952 152.942 58.0091C153.863 57.523 154.93 57.2776 156.143 57.2776C157.355 57.2776 158.422 57.5206 159.344 58.0091C160.265 58.4952 160.983 59.1846 161.494 60.0703C162.005 60.9584 162.261 61.982 162.261 63.1388C162.261 64.2979 162.005 65.3192 161.494 66.2073C160.983 67.0953 160.265 67.7824 159.344 68.2685C158.422 68.7569 157.355 69 156.143 69ZM156.143 68.6424C156.964 68.6424 157.686 68.4087 158.312 67.9437C158.938 67.4786 159.421 66.8289 159.761 65.9946C160.101 65.1603 160.272 64.2091 160.272 63.1365C160.272 62.0638 160.101 61.1126 159.761 60.2783C159.421 59.444 158.938 58.7966 158.312 58.3292C157.686 57.8642 156.964 57.6305 156.143 57.6305C155.322 57.6305 154.6 57.8642 153.974 58.3292C153.347 58.7943 152.864 59.444 152.524 60.2783C152.184 61.1126 152.013 62.0638 152.013 63.1365C152.013 64.2091 152.184 65.1603 152.524 65.9946C152.864 66.8289 153.347 67.4786 153.974 67.9437C154.597 68.4111 155.32 68.6424 156.143 68.6424Z" fill="#232121"/>
<path d="M115.779 39.5701H90.3726L91.0456 38.1118C95.2292 29.5771 100.682 24.2791 105.747 20.9886L104.868 19.1027C100.121 20.7245 96.111 23.0148 93.0577 25.1251C86.74 29.4906 83.0371 34.0501 83.002 34.0945L79.5781 38.0721L97.3304 0L105.529 17.5836C109.682 16.2819 114.349 15.5013 119.402 15.742L125.145 16.0155L119.477 16.969C119.44 16.976 119.379 16.9853 119.297 16.997C117.2 17.2962 112.548 18.287 107.335 21.4537L115.779 39.5701ZM92.3213 38.3315H113.83L106.275 22.1244C101.474 25.2747 96.3244 30.3039 92.3213 38.3315ZM97.3304 2.93995L84.341 30.7947C86.0857 29.0373 88.7849 26.5741 92.3143 24.1296C95.4239 21.9772 99.5067 19.6402 104.338 17.9739L97.3304 2.93995ZM106.056 18.7171L106.807 20.3272C109.246 18.8596 111.567 17.8477 113.575 17.1536C110.918 17.4387 108.406 17.9902 106.056 18.7171Z" fill="#E33A3A"/>
<path d="M124.039 16.105C125.191 11.7558 125.96 8.18685 125.758 8.13349C125.555 8.08013 124.456 11.5626 123.305 15.9118C122.153 20.2609 121.383 23.8299 121.586 23.8832C121.789 23.9366 122.887 20.4542 124.039 16.105Z" fill="#E33A3A"/>
<path d="M131.574 18.0869C131.627 17.8847 128.133 16.7903 123.769 15.6424C119.405 14.4945 115.823 13.7278 115.77 13.93C115.716 14.1321 119.211 15.2266 123.575 16.3745C127.939 17.5224 131.52 18.2891 131.574 18.0869Z" fill="#E33A3A"/>
</svg>
