<svg width="273" height="61" viewBox="0 0 273 61" fill="none" xmlns="http://www.w3.org/2000/svg">
<g clip-path="url(#clip0_153_594)">
<path d="M265.963 0.109926C268.051 -6.29574e-07 270.14 -6.29574e-07 272.229 0.0549629C265.963 13.1363 259.917 26.3275 253.816 39.4638H248.704C245.901 32.8682 242.603 26.4374 239.69 19.8418C241.724 19.7869 243.757 19.7869 245.791 19.8418C247.55 23.9091 249.639 27.8115 251.233 31.8788C256.124 21.2709 261.181 10.7179 265.963 0.109926Z" fill="#FF0000"/>
<path d="M108.602 5.7162C112.615 5.77117 116.682 5.77117 120.694 5.7162C120.639 9.28883 120.639 12.9164 120.694 16.489C116.682 16.4341 112.615 16.489 108.547 16.4341C108.657 12.8615 108.547 9.28883 108.602 5.7162ZM47.7576 21.106C56.0021 16.4341 67.9842 18.028 73.5355 26.1077C76.9432 30.8895 77.9326 36.9355 77.8776 42.6517C68.4239 42.7066 58.9702 42.6517 49.5164 42.7066C49.9562 45.6197 51.2203 48.6977 53.9135 50.2366C57.761 52.4901 63.8069 51.8306 65.7307 47.3785C69.6331 47.2686 73.4805 47.2686 77.3829 47.3785C76.1737 51.8306 72.9309 55.6231 68.8636 57.7117C64.4665 60.1301 59.19 60.5698 54.2983 59.7453C49.1317 58.9209 44.3499 56.0078 41.4368 51.6657C38.2489 47.0488 37.4245 41.1677 38.139 35.7263C38.8535 29.7353 42.4261 24.074 47.7576 21.106ZM54.1883 27.9764C51.4951 29.2406 50.176 32.1536 49.5714 34.9568H65.7307C65.4009 32.8132 64.6314 30.5597 62.9825 29.0757C60.674 26.8222 56.9915 26.7672 54.1883 27.9764ZM174.503 19.0174C180.989 17.8631 188.189 19.2372 193.191 23.7442C201.71 31.3292 202.095 46.0045 194.18 54.139C187.915 60.6797 177.417 61.8889 169.392 58.2063C163.181 55.4032 158.949 49.0824 158.234 42.3769C157.959 38.4744 158.124 34.4621 159.718 30.8345C162.137 24.6236 168.018 20.1166 174.503 19.0174ZM175.878 27.9764C172.47 29.1856 170.876 32.8682 170.381 36.2209C169.996 40.3982 170.051 45.125 172.745 48.5877C175.658 52.3802 182.088 52.2703 185.001 48.5328C187.42 45.5098 187.805 41.3875 187.53 37.65C187.365 34.3522 186.211 30.8345 183.463 28.8009C181.264 27.3169 178.351 27.097 175.878 27.9764ZM217.65 21.2709C221.662 18.138 227.378 17.8082 231.995 19.6769C235.293 21.106 237.766 24.0191 238.921 27.3718C240.24 30.8345 239.855 34.572 239.855 38.1996C239.855 45.125 239.8 52.0504 239.91 58.9209C235.898 58.9758 231.885 58.9209 227.818 58.9758V35.2316C227.818 33.198 227.049 30.9994 225.345 29.7353C222.761 27.9764 219.024 28.3062 216.825 30.5047C215.067 32.2636 214.297 34.7919 214.352 37.2103V58.9758C210.395 58.9209 206.382 58.9758 202.425 58.9209C202.425 45.8396 202.48 32.7582 202.425 19.6769C206.327 19.7319 210.175 19.622 214.077 19.7319C214.022 21.5457 214.022 23.3595 213.967 25.1733C215.176 23.8542 216.166 22.3701 217.65 21.2709ZM0.104248 19.7869H12.6359C15.1642 28.1963 17.8575 36.6057 20.2209 45.0701C23.134 36.7706 25.3325 28.1963 28.0807 19.7869C32.093 19.7319 36.1603 19.7869 40.1726 19.7319C35.5557 32.8132 31.0487 45.8945 26.4867 58.9758C22.3095 58.9758 18.1323 58.9209 13.9551 59.0308C9.17323 46.0045 4.94104 32.7582 0.104248 19.7869ZM80.6258 19.7319H92.1681C92.1132 21.9304 92.1681 24.129 92.0582 26.3275C93.0475 25.2282 93.7621 23.8542 94.8064 22.8099C97.3897 19.9517 101.622 18.7975 105.359 19.7869C105.304 23.2496 105.304 26.7123 105.359 30.12C102.391 29.7902 99.0935 29.9001 96.5652 31.7139C93.872 33.5827 92.6628 37.0454 92.7178 40.2333C92.6628 46.4991 92.7178 52.71 92.7178 58.9758C88.7054 58.9758 84.6381 58.9209 80.6258 59.0308C80.6807 45.8945 80.6807 32.8132 80.6258 19.7319ZM108.602 19.7869C112.67 19.7319 116.682 19.7869 120.749 19.7319C120.694 32.8132 120.749 45.8945 120.749 58.9758C116.737 58.9209 112.67 58.9758 108.602 58.9758V19.7869ZM123.992 19.7319C134.93 19.7869 145.867 19.7319 156.75 19.7869C156.64 22.8099 156.75 25.7779 156.695 28.8009C156.311 29.5704 155.651 30.12 155.156 30.7796C149.55 36.9904 144.054 43.3662 138.337 49.5221C144.768 49.632 151.199 49.5221 157.63 49.5771V59.0308C146.417 58.9758 135.205 58.9758 123.992 59.0308V49.9069C129.873 43.3112 135.699 36.7706 141.635 30.2299C141.8 29.9001 142.515 29.5704 142.13 29.1307C136.084 29.2955 130.038 29.1307 123.992 29.2406V19.7319Z" fill="black"/>
</g>
<defs>
<clipPath id="clip0_153_594">
<rect width="272.333" height="60.24" fill="white"/>
</clipPath>
</defs>
</svg>
