<svg width="128" height="128" viewBox="0 0 128 128" fill="none" xmlns="http://www.w3.org/2000/svg">
<path d="M63.5903 6.43872C82.0095 34.3555 81.3055 58.7779 63.6287 73.2035C63.1679 73.5747 62.6047 73.5875 62.1439 73.2035C46.2975 60.0963 43.2895 35.0467 62.1695 6.43872C62.3999 6.08032 63.3599 6.08032 63.5903 6.43872Z" fill="#DC4102"/>
<path d="M49.2542 48.0775C49.0878 46.1831 49.0622 44.2375 49.139 42.2407C49.3694 35.8279 51.0206 29.0695 53.3886 23.1175C56.3838 15.5911 60.2878 9.31911 62.2334 6.33671C62.6302 5.72231 63.1166 5.70951 63.5262 6.33671C65.011 8.60231 69.7086 16.0391 72.7422 23.6295C74.8926 29.0055 76.5566 35.0983 77.0302 41.0503C77.2222 43.4311 77.2222 45.7607 77.0174 48.0647C75.0078 47.5527 64.051 40.3463 62.8734 29.4791C61.4654 40.3975 51.1486 48.1287 49.2542 48.0775Z" fill="#FC6502"/>
<path d="M112.794 68.7246L62.8735 111.873L12.9663 68.7246C12.9663 68.7246 12.9663 77.0958 12.9663 79.9502C12.9663 80.2062 13.0303 80.7054 13.4527 81.0766C17.8303 84.8398 50.6879 113.128 62.1439 122.997C62.3999 123.214 62.6431 123.329 62.8735 123.329C63.1167 123.317 63.3599 123.214 63.6031 122.997C75.0591 113.115 107.917 84.8398 112.294 81.0766C112.717 80.7182 112.781 80.2062 112.781 79.9502C112.781 77.0958 112.794 68.7246 112.794 68.7246Z" fill="#DC4102"/>
<path d="M112.794 61.8375C112.794 61.4535 112.422 61.0439 111.949 61.4535C100.646 71.2711 68.4927 99.2007 63.5007 103.335C63.2575 103.54 63.0655 103.642 62.8735 103.642C62.6815 103.642 62.4895 103.54 62.2463 103.335C57.2543 99.2135 25.1007 71.2711 13.8111 61.4535C13.3375 61.0439 12.9663 61.4535 12.9663 61.8375C12.9663 64.5383 12.9663 72.6535 12.9663 72.6535L62.8735 115.623L112.781 72.6535C112.794 72.6535 112.794 64.5383 112.794 61.8375Z" fill="#FC6502"/>
<path d="M13.8367 26.2797C17.5231 28.6349 31.9359 38.2989 38.5151 49.7805C43.5583 58.5869 44.6975 67.9181 44.6975 67.9181L12.9663 48.0781C12.9663 48.0781 12.9663 32.0269 12.9663 26.6893C12.9663 26.4461 13.2863 25.9213 13.8367 26.2797Z" fill="#FC6502"/>
<path d="M53.5295 84.9541C41.8431 74.6245 37.4271 70.0293 28.1471 64.3845C23.8207 61.7477 15.5263 56.6021 13.4527 55.3093C13.1455 55.1173 12.9663 54.7845 12.9663 54.1829C12.9663 52.6469 12.9663 48.0645 12.9663 48.0645C12.9663 48.0645 33.2415 56.9733 44.6975 67.9045C57.8303 80.4229 59.3407 85.6709 57.6255 86.6821C56.1919 87.5269 55.0143 86.2725 53.5295 84.9541Z" fill="#DC4102"/>
<path d="M111.91 26.4065C108.224 28.7617 93.8109 38.4257 87.2317 49.9073C82.1885 58.7137 81.0493 68.0449 81.0493 68.0449L112.781 48.2049C112.781 48.2049 112.781 32.1537 112.781 26.8161C112.793 26.5601 112.473 26.0481 111.91 26.4065Z" fill="#FC6502"/>
<path d="M72.2302 85.0693C83.9166 74.7525 88.3326 70.1445 97.6126 64.4997C101.939 61.8629 110.233 56.7173 112.307 55.4245C112.614 55.2325 112.793 54.8997 112.793 54.2981C112.793 52.7621 112.793 48.1797 112.793 48.1797C112.793 48.1797 92.5182 57.0885 81.0622 68.0197C67.9294 80.5381 66.419 85.7861 68.1342 86.7973C69.555 87.6549 70.7454 86.3877 72.2302 85.0693Z" fill="#DC4102"/>
</svg>
